<svg id="visual" viewBox="0 0 900 600" width="900" height="600" xmlns="http://www.w3.org/2000/svg" xmlns:xlink="http://www.w3.org/1999/xlink" version="1.1"><path d="M0 115L39 115L39 133L78 133L78 73L117 73L117 103L157 103L157 73L196 73L196 79L235 79L235 115L274 115L274 133L313 133L313 91L352 91L352 115L391 115L391 97L430 97L430 79L470 79L470 133L509 133L509 79L548 79L548 85L587 85L587 103L626 103L626 73L665 73L665 73L704 73L704 97L743 97L743 91L783 91L783 103L822 103L822 127L861 127L861 85L900 85L900 115L900 0L900 0L861 0L861 0L822 0L822 0L783 0L783 0L743 0L743 0L704 0L704 0L665 0L665 0L626 0L626 0L587 0L587 0L548 0L548 0L509 0L509 0L470 0L470 0L430 0L430 0L391 0L391 0L352 0L352 0L313 0L313 0L274 0L274 0L235 0L235 0L196 0L196 0L157 0L157 0L117 0L117 0L78 0L78 0L39 0L39 0L0 0Z" fill="#92d320"></path><path d="M0 367L39 367L39 289L78 289L78 193L117 193L117 253L157 253L157 271L196 271L196 343L235 343L235 349L274 349L274 319L313 319L313 349L352 349L352 319L391 319L391 217L430 217L430 355L470 355L470 349L509 349L509 337L548 337L548 205L587 205L587 331L626 331L626 325L665 325L665 271L704 271L704 271L743 271L743 265L783 265L783 295L822 295L822 391L861 391L861 277L900 277L900 337L900 113L900 83L861 83L861 125L822 125L822 101L783 101L783 89L743 89L743 95L704 95L704 71L665 71L665 71L626 71L626 101L587 101L587 83L548 83L548 77L509 77L509 131L470 131L470 77L430 77L430 95L391 95L391 113L352 113L352 89L313 89L313 131L274 131L274 113L235 113L235 77L196 77L196 71L157 71L157 101L117 101L117 71L78 71L78 131L39 131L39 113L0 113Z" fill="#80bc19"></path><path d="M0 493L39 493L39 445L78 445L78 451L117 451L117 529L157 529L157 481L196 481L196 505L235 505L235 499L274 499L274 445L313 445L313 463L352 463L352 523L391 523L391 475L430 475L430 475L470 475L470 529L509 529L509 487L548 487L548 427L587 427L587 517L626 517L626 475L665 475L665 511L704 511L704 451L743 451L743 445L783 445L783 511L822 511L822 529L861 529L861 457L900 457L900 451L900 335L900 275L861 275L861 389L822 389L822 293L783 293L783 263L743 263L743 269L704 269L704 269L665 269L665 323L626 323L626 329L587 329L587 203L548 203L548 335L509 335L509 347L470 347L470 353L430 353L430 215L391 215L391 317L352 317L352 347L313 347L313 317L274 317L274 347L235 347L235 341L196 341L196 269L157 269L157 251L117 251L117 191L78 191L78 287L39 287L39 365L0 365Z" fill="#6fa512"></path><path d="M0 601L39 601L39 601L78 601L78 601L117 601L117 601L157 601L157 601L196 601L196 601L235 601L235 601L274 601L274 601L313 601L313 601L352 601L352 601L391 601L391 601L430 601L430 601L470 601L470 601L509 601L509 601L548 601L548 601L587 601L587 601L626 601L626 601L665 601L665 601L704 601L704 601L743 601L743 601L783 601L783 601L822 601L822 601L861 601L861 601L900 601L900 601L900 449L900 455L861 455L861 527L822 527L822 509L783 509L783 443L743 443L743 449L704 449L704 509L665 509L665 473L626 473L626 515L587 515L587 425L548 425L548 485L509 485L509 527L470 527L470 473L430 473L430 473L391 473L391 521L352 521L352 461L313 461L313 443L274 443L274 497L235 497L235 503L196 503L196 479L157 479L157 527L117 527L117 449L78 449L78 443L39 443L39 491L0 491Z" fill="#5e8e0b"></path></svg>