<svg id="visual" viewBox="0 0 900 600" width="900" height="600" xmlns="http://www.w3.org/2000/svg" xmlns:xlink="http://www.w3.org/1999/xlink" version="1.1"><g stroke-width="1" stroke-linejoin="bevel"><path d="M508.3 271L510.3 381L636.9 354Z" fill="#ffdbc2" stroke="#ffdbc2"></path><path d="M636.9 354L626.9 258L508.3 271Z" fill="#ffd1b2" stroke="#ffd1b2"></path><path d="M510.3 381L668.9 480L636.9 354Z" fill="#ffc9a5" stroke="#ffc9a5"></path><path d="M522.3 501L668.9 480L510.3 381Z" fill="#ffd1b2" stroke="#ffd1b2"></path><path d="M636.9 354L774.4 370L626.9 258Z" fill="#ffdbc2" stroke="#ffdbc2"></path><path d="M508.3 271L387.7 391L510.3 381Z" fill="#ffcead" stroke="#ffcead"></path><path d="M510.3 381L368.7 451L522.3 501Z" fill="#ffcca9" stroke="#ffcca9"></path><path d="M537.3 104L379.7 223L508.3 271Z" fill="#ffd1b2" stroke="#ffd1b2"></path><path d="M508.3 271L379.7 223L387.7 391Z" fill="#ffcca9" stroke="#ffcca9"></path><path d="M668.9 480L774.4 370L636.9 354Z" fill="#ffcca9" stroke="#ffcca9"></path><path d="M774.4 370L753.4 211L626.9 258Z" fill="#ffe0cb" stroke="#ffe0cb"></path><path d="M626.9 258L537.3 104L508.3 271Z" fill="#ffd6ba" stroke="#ffd6ba"></path><path d="M616.9 87L537.3 104L626.9 258Z" fill="#ffcca9" stroke="#ffcca9"></path><path d="M262.1 367L368.7 451L387.7 391Z" fill="#ffe2cf" stroke="#ffe2cf"></path><path d="M387.7 391L368.7 451L510.3 381Z" fill="#ffe2cf" stroke="#ffe2cf"></path><path d="M753.4 211L616.9 87L626.9 258Z" fill="#ffd1b2" stroke="#ffd1b2"></path><path d="M545.3 0L403.7 98L537.3 104Z" fill="#ffdbc2" stroke="#ffdbc2"></path><path d="M537.3 104L403.7 98L379.7 223Z" fill="#ffe0cb" stroke="#ffe0cb"></path><path d="M402.7 600L517.3 600L522.3 501Z" fill="#ffd3b6" stroke="#ffd3b6"></path><path d="M522.3 501L648.9 600L668.9 480Z" fill="#ffd8be" stroke="#ffd8be"></path><path d="M753.4 211L764.4 129L616.9 87Z" fill="#ffddc7" stroke="#ffddc7"></path><path d="M900 216L764.4 129L753.4 211Z" fill="#ffd8be" stroke="#ffd8be"></path><path d="M760.4 600L795.4 495L668.9 480Z" fill="#ffd1b2" stroke="#ffd1b2"></path><path d="M668.9 480L795.4 495L774.4 370Z" fill="#ffcca9" stroke="#ffcca9"></path><path d="M774.4 370L900 327L753.4 211Z" fill="#ffd8be" stroke="#ffd8be"></path><path d="M517.3 600L648.9 600L522.3 501Z" fill="#ffcca9" stroke="#ffcca9"></path><path d="M379.7 223L262.1 367L387.7 391Z" fill="#ffc9a5" stroke="#ffc9a5"></path><path d="M368.7 451L402.7 600L522.3 501Z" fill="#ffc9a5" stroke="#ffc9a5"></path><path d="M228.1 218L262.1 367L379.7 223Z" fill="#ffcead" stroke="#ffcead"></path><path d="M262.1 367L283.1 461L368.7 451Z" fill="#ffddc7" stroke="#ffddc7"></path><path d="M283.1 461L402.7 600L368.7 451Z" fill="#ffd3b6" stroke="#ffd3b6"></path><path d="M616.9 87L545.3 0L537.3 104Z" fill="#ffe0cb" stroke="#ffe0cb"></path><path d="M661.9 0L545.3 0L616.9 87Z" fill="#ffd3b6" stroke="#ffd3b6"></path><path d="M900 479L900 327L774.4 370Z" fill="#ffd3b6" stroke="#ffd3b6"></path><path d="M648.9 600L760.4 600L668.9 480Z" fill="#ffe2cf" stroke="#ffe2cf"></path><path d="M795.4 495L900 479L774.4 370Z" fill="#ffd8be" stroke="#ffd8be"></path><path d="M764.4 129L661.9 0L616.9 87Z" fill="#ffd8be" stroke="#ffd8be"></path><path d="M900 327L900 216L753.4 211Z" fill="#ffe0cb" stroke="#ffe0cb"></path><path d="M764.4 129L746.4 0L661.9 0Z" fill="#ffc9a5" stroke="#ffc9a5"></path><path d="M247.1 102L379.7 223L403.7 98Z" fill="#ffd8be" stroke="#ffd8be"></path><path d="M247.1 102L228.1 218L379.7 223Z" fill="#ffc9a5" stroke="#ffc9a5"></path><path d="M262.1 367L129.6 373L283.1 461Z" fill="#ffd6ba" stroke="#ffd6ba"></path><path d="M900 600L900 479L795.4 495Z" fill="#ffd8be" stroke="#ffd8be"></path><path d="M545.3 0L382.7 0L403.7 98Z" fill="#ffd8be" stroke="#ffd8be"></path><path d="M900 92L746.4 0L764.4 129Z" fill="#ffddc7" stroke="#ffddc7"></path><path d="M382.7 0L247.1 102L403.7 98Z" fill="#ffd6ba" stroke="#ffd6ba"></path><path d="M900 216L900 92L764.4 129Z" fill="#ffddc7" stroke="#ffddc7"></path><path d="M108.6 150L155.6 267L228.1 218Z" fill="#ffddc7" stroke="#ffddc7"></path><path d="M228.1 218L155.6 267L262.1 367Z" fill="#ffdbc2" stroke="#ffdbc2"></path><path d="M122.6 509L247.1 600L283.1 461Z" fill="#ffddc7" stroke="#ffddc7"></path><path d="M283.1 461L247.1 600L402.7 600Z" fill="#ffe2cf" stroke="#ffe2cf"></path><path d="M760.4 600L900 600L795.4 495Z" fill="#ffd1b2" stroke="#ffd1b2"></path><path d="M155.6 267L129.6 373L262.1 367Z" fill="#ffcca9" stroke="#ffcca9"></path><path d="M247.1 102L108.6 150L228.1 218Z" fill="#ffd8be" stroke="#ffd8be"></path><path d="M382.7 0L237.1 0L247.1 102Z" fill="#ffd1b2" stroke="#ffd1b2"></path><path d="M900 92L900 0L746.4 0Z" fill="#ffe2cf" stroke="#ffe2cf"></path><path d="M129.6 373L122.6 509L283.1 461Z" fill="#ffd3b6" stroke="#ffd3b6"></path><path d="M143.6 0L108.6 150L247.1 102Z" fill="#ffddc7" stroke="#ffddc7"></path><path d="M155.6 267L0 361L129.6 373Z" fill="#ffcead" stroke="#ffcead"></path><path d="M129.6 373L0 462L122.6 509Z" fill="#ffe0cb" stroke="#ffe0cb"></path><path d="M122.6 509L141.6 600L247.1 600Z" fill="#ffcca9" stroke="#ffcca9"></path><path d="M237.1 0L143.6 0L247.1 102Z" fill="#ffdbc2" stroke="#ffdbc2"></path><path d="M0 223L0 361L155.6 267Z" fill="#ffd6ba" stroke="#ffd6ba"></path><path d="M122.6 509L0 600L141.6 600Z" fill="#ffddc7" stroke="#ffddc7"></path><path d="M0 223L155.6 267L108.6 150Z" fill="#ffe0cb" stroke="#ffe0cb"></path><path d="M0 97L0 223L108.6 150Z" fill="#ffcead" stroke="#ffcead"></path><path d="M0 361L0 462L129.6 373Z" fill="#ffd1b2" stroke="#ffd1b2"></path><path d="M143.6 0L0 97L108.6 150Z" fill="#ffd1b2" stroke="#ffd1b2"></path><path d="M0 462L0 600L122.6 509Z" fill="#ffddc7" stroke="#ffddc7"></path><path d="M143.6 0L0 0L0 97Z" fill="#ffc9a5" stroke="#ffc9a5"></path></g></svg>