<svg id="visual" viewBox="0 0 900 600" width="900" height="600" xmlns="http://www.w3.org/2000/svg" xmlns:xlink="http://www.w3.org/1999/xlink" version="1.1"><rect x="0" y="0" width="900" height="600" fill="#fafdff"></rect><defs><linearGradient id="grad1_0" x1="33.3%" y1="0%" x2="100%" y2="100%"><stop offset="20%" stop-color="#ffdac1" stop-opacity="1"></stop><stop offset="80%" stop-color="#ffdac1" stop-opacity="1"></stop></linearGradient></defs><defs><linearGradient id="grad1_1" x1="33.3%" y1="0%" x2="100%" y2="100%"><stop offset="20%" stop-color="#ffdac1" stop-opacity="1"></stop><stop offset="80%" stop-color="#fafdff" stop-opacity="1"></stop></linearGradient></defs><defs><linearGradient id="grad2_0" x1="0%" y1="0%" x2="66.7%" y2="100%"><stop offset="20%" stop-color="#ffdac1" stop-opacity="1"></stop><stop offset="80%" stop-color="#ffdac1" stop-opacity="1"></stop></linearGradient></defs><defs><linearGradient id="grad2_1" x1="0%" y1="0%" x2="66.7%" y2="100%"><stop offset="20%" stop-color="#fafdff" stop-opacity="1"></stop><stop offset="80%" stop-color="#ffdac1" stop-opacity="1"></stop></linearGradient></defs><g transform="translate(900, 0)"><path d="M0 459.7C-87.1 451.5 -174.2 443.4 -229.9 398.1C-285.6 352.9 -309.9 270.5 -342.9 198C-376 125.5 -417.9 62.7 -459.7 0L0 0Z" fill="#fde9f8"></path><path d="M0 229.9C-43.5 225.8 -87.1 221.7 -114.9 199.1C-142.8 176.4 -154.9 135.3 -171.5 99C-188 62.7 -208.9 31.4 -229.9 0L0 0Z" fill="#ffdac1"></path></g><g transform="translate(0, 600)"><path d="M0 -459.7C62.5 -417.4 124.9 -375.1 197.5 -342.1C270.1 -309.1 352.7 -285.3 398.1 -229.9C443.5 -174.4 451.6 -87.2 459.7 0L0 0Z" fill="#fde9f8"></path><path d="M0 -229.9C31.2 -208.7 62.5 -187.6 98.7 -171C135 -154.5 176.4 -142.7 199.1 -114.9C221.8 -87.2 225.8 -43.6 229.9 0L0 0Z" fill="#ffdac1"></path></g></svg>