<svg id="visual" viewBox="0 0 900 600" width="900" height="600" xmlns="http://www.w3.org/2000/svg" xmlns:xlink="http://www.w3.org/1999/xlink" version="1.1"><path d="M0 235L25 227C50 219 100 203 150 200C200 197 250 207 300 209C350 211 400 205 450 215C500 225 550 251 600 246C650 241 700 205 750 202C800 199 850 229 875 244L900 259L900 0L875 0C850 0 800 0 750 0C700 0 650 0 600 0C550 0 500 0 450 0C400 0 350 0 300 0C250 0 200 0 150 0C100 0 50 0 25 0L0 0Z" fill="#050e13"></path><path d="M0 415L25 427C50 439 100 463 150 475C200 487 250 487 300 489C350 491 400 495 450 495C500 495 550 491 600 480C650 469 700 451 750 446C800 441 850 449 875 453L900 457L900 257L875 242C850 227 800 197 750 200C700 203 650 239 600 244C550 249 500 223 450 213C400 203 350 209 300 207C250 205 200 195 150 198C100 201 50 217 25 225L0 233Z" fill="#00070b"></path><path d="M0 601L25 601C50 601 100 601 150 601C200 601 250 601 300 601C350 601 400 601 450 601C500 601 550 601 600 601C650 601 700 601 750 601C800 601 850 601 875 601L900 601L900 455L875 451C850 447 800 439 750 444C700 449 650 467 600 478C550 489 500 493 450 493C400 493 350 489 300 487C250 485 200 485 150 473C100 461 50 437 25 425L0 413Z" fill="#050e13"></path></svg>