<svg id="visual" viewBox="0 0 900 600" width="900" height="600" xmlns="http://www.w3.org/2000/svg" xmlns:xlink="http://www.w3.org/1999/xlink" version="1.1"><rect width="900" height="600" fill="#ffffff"></rect><g><g transform="translate(893 246)"><path d="M199.1 -73.2C222.5 7.1 181.3 100 114.3 145.9C47.3 191.9 -45.4 191 -114.9 143.9C-184.3 96.8 -230.5 3.4 -207.5 -76.4C-184.4 -156.3 -92.2 -222.7 -2.2 -222C87.9 -221.3 175.8 -153.5 199.1 -73.2Z" stroke="#efefef" fill="none" stroke-width="20"></path></g><g transform="translate(157 349)"><path d="M170.5 -54.5C191.1 8 157.4 89 95.7 134.5C34 180 -55.5 189.8 -118 147.9C-180.5 105.9 -215.9 12.1 -191.7 -55.3C-167.5 -122.7 -83.8 -163.8 -4.4 -162.4C75 -160.9 149.9 -117 170.5 -54.5Z" stroke="#efefef" fill="none" stroke-width="20"></path></g></g></svg>