<svg xmlns="http://www.w3.org/2000/svg" viewBox="0 0 400 400" height="400" width="400"><g><path d="M327.736 44.886c-52.066 0.82 -266.582 1.266 -320.238 0.584C4.312 45.43 4.07 40 7.368 40c55.31 0.068 246.512 -0.986 320.264 0.6 3.55 0.072 2.586 4.246 0.104 4.286Z" fill="#7e2553" stroke-width="1"/><path d="M263.846 200.83a36.77 36.77 0 0 1 -11.306 2.866 74.69 74.69 0 0 1 -0.148 13.756 1.068 1.068 0 0 1 -2.104 -0.076c-0.374 -3.126 0.5 -6.512 -0.13 -13.526 -4.678 0.126 -6.87 -1.324 -10.98 -1.882a75.116 75.116 0 0 1 -28.858 -10.24 1.254 1.254 0 0 1 -0.242 -1.746A117.438 117.438 0 0 0 230.6 152.8c0.534 -1.53 2.304 -3.586 2.312 -0.952 0.022 6.752 -0.766 13.5 -0.766 20.262 0 12.272 0.326 25.4 12.282 28.484 7.332 1.886 14.156 -0.506 18.694 -1.718 1.078 -0.298 1.878 1.396 0.724 1.954Z" fill="#7e2553" stroke-width="1"/><path d="M246.538 174.572c-1.048 2.03 2.524 1.79 4.666 1.892a1.148 1.148 0 0 1 0.19 2.256 11.234 11.234 0 0 1 -4.242 -0.24c-2.476 -0.514 -4.366 -1.426 -3.018 -4.2a48.626 48.626 0 0 1 2.964 -5.434 1.034 1.034 0 0 1 1.856 0.872 35.77 35.77 0 0 1 -2.416 4.854Z" fill="#7e2553" stroke-width="1"/><path d="M260.108 166.754c0.024 1.284 0.12 3.23 -1.772 3.28 -1.524 0.042 -1.952 -1.306 -1.944 -3.108 0.008 -3.246 3.638 -4.15 3.716 -0.172Z" fill="#7e2553" stroke-width="1"/><path d="M242.266 166.672c-0.032 1.228 -0.554 2.386 -1.972 2.328 -1.184 -0.048 -1.61 -1.648 -1.576 -2.702 0.05 -1.556 0.54 -2.35 1.524 -2.566 1.51 -0.332 2.066 1.4 2.024 2.94Z" fill="#7e2553" stroke-width="1"/><path d="M240.896 157.512a4.282 4.282 0 0 0 -4.084 1.924c-1.096 1.62 -2.268 0.29 -1.852 -0.67a6 6 0 0 1 6.24 -3.452 1.11 1.11 0 0 1 -0.304 2.198Z" fill="#7e2553" stroke-width="1"/><path d="M257.188 157.236a1.052 1.052 0 0 1 -0.32 -2.052 6.466 6.466 0 0 1 7.432 4.112c0.33 1.146 -1.2 2.086 -1.78 0.8a5.044 5.044 0 0 0 -5.332 -2.86Z" fill="#7e2553" stroke-width="1"/><path d="M247.66 185.33a8.85 8.85 0 0 0 10.436 4.942 8.742 8.742 0 0 0 5.8 -10.424c-0.244 -1 -1.14 -1.348 -2.216 -0.5 -4.502 3.548 -7.834 4.102 -13.154 4.19 -0.864 0.014 -1.37 0.788 -0.866 1.792Z" fill="#7e2553" stroke-width="1"/><path d="M102.176 223.848c0.476 0.902 -0.856 1.87 -1.6 1.2 -4.306 -3.898 -12.19 -9.4 -14.414 -14.6 -3 -7 -1.362 -15.766 -7.298 -21.43a1.096 1.096 0 0 1 1.342 -1.73c6.56 4.614 5.316 13.648 8.354 20.2 3.08 6.634 10.24 9.978 13.616 16.36Z" fill="#7e2553" stroke-width="1"/><path d="M58.302 213.632a37.786 37.786 0 0 1 -16.66 -7.888c-1.546 -1.362 0.306 -2.46 1.434 -1.698a39.6 39.6 0 0 0 16.052 6.67 49.438 49.438 0 0 0 16.972 -0.436c1.378 -0.184 1.348 1.832 0.4 2.4 -4.312 2.59 -13.358 2.018 -18.198 0.952Z" fill="#7e2553" stroke-width="1"/><path d="M32.872 210.514c-0.856 -0.938 0.584 -2.184 1.524 -1.504a58.546 58.546 0 0 0 21.644 10.4c6.136 1.4 4.434 4.272 -1.074 3.136a41.184 41.184 0 0 1 -22.094 -12.032Z" fill="#7e2553" stroke-width="1"/><path d="M56.712 232.43c-7.29 -0.422 -17.386 -3.782 -22.858 -8.578a1.092 1.092 0 0 1 1.19 -1.8c8.318 4.076 12.754 6.146 22.05 7.3 5.396 0.672 5.238 3.404 -0.382 3.078Z" fill="#7e2553" stroke-width="1"/><path d="M88.932 241.762c1.466 1 -0.2 3.462 -1.694 2.578 -7.884 -4.642 -16.862 -1.8 -25.426 -1.814a39.5 39.5 0 0 1 -23.366 -7.166c-0.986 -0.738 0.1 -2.214 1.142 -1.736a52.4 52.4 0 0 0 25.282 5.6c8.094 -0.49 16.866 -2.362 24.062 2.538Z" fill="#7e2553" stroke-width="1"/><path d="M392.348 360.018c-80.05 0.974 -307.972 -1.032 -356.656 -1.6 -3.136 -0.036 -5.624 -3.576 -0.09 -3.6 62.6 -0.322 263.522 -0.246 356.63 0.612 3.666 0.024 3.676 4.544 0.116 4.588Z" fill="#ff004d" stroke-width="1"/><path d="M238.098 215.314c-17.6 2.8 -51.312 21.618 -69.67 45.896 17.4 -2.634 68.72 -3.084 83.468 -1.354a146 146 0 0 0 -18.36 -18.66c2.56 -2.934 4.968 -5.216 7.074 -7.224 -4.214 -2.6 -11.142 -6.748 -14.2 -8.176a65.848 65.848 0 0 1 11.688 -10.482Z" fill="#ff004d" stroke-width="1"/><path d="M276.58 234.874a33.556 33.556 0 0 1 5.716 7.6c-6.17 3.536 -18.136 10.158 -25.358 17.832 6.896 0.904 11.4 4.25 13.8 14.4 1.032 4.354 2.456 11.34 3.868 19.182a239.514 239.514 0 0 1 39.708 -5.25 72.512 72.512 0 0 0 -9.318 -16.84c-0.824 -1.09 0.704 -2.474 1.614 -1.416a55.97 55.97 0 0 1 10.578 18.136 122.862 122.862 0 0 1 17.958 0.254c1.36 0.154 1.376 2.188 -0.032 2.154a238.92 238.92 0 0 0 -60.028 5.656c2.01 11.464 3.902 24.274 4.496 33.244 31 -0.302 81.292 15.016 89.086 -3.462 17.456 -41.382 -35.56 -106.696 -73.282 -112.414a39.084 39.084 0 0 1 6.546 14.748c-4.132 1.434 -19.932 5.196 -25.352 6.176Z" fill="#ff004d" stroke-width="1"/><path d="M253.374 246.614c-6.34 -15.822 -6.168 -24.244 -7.976 -32a1.056 1.056 0 0 0 -2.098 0.218c-0.064 9.362 4.706 24.956 8.58 33.922a1.586 1.586 0 0 0 2.542 0.3c12.546 -17.422 18.814 -23.716 33.2 -34.89a1.06 1.06 0 0 0 -1.158 -1.774 112.214 112.214 0 0 0 -33.09 34.224Z" fill="#ff004d" stroke-width="1"/><path d="M151.372 263.016c-12.34 -7.524 -33.258 -26.034 -41.834 -37.744a175.064 175.064 0 0 0 -22.874 28.866C102.276 277.162 127 302 142.494 309.216c-1.8 -7.676 -2.258 -28.894 -1.8 -35.666s5.562 -9.48 10.678 -10.534Z" fill="#ff004d" stroke-width="1"/><path d="M80.662 262.666c3.828 -0.16 1.86 -2.844 0.228 -2.876 -21.8 -0.428 -45.164 -0.96 -61.6 -0.704 1.27 -94.974 0.51 -154.9 1.03 -208.414 0.014 -1.418 -2.112 -1.2 -2.176 0.15 -2.076 43.506 -0.8 160.666 -2.4 207.94 -0.056 1.62 0.056 2.654 3.56 2.81 9.814 0.44 19.378 0.458 29.248 0.628 9.07 0.158 23.32 0.834 32.11 0.466Z" fill="#ff004d" stroke-width="1"/><path d="M319.498 168.4c0.962 -19.5 0.662 -39.258 0.75 -58.8 0.052 -11.552 0.576 -42.568 0.446 -57.79 -0.022 -2.636 -2.74 -1.134 -2.768 0.2 -0.526 25.846 -1.888 90.382 -0.9 116.418 0.084 2.192 2.374 2.16 2.472 -0.028Z" fill="#ff004d" stroke-width="1"/><path d="M50.892 108.8c0 -6.34 0.054 -12.676 0 -19.016 28.556 -0.164 57.13 -0.326 85.682 -0.842 0.024 5.548 0 11.096 0 16.644 -27.274 0.698 -55.164 1.726 -82.52 2.216 -1.762 0.032 -1.476 2.664 0.228 2.686 27.622 0.334 56.092 -1.428 83.8 -2.146a1.426 1.426 0 0 0 1.276 -1.51c0 -6.478 -0.022 -12.958 0.022 -19.436a1.438 1.438 0 0 0 -1.524 -1.284c-29.502 0.018 -59.024 0.42 -88.526 0.814a1.466 1.466 0 0 0 -1.312 1.554c0.164 6.84 0.512 13.664 0.748 20.5 0.034 1.39 2.124 1.194 2.126 -0.18Z" fill="#ff004d" stroke-width="1"/><path d="M49.228 154.514c29.824 -1.164 60.53 -1.3 90.172 -3.342a1.462 1.462 0 0 0 1.472 -1.724c-0.524 -4.228 -1.05 -8.456 -1.6 -12.68 -0.23 -1.754 -2.862 -1.154 -2.67 0.568 0.4 3.67 0.844 7.338 1.28 11 -28.956 1.222 -58.168 2.048 -87 2.972 0 -5.734 -0.03 -11.476 0.132 -17.2 29.15 -0.302 57.8 -0.774 87.27 -0.534a1.096 1.096 0 0 0 0.11 -2.188c-29.584 -1.362 -59.292 -0.762 -89 -0.702a1.748 1.748 0 0 0 -1.84 1.664c0.246 6.826 0.154 13.676 0.178 20.51a1.6 1.6 0 0 0 1.496 1.656Z" fill="#ff004d" stroke-width="1"/><path d="M136.946 194.566c-14.32 0.19 -32.538 -0.094 -47.228 0.6 -1.23 0.058 -1.174 2.566 0.032 2.586 13.226 0.226 33.242 -0.428 48.532 -0.106 1.69 0.036 1.768 -1.6 1.57 -2.816a58.364 58.364 0 0 1 -0.158 -18.04 1.47 1.47 0 0 0 -1.486 -1.742c-29.096 0.688 -58.2 1.764 -87.294 2.23a1.516 1.516 0 0 0 -1.412 1.558c-0.052 6.296 -0.04 12.6 -0.084 18.888a1.6 1.6 0 0 0 1.648 1.494c8.4 -0.308 15.014 -0.262 23.416 -0.78 1.4 -0.086 1.282 -2.612 -0.106 -2.616a853.64 853.64 0 0 0 -21.824 0.228c-0.03 -5.282 -0.036 -10.564 -0.072 -15.846 28.044 -1 56.11 -1.44 84.16 -2.224a60.8 60.8 0 0 0 0.306 16.586Z" fill="#ff004d" stroke-width="1"/><path d="M204.936 213.214c1.324 0.314 1.684 -1.812 0.4 -2.188a57.14 57.14 0 0 1 -32.8 -27.05c-16.262 -29.044 -6.2 -67.106 20.22 -86.414 23.4 -17.102 73.668 -16.754 89.876 11.2 0.98 1.69 3.526 0.766 2.71 -1.032C272.67 79.8 221.238 75.8 196.016 91.2c-29.698 18.14 -43.472 57.372 -28.76 89.526 7.4 16.176 21.144 28.572 37.68 32.488Z" fill="#ff004d" stroke-width="1"/><path d="M319.264 219.068c0.508 -4.312 0.056 -15.8 0.074 -22.522 0 -2.412 -2.264 -1.526 -2.346 -0.516a192.068 192.068 0 0 0 -0.06 23.042c0.09 1.146 2.2 1.128 2.332 -0.004Z" fill="#ff004d" stroke-width="1"/><path d="M326.436 337.356c-11.938 -1.4 -36.694 -2.934 -52.77 -3.2 0 -9.23 -8.828 -62 -14.446 -66.414 -5.38 -4.228 -107.444 -5.016 -111.658 3 -5.54 10.552 3.616 75.924 8.672 77.65 8.226 2.8 164.578 2.334 171.4 1.8 3.566 -0.27 4.074 -12.222 -1.198 -12.836Zm-147.368 -63.318c-5.928 0.62 -11.6 1.44 -17.512 2.306 -5.118 0.75 -5.48 1.822 -6.036 6.734a140.422 140.422 0 0 0 -1.012 17.578c0 1.25 -1.818 1.578 -1.984 0.262a84.336 84.336 0 0 1 0.152 -20.28c0.572 -4.416 2.2 -6.4 6.6 -7.298a82.166 82.166 0 0 1 19.778 -1.552 1.138 1.138 0 0 1 0.014 2.25Zm26.132 44.658c-4.23 0.8 -8.812 -1.488 -10.462 -7.94 -1.434 -5.6 1.2 -9.826 5.852 -11.016 11.14 -2.848 15.21 16.93 4.61 18.956Z" fill="#7e2553" stroke-width="1"/><path d="M320.84 185.172c-19.02 -18.846 -7.682 -45.268 -19.846 -58.054a14.276 14.276 0 0 0 -18.338 -2.2c-9.37 -15.238 -28.482 -18.926 -44.754 -13.856 -17.734 5.526 -24.088 27.176 -9.852 34.144 7.46 3.652 33.65 3.962 41.838 2.376a36.568 36.568 0 0 0 7.322 18.658c0.424 0.51 1.016 1.216 1.72 0.6a7.4 7.4 0 0 1 10.852 1.028 7.71 7.71 0 0 1 -2.094 10.726c-2.446 1.618 -4.19 1.382 -6.93 1.244 -0.858 -0.042 -1.018 0.676 -1.076 1.332 -0.846 9.528 -1.784 20.4 -0.33 29.876a1.02 1.02 0 0 0 2.026 -0.232c0.02 -2.568 -0.076 -5.136 -0.16 -7.706 13.39 1.498 30.344 -6.334 39.662 -15.288 1.476 -1.402 0.42 -2.192 -0.04 -2.648ZM248.8 119.98a20.2 20.2 0 0 0 -9.414 2.138c-3.242 1.556 -8.746 5.424 -8.376 9.48 0.11 1.216 -1.638 1.96 -2.092 0.706 -2.19 -6.044 3.906 -10.766 7.97 -12.984a24.8 24.8 0 0 1 11.8 -3.03c5.276 0.006 3.098 3.816 0.112 3.69Z" fill="#7e2553" stroke-width="1"/></g></svg>