<svg xmlns="http://www.w3.org/2000/svg" viewBox="0 0 400 400" height="400" width="400">
  <g>
    <g>
      <path d="M85.38 307.12A75.68 75.68 0 0 0 67.84 296c-4 4.22 -10.18 11.56 -12.56 14.1 3.8 -2.52 38.62 22.46 40 28.68 0.88 -11.78 -15.52 -21.48 -9.9 -31.66Z" fill="#ff6b97" stroke-width="1" />
      <path d="M206.7 318.98c-2 -4.78 -44.78 -12.48 -45.86 -8.32 0.9 -5.4 2.66 -7.68 3.08 -17.02a78.42 78.42 0 0 1 19.88 0.82c-0.68 12.22 20.92 12.82 22.9 24.52Z" fill="#ff6b97" stroke-width="1" />
      <path d="M366.98 245.4a14.74 14.74 0 0 1 -0.94 7.08c-2.94 -2 -22.5 -14.26 -22.5 -14.26l8.8 -1.86c7.02 4.2 12.4 7.44 14.64 9.04Z" fill="#ff6b97" stroke-width="1" />
      <path d="m315.56 196.98 -5.36 1.14 4.64 21.88c-2 -1.28 -3.54 -2.34 -4.58 -3.04 -1.58 -16.94 -6.66 -42.56 -11.16 -61.56a32.32 32.32 0 0 0 7.86 -6c4.12 17.14 5.04 23.74 8.6 47.58Z" fill="#ff6b97" stroke-width="1" />
      <path d="M352.22 267.86c-47.42 -26.72 -53.12 -30.18 -58 -35.62s-6.38 -13.88 -14 -48.28a147.36 147.36 0 0 1 -7.36 34.5 34.52 34.52 0 0 0 -1.9 4.32c4.36 22.22 8.4 39.22 12.34 56.3 -4.38 4.74 -18.92 9 -27.62 6.6 -14.14 -54.92 -14.94 -59.86 -14.32 -67.26 0.52 -6.3 3.24 -13.34 20.86 -51.74 -0.42 -0.96 -1.08 -2.7 -1.44 -3.68 10 2.84 28.28 -1.86 38.36 -7.66 4.5 19 9.56 44.62 11.16 61.56l4.58 3.04 4.94 23.32 23.78 -5.06c10.24 6.48 19.52 12.34 22.48 14.26 -2.08 5.8 -8.08 14.06 -13.86 15.4Z" fill="#ff6b97" stroke-width="1" />
      <path d="M213.26 184.38c6.3 3.26 9.34 5.74 9.86 8a3.5 3.5 0 0 1 -1.4 3.44 2.4 2.4 0 0 1 -0.4 2.72 2 2 0 0 1 -2.26 0.8c-1.1 3.16 -2.92 3.24 -4.6 2.52 -1.14 3.1 -4.16 2 -5.82 1.6 0.1 -0.84 0.16 -1.76 0.2 -2.78 0.14 -3.06 -3.2 -3.8 -3.78 -0.88 -0.32 1.66 -0.16 1.5 -0.38 1.5 0 -0.36 0.12 -0.76 0.18 -1.16 0.44 -3.14 -3.06 -4 -3.86 -1.12l-0.52 2c0.18 -0.7 0.34 -1.36 0.46 -1.84 0.76 -3.18 -2.86 -4.3 -3.86 -1.32 0 0.2 -0.14 0.42 -0.22 0.64a0.58 0.58 0 0 1 0 -0.2c0.98 -3.02 -2.36 -4.28 -3.72 -1.54 -0.36 0.72 -0.9 2 -1.4 3.3 -0.92 -0.14 -2.7 -0.38 -4.2 -0.52 3 -5.26 2.82 -14 0.34 -19.2 4.74 0.68 5.72 0.9 7.12 0.12 3.28 -1.86 4.6 -4.18 6.44 -3.66l2.32 0.72c-1.72 2 -3.4 4.44 -5.72 7.84 -1.64 2.4 2.86 4 8.36 -2.32a14 14 0 0 0 6.86 1.34Z" fill="#ff6b97" stroke-width="1" />
      <path d="M349.36 157.02a0.52 0.52 0 0 1 -0.42 -0.82l40.34 -57.62 -70.9 -49.64 -33.84 48.34a0.524 0.524 0 0 1 -0.86 -0.6L317.82 48a0.54 0.54 0 0 1 0.74 -0.14L390.3 98a0.52 0.52 0 0 1 0.12 0.74c-43.58 62.36 -40.66 58.28 -41.06 58.28Z" fill="#ff004d" stroke-width="1" />
      <path d="m332 180.7 -15.08 21.56q0 0.46 0.24 0.96l15.46 -22a0.405 0.405 0 0 0 -0.62 -0.52Z" fill="#ff004d" stroke-width="1" />
      <path d="M278.38 258.4a0.52 0.52 0 0 1 -0.42 -0.84L295 233.22a0.524 0.524 0 0 1 0.86 0.6c-18.18 25.92 -17.06 24.58 -17.48 24.58Z" fill="#ff004d" stroke-width="1" />
      <path d="M212.62 352.3c-0.26 0 4 3.04 -94.68 -66.16a0.524 0.524 0 0 1 0.6 -0.86l94 65.78L258 286a0.524 0.524 0 0 1 0.86 0.6c-49.08 70.26 -45.82 65.7 -46.24 65.7Z" fill="#ff004d" stroke-width="1" />
      <path d="M88.98 265.74c-0.26 0 3.08 2.54 -79.28 -55.4a0.52 0.52 0 0 1 -0.12 -0.74c53.88 -77.06 50.24 -71.9 50.56 -72s-0.38 -0.46 10.92 7.44a0.524 0.524 0 0 1 -0.6 0.86l-10 -7.06 -49.74 70.94 78.56 55a0.54 0.54 0 0 1 -0.3 0.96Z" fill="#ff004d" stroke-width="1" />
      <path d="m190.82 230.24 -6.42 -4.5a0.524 0.524 0 0 1 0.6 -0.86l6 4.2 18 -25.8a0.524 0.524 0 0 1 0.86 0.6L191.5 230.1a0.52 0.52 0 0 1 -0.68 0.14Z" fill="#ff004d" stroke-width="1" />
      <path d="m229.42 75.62 -2.62 -14.84a0.5 0.5 0 0 0 -0.6 -0.42l-14.84 2.6a0.528 0.528 0 0 0 0.18 1.04l13.6 -2.4 -22.52 32.16L183.1 80.1a0.52 0.52 0 0 0 -0.72 0.12l-21.14 30.2a0.52 0.52 0 1 0 0.84 0.6l20.86 -29.76 19.5 13.66a0.56 0.56 0 0 0 0.74 -0.12L226 62.2l2.38 13.6a0.528 0.528 0 0 0 1.04 -0.18Z" fill="#ff004d" stroke-width="1" />
      <path d="M88.34 95.64a6.66 6.66 0 0 0 -7.72 -5.42l-3.3 0.58 -2 -11.08L84.74 78a0.528 0.528 0 0 0 -0.18 -1.04l-9.38 1.66 -0.7 -4a0.52 0.52 0 1 0 -1.02 0.18l0.7 4 -3.28 0.58a6.648 6.648 0 1 0 2.28 13.1l3.32 -0.48 2 11.08 -9.36 1.66a0.52 0.52 0 1 0 0.18 1.02l9.36 -1.64 0.72 4a0.52 0.52 0 0 0 1.02 -0.18l-0.7 -4 3.28 -0.58a6.7 6.7 0 0 0 5.36 -7.72Zm-15.36 -4a5.62 5.62 0 0 1 -5.56 -8.74c1.64 -2.32 3.8 -2.34 6.92 -2.9l2 11.06Zm9.76 10.78 -3.28 0.58 -2 -11.08c3.08 -0.52 5.18 -1.26 7.5 0.36a5.64 5.64 0 0 1 -2.22 10.04Z" fill="#ff004d" stroke-width="1" />
      <path d="m221.44 252.22 -7.88 1.4 -1.4 -7.88a0.367 0.367 0 1 0 -0.72 0.14l1.38 7.86 -7.88 1.4a0.38 0.38 0 0 0 0.12 0.74l7.88 -1.4 1.4 7.88a0.38 0.38 0 0 0 0.74 -0.12l-1.4 -7.88 7.88 -1.4a0.38 0.38 0 0 0 -0.12 -0.74Z" fill="#ff004d" stroke-width="1" />
      <path d="m330.86 282.3 -11.04 2 -2 -11.02a0.52 0.52 0 1 0 -1.02 0.18l2 11.02 -11.02 2a0.52 0.52 0 1 0 0.18 1.02l11.02 -2 2 11.02a0.528 0.528 0 0 0 1.04 -0.18l-2 -11.02 11.04 -2a0.52 0.52 0 0 0 -0.2 -1.02Z" fill="#ff004d" stroke-width="1" />
      <path d="M126.1 336a5.9 5.9 0 1 1 6 -5.9 5.9 5.9 0 0 1 -6 5.9Zm0 -10.74a4.84 4.84 0 1 0 4.84 4.84 4.86 4.86 0 0 0 -4.84 -4.76Z" fill="#ff004d" stroke-width="1" />
      <path d="M344.64 152.32c1.48 0 2.42 3.4 0.58 3.34s-2.14 -3.34 -0.58 -3.34Z" fill="#7e2553" stroke-width="1" />
      <path d="M236.16 181.88c0.44 1.3 -2.34 3.46 -2.64 2s2.2 -3.3 2.64 -2Z" fill="#7e2553" stroke-width="1" />
      <path d="M179.76 198.3c0.78 -1.46 4 -1.3 3.28 0.16s-4.2 1.54 -3.28 -0.16Z" fill="#7e2553" stroke-width="1" />
      <path d="M101.2 253.18c-6.4 -21.66 -5.58 -22.84 -6.64 -22.7l-53.5 6.7a0.54 0.54 0 0 0 -0.46 0.58L46.12 282a0.54 0.54 0 0 0 0.58 0.46c31.56 -4 29.6 -3.66 29.8 -3.86 26.16 -26.5 24.82 -24.96 24.7 -25.42Zm-25.32 24.5L47.1 281.3l-5.4 -43.14 7.32 -0.92 39.52 27.66Z" fill="#ff004d" stroke-width="1" />
      <path d="M59.52 196.6c1.48 -0.7 1.48 2.58 0.26 2.96s-1.2 -2.52 -0.26 -2.96Z" fill="#7e2553" stroke-width="1" />
      <path d="m352 180.76 1.36 6.34 5.86 -1.24 -1.6 -7.48a6 6 0 0 0 -6.26 -4.76 29.66 29.66 0 0 1 0.64 7.14Z" fill="#ff004d" stroke-width="1" />
      <path d="m328.2 192.42 5.86 -1.24 -0.92 -4.4s-1.26 -8.2 -1.44 -9.04a6 6 0 0 0 -5.06 7.24Z" fill="#ff004d" stroke-width="1" />
      <path d="m57.14 233.48 6 -0.74 -0.76 -6.2 0 -7.14a7.04 7.04 0 0 0 -6 7.86Z" fill="#ff004d" stroke-width="1" />
      <path d="m82.26 230.34 6 -0.74 -0.76 -6.18a7 7 0 0 0 -2.4 -4.46 43.78 43.78 0 0 1 -4.58 0.98 49.56 49.56 0 0 1 1.74 10.4Z" fill="#ff004d" stroke-width="1" />
      <path d="M59.52 196.6c1.48 -0.7 1.48 2.58 0.26 2.96s-1.2 -2.52 -0.26 -2.96Z" fill="#7e2553" stroke-width="1" />
      <path d="M179.76 198.3c0.78 -1.46 4 -1.3 3.28 0.16s-4.2 1.54 -3.28 -0.16Z" fill="#7e2553" stroke-width="1" />
      <path d="M233.52 183.78c0.3 1.56 3.1 -0.6 2.64 -2s-3 0.22 -2.64 2Z" fill="#7e2553" stroke-width="1" />
      <path d="M344.64 152.32c1.48 0 2.4 3.4 0.58 3.34s-2.14 -3.34 -0.58 -3.34Z" fill="#7e2553" stroke-width="1" />
      <path d="M377.16 252a76.94 76.94 0 0 0 -9.64 -3.26 12 12 0 0 0 0 -3.4 0.54 0.54 0 0 0 -0.2 -0.34c-2.42 -1.72 -9.26 -5.78 -14.68 -9.06a0.525 0.525 0 0 0 -0.54 0.9c4.76 2.86 12 7.18 14.42 8.88a14.38 14.38 0 0 1 -0.7 6c-2.96 -1.9 -22 -14 -22 -14a0.522 0.522 0 1 0 -0.56 0.88s19.36 12.24 22.16 14c-2.56 6.8 -8.84 13.54 -13.14 14.6 -47.52 -26.78 -52.94 -30.1 -57.72 -35.42s-6.54 -14.88 -13.88 -48a0.52 0.52 0 0 0 -0.48 -0.4c-4 -0.24 -5.04 -1.74 -5.42 -0.78a0.54 0.54 0 0 0 0.28 0.68 16.2 16.2 0 0 0 4.54 1.1 149.3 149.3 0 0 1 -7.26 33.74 34.94 34.94 0 0 0 -2 4.42c-0.44 1.28 12 55.02 12.26 56.32 -4 4.2 -18 8.68 -26.62 6.34 -13.82 -53.72 -14.82 -59.36 -14.22 -66.8 0.54 -6.4 3.66 -14.12 20.84 -51.54 0.14 -0.32 0 -0.16 -1.08 -3.16a34.7 34.7 0 0 0 9.66 0.48c2 8.64 2.22 10.14 6 10a0.52 0.52 0 0 0 0.48 -0.56 0.5 0.5 0 0 0 -0.54 -0.48c-2.7 0.14 -2.78 -0.14 -4.88 -8.98a71.24 71.24 0 0 0 26.48 -8c4 17.38 9.34 43.46 11 60.82 0 0.3 -0.14 0.22 4.8 3.44a0.527 0.527 0 0 0 0.58 -0.88c-1.86 -1.2 -3.34 -2.2 -4.38 -2.9 -1.68 -17.52 -6.98 -43.7 -11.06 -61.02a32.86 32.86 0 0 0 6.98 -5.26c1.64 6.94 3.24 14.3 4.28 20.5 4.46 26.62 3.66 26.68 4.6 26.68a0.52 0.52 0 0 0 0.52 -0.6c-4.24 -28 -4.98 -34.42 -13.24 -66.24 8.36 1.14 10.2 2.16 12.66 4s3.24 5.26 9.4 32.16c0.18 1.66 2 2.14 3.78 2 -0.98 1.7 -2.74 4 -2.74 5.42a10.54 10.54 0 0 0 1.84 5.46 0.525 0.525 0 0 0 0.9 -0.54 9.42 9.42 0 0 1 -1.7 -4.92c0 -1.54 3.14 -4.96 3.3 -6.72a11.18 11.18 0 0 0 -0.54 -4 48.72 48.72 0 0 1 16 -3.36c1.02 4 3.52 7.24 5.1 14.2a27.5 27.5 0 0 1 0.26 8.36 2.36 2.36 0 0 1 -3.04 1.32 28.5 28.5 0 0 0 0 -5.18 0.52 0.52 0 0 0 -1.04 0 28.18 28.18 0 0 1 0 4.86c-0.16 1.44 -1.78 2.48 -3.68 1.4a29.86 29.86 0 0 0 0 -5 0.52 0.52 0 0 0 -1.04 0 16.64 16.64 0 0 1 0 5.04 2.38 2.38 0 0 1 -3.86 1.02 18.94 18.94 0 0 0 -0.18 -5 0.528 0.528 0 0 0 -1.04 0.18 19.52 19.52 0 0 1 0.24 4.32 2 2 0 0 1 -4 0 62 62 0 0 0 -2 -10.82 0.522 0.522 0 0 0 -0.98 0.36 61.58 61.58 0 0 1 2 10.56 3.06 3.06 0 0 0 5.68 1.38 3.4 3.4 0 0 0 5 -1.14 3.34 3.34 0 0 0 4.72 -1.18 3.42 3.42 0 0 0 4.36 -2 28.28 28.28 0 0 0 -0.24 -8.9 44.98 44.98 0 0 0 -3.2 -9.24 3.26 3.26 0 0 0 2.18 -3.56c-6.66 -33.88 -10.58 -42.44 -18.26 -49.54 -12.96 -12 -28.58 -12.88 -51.36 -15.72 -2.58 -0.32 -9.08 -4.6 -13.88 -8.96 -1.6 -12.86 -2 -14 -8.38 -14.72 -0.42 -2.84 -2.3 -3.26 -9.16 -3.74 -4.82 -0.34 -7.02 0 -8 1.16s-0.82 2.42 -0.42 4.54c0.58 3.14 2.26 4 5.24 4.18 2.66 15.06 3.42 17.2 6.1 17.5 1.78 0.18 3.08 -0.26 5.38 -2.36 0 2.18 -0.2 6 -2.48 7.4 -7.18 4.14 -10.14 5.86 -12.64 9.4 -4.74 6.72 -4.48 11.1 -5.34 40.48 -4.64 4 -9.8 8.2 -14.36 12 -10 8 -10 8 -10 8.98a4.28 4.28 0 0 0 1.06 2.98 2.28 2.28 0 0 1 -1.44 0.46c-3.86 0.14 -7.08 -1.14 -8.62 0.56l-0.78 0.88 -2 -0.62c-2.2 -0.62 -3.54 1.82 -6.86 3.7 -1.22 0.7 -2 0.48 -6.54 -0.14a9.3 9.3 0 0 0 -2 -2.84c-0.48 -0.42 -27.08 -3.54 -27.74 -3.62 -1.18 -37.06 -2.4 -42.96 -6.56 -46.7 -2.88 -2.6 -7.62 -3.8 -14.58 -3.56a10.4 10.4 0 0 1 -3.32 -3.28 20.44 20.44 0 0 0 2.7 0.2c2.76 0 3.54 -0.72 4.18 -2.12 1 -2.2 1.22 -6.6 0.2 -17.6a13.18 13.18 0 0 0 5.48 -4.76 3.5 3.5 0 0 0 -5.02 -4.82c-0.62 -3 -4.56 -2.9 -6 -0.86a3.42 3.42 0 0 0 -5.6 1.4 3.18 3.18 0 0 0 -5.28 2 2.86 2.86 0 0 0 -3.08 0c-1.34 1 -3.56 5 4.4 20.36 -14.14 12 -22 14.68 -27.8 17.88 -17.56 6.2 -32.62 15.48 -38.48 24.14 -5.1 7.56 -5.04 20.82 -2.9 49.6 -0.2 1.6 2.52 1.8 4.14 1.8a104.22 104.22 0 0 0 0.44 12.68 0.52 0.52 0 0 0 0.68 0.44 51.7 51.7 0 0 0 0 6.42 2.74 2.74 0 0 0 5.02 1.06 2.86 2.86 0 0 0 5.02 -0.1 2.9 2.9 0 0 0 5.02 -0.64 2.86 2.86 0 0 0 4.9 -2.66s-0.56 -2.8 -0.78 -3.76a12 12 0 0 0 4.52 -1.16c1.14 -0.94 0.34 -7.4 -0.58 -8.82a67.76 67.76 0 0 0 -5.18 -5.34c1.4 -0.28 3.48 -0.9 3.42 -2.34 -0.36 -7.46 -0.9 -24.34 -0.92 -33.2l5.44 -1.72c-1.26 13.88 -1.66 27.42 1.1 40.9C92 224 97.36 244 100.1 253.18c-4.62 4.7 -38.84 39.18 -41.06 41.76 -1.78 2 0.28 5.22 2.46 7.18 -2 2.26 -5.26 6 -6.7 7.62 -4.26 4.56 17.76 19.24 23.54 22.84 4.56 2.86 18.54 11.28 17.48 6 0.56 -8.4 -7.6 -15.68 -10.28 -22.86a11.76 11.76 0 0 0 4 0.96c1.66 0 1.82 -0.68 2.6 -1.52 38.6 -42 41.02 -45.4 42 -52.72 0.82 -6 -0.84 -19.04 -2.42 -32.32 6.66 4 14.66 8.76 24.16 14.86 0.64 6.28 2 39.2 1.6 51.34 -0.42 2.42 2.78 3.56 5.2 4 -0.58 3.42 -2.26 8.36 -2.42 10.36 -0.52 6.38 30.76 10.38 40.4 10.38 2.24 0 7.2 0 6.54 -2.2 -1.52 -9.12 -14.38 -11.64 -20.14 -17.58 2 -0.12 4.88 -0.72 4.8 -2.68 -2.32 -61.16 -3.04 -68.22 -7.86 -75.42 -4.54 -6.8 -8.28 -9.8 -27.38 -21.54 6.92 0.42 16.26 0.5 28.96 0.5a0.58 0.58 0 0 0 0.42 -0.14 10.76 10.76 0 0 0 1.68 -2.14l3.26 0.4a2.68 2.68 0 0 0 4.34 2.68 2.72 2.72 0 0 0 4.32 1.4 2.72 2.72 0 0 0 4.54 0.74 2.64 2.64 0 0 0 4.84 -0.6l0 -0.52c2.44 0.62 4.58 0.68 5.66 -1.6 2.28 0.76 3.78 -0.38 4.68 -2.6a2.3 2.3 0 0 0 2.32 -1.08 3.04 3.04 0 0 0 0.62 -2.92 3.84 3.84 0 0 0 1.34 -3.38c0.8 -0.78 2 -1.88 3.24 -2.98 1.38 1.12 3.74 2.28 4.86 1 8 -6.12 23.88 -19.78 29.44 -24.72l0.38 0.94c-17.16 37.4 -20.28 45.14 -20.82 51.7 -0.62 7.6 0.38 13.28 14.34 67.42a0.54 0.54 0 0 0 0.36 0.38 19.3 19.3 0 0 0 4 0.68 85.3 85.3 0 0 0 -12.68 23.56c-1.06 3.44 30 -7.78 40 -18a0.5 0.5 0 0 0 0.12 -0.54 63.16 63.16 0 0 0 -5.16 -10.92 10.3 10.3 0 0 0 1.8 -1.6 0.48 0.48 0 0 0 0.12 -0.46c-4.52 -19.78 -8.2 -35.32 -12.3 -56.14 1.42 -4 4.74 -9.18 11.78 -22.76 4.82 21.5 6.66 28.16 10.58 32.52 4.9 5.44 10.34 8.78 58.18 35.72 0.46 0.28 2.28 -0.58 2.76 -0.84 1.04 11.1 5.88 32 8 29.64 6.42 -7.66 14.42 -34.78 14.84 -44.64a0.52 0.52 0 0 0 -0.28 -0.34Zm-27.6 -92c-2.12 -1.06 -6.46 -0.92 -12.6 0.42 -3.16 0.7 -9.3 2.3 -11.4 4.74 -0.74 -3.28 -1.42 -6.18 -2 -8.78 2.8 -5.36 20.24 -8.7 24 -6 0.66 2.86 1.32 6.04 2 9.48Zm-74 -65.26a63.1 63.1 0 0 1 -8 13.86 39.72 39.72 0 0 1 -5.48 -7.84 56.26 56.26 0 0 0 11.92 -7.2Zm-22.68 0.44c-2 -0.22 -2.72 -2.7 -5.14 -16.46 1.74 0 4 -0.32 6.68 -0.64 2.4 3 3.36 3.82 4.16 3.56 0.4 -0.14 0.62 -0.58 0.62 -1.28 0 -2.96 2.66 -2.52 2.72 2.22a0.54 0.54 0 0 0 0.1 0.28 47.68 47.68 0 0 0 11.02 10.22 54.8 54.8 0 0 1 -11.58 6.84 9.22 9.22 0 0 1 -2.56 -2.18c0 -0.26 0 -0.52 0.14 -0.78a20.66 20.66 0 0 0 3.1 -7.32 0.52 0.52 0 0 0 -0.88 -0.46c-5.1 5.36 -6.38 6.08 -8.42 5.86Zm5.7 3.78a10 10 0 0 0 2.2 1.76c-0.88 2 -1.86 4.28 -2.54 6.42a21.6 21.6 0 0 1 0.3 -8.32Zm-125.7 9.62a0.54 0.54 0 0 0 0 -0.68c-2.54 -4 -0.16 -6 1.1 -3.4 0.98 2 3.32 2 3.2 -2.96a18.16 18.16 0 0 0 2.56 -0.9c1.1 12 0.66 15.72 -0.5 17.34 -1.36 1.32 -5.66 -2.9 -6.98 -4.24a0.52 0.52 0 0 0 -0.9 0.4c0.22 3.86 0.98 6.74 4 8.92a144.54 144.54 0 0 0 -26.88 5.06c-11.04 2.92 1.7 1.6 24.4 -19.54Zm-70 117.76c-0.16 -1.54 0 -3.2 0 -6.28 0 -2.66 3 -2.9 3.18 -0.32 0.16 2.2 0.2 3.78 0.26 6a1.726 1.726 0 0 1 -3.4 0.6Zm4.78 0.2c-0.28 -1.58 -0.24 -3.26 -0.44 -6.5 -0.16 -2.78 2.96 -3.14 3.3 -0.48 0.3 2.34 0.44 4 0.64 6.18a1.8 1.8 0 0 1 -3.46 0.8Zm4.86 -0.32c-0.36 -1.58 -0.42 -3.44 -0.76 -6.58 -0.24 -2.16 1.54 -2.94 2.62 -2 -1.62 1.62 -1 3.26 0.56 3.26l0.48 0c0.22 1.34 0.34 2.3 0.64 4.4a1.84 1.84 0 0 1 -3.5 0.92Zm4.9 -0.72a37.1 37.1 0 0 1 -0.9 -4.72c1 0 2.24 -0.14 3.48 -0.3 0.22 1.02 0.8 3.84 0.8 3.84a1.8 1.8 0 0 1 -3.34 1.18Zm3.04 -18.34a34.94 34.94 0 0 1 3.64 3.8 15.02 15.02 0 0 1 0.78 7.44c-0.98 0.84 -8.14 1.4 -10 1.4 -0.32 0 -0.48 0 -0.5 -0.28 0 -0.66 1.16 -2.44 5.4 -3.5a0.526 0.526 0 0 0 -0.16 -1.04c-5.42 0.32 -8.28 -1.36 -9.04 -5.3a0.52 0.52 0 1 0 -1.02 0.18 7.16 7.16 0 0 0 7.26 6.14 9.12 9.12 0 0 0 -1.6 0.92 2.58 2.58 0 0 0 -4.2 0.92 2.56 2.56 0 0 0 -4.38 0.28 2.52 2.52 0 0 0 -4.54 0.5 123.56 123.56 0 0 1 -0.22 -15.4 58 58 0 0 1 15.6 -1.52 6.88 6.88 0 0 0 3.02 5.46Zm-22.96 -3.32c-0.22 -3.08 -0.42 -6 -0.6 -8.72 3.38 -4.3 21.48 -6 24.86 -3.1 0.12 3.64 0.24 6.96 0.36 9.52 -4.12 -2.02 -20.48 -0.6 -24.58 2.3Zm37.18 132.62c-5.6 -7.68 -31.34 -26 -38.14 -27.12 2.96 -3.32 7.82 -9.08 11.38 -12.84a78.28 78.28 0 0 1 16.76 10.74c-4.92 9.86 8.9 18.86 10.04 29.22Zm64 -41.76c0.3 -13.72 -1.08 -44.54 -1.68 -50a0.56 0.56 0 0 0 -0.24 -0.4C120.4 221 106 216.36 103.8 206.26a0.522 0.522 0 0 0 -1.02 0.22c1.22 5.52 5.68 9.42 14.64 15.04a379.4 379.4 0 0 1 16 38.18c-0.32 9.2 -2.3 11.66 -41.56 54.36 -1.18 -4.22 -9.78 -10.4 -13.42 -12.86 -4 -2.72 -12 -7.66 -16.98 -7.26 4 -4.16 35.02 -35.5 39.66 -40.24a0.56 0.56 0 0 0 0.14 -0.52C98.5 244 93.04 223.84 90 208.46a100.7 100.7 0 0 1 -1.8 -14.34c6.68 -4.64 19.84 -7.56 37.5 -8.34 0.44 10.56 3.42 11.74 10.68 16 26.12 15.44 32.32 19.1 37.36 26.58 3.66 5.44 3.14 13.74 4.68 64.76 -4.42 -0.34 -16.28 -1.12 -19.8 1.58Zm47.1 22.62c-6.94 -4.36 -38 -10 -44.12 -7.9 0.94 -4.64 2.32 -6.52 2.82 -15.34a77.36 77.36 0 0 1 18.84 0.84c-0.08 11.58 18.68 12.88 22.4 22.4Zm-22.62 -93.5c4.62 6.9 5.38 13.82 7.62 72.86 -2.46 -2.24 -8 -3.06 -11.4 -3.4 -1.56 -51.2 -1 -59.72 -4.88 -65.48 -5.5 -8.14 -12.56 -12 -41.58 -29.2 -4.52 -2.68 -6 -5.6 -6.28 -12.86l5.16 -0.14c2 7.18 4.54 10 9.06 12.82 2.66 1.68 6.82 2.6 13.56 3.14 20.42 12.44 24.18 15.42 28.74 22.26Zm-10.74 -22.72c-18 -0.16 -26.72 -0.86 -31 -3.56 -8.26 -5.22 -9.72 -10.62 -13.42 -44.84a0.58 0.58 0 0 0 -0.52 -0.48 0.54 0.54 0 0 0 -0.52 0.48c-0.74 9.14 -1.08 18.18 -1.38 26.62 -17.42 0.46 -30.88 3.14 -37.68 7.56a313.16 313.16 0 0 1 3.7 -42.6 0.525 0.525 0 0 0 -1.04 -0.14c-0.8 6 -1.52 11.62 -2 16.84a153.42 153.42 0 0 1 -13.54 9.62 0.52 0.52 0 0 0 0.42 0.94c1.56 -0.42 3.72 -1.06 6 -1.72 0 5.42 0.22 13.66 0.46 20.94 -4.68 -2.4 -20.22 -0.96 -24.9 2.98 -1.28 -20.84 -0.74 -31.38 3.5 -37.64 6.72 -10.1 26.64 -21.24 48.28 -26.98 23.62 -6.24 36.64 -6.8 42.2 -1.8 3.88 3.48 5.02 9.28 6.2 45.8 -0.64 0 -1.18 -0.16 -1.6 -0.18a0.523 0.523 0 0 0 -0.12 1.04c2 0.22 10.94 1.28 18.64 2.24 4.34 4.26 4 20 -1.68 24.88Zm12.98 0 -11.4 0c4.96 -5.5 5.54 -19.26 1.72 -24.72 4.36 0.56 8.16 1.06 9.76 1.34 4.52 4.28 5.18 18.28 -0.08 23.42Zm9.48 0.62a1.62 1.62 0 0 1 -2.86 -1.48c0.52 -1.34 1.08 -2.68 1.46 -3.44 1.06 -2.18 3.52 -1.28 2.76 1.14 -0.24 1.08 -1.02 3.02 -1.36 3.82Zm5.44 -2.86c-0.32 1.36 -0.66 2.76 -1.06 4 -0.6 2 -3.6 0.96 -2.96 -1.38 0.24 -0.86 0.76 -2.5 1.16 -3.68 0.78 -2.28 3.46 -1.4 2.86 1.1Zm4 1.04a38.32 38.32 0 0 1 -0.74 4 1.604 1.604 0 0 1 -3.08 -0.9c0.26 -1.14 0.64 -2.68 0.98 -4 0.66 -2.32 3.2 -1.54 2.86 1Zm4 0.62a26.6 26.6 0 0 1 -0.38 3.78c-0.36 1.74 -3.16 1.18 -3.02 -0.32 0 -0.68 0.42 -3.06 0.64 -4.22 0.44 -2.28 2.84 -1.6 2.76 0.8Zm13.46 -5.66a18.64 18.64 0 0 0 -5.84 -4 0.52 0.52 0 0 0 -0.48 0.92c1.14 0.6 5.56 2.76 6 4.46a2 2 0 0 1 -0.54 1.74c-0.7 0.96 -1.66 1.38 -7.06 -2.38a0.524 0.524 0 0 0 -0.6 0.86 24.48 24.48 0 0 0 5.16 2.98 3.06 3.06 0 0 1 -1.76 2c-1.68 0.52 -4 -1.5 -5.18 -2.32a0.527 0.527 0 0 0 -0.58 0.88 31.64 31.64 0 0 0 2.9 2c-0.86 1.76 -2.58 1.48 -4.54 0.98 0 -0.8 0.12 -1.6 0.14 -2.4 0.12 -3.06 -2.78 -4.16 -4.2 -2.42a2.32 2.32 0 0 0 -3.84 -0.9 2.4 2.4 0 0 0 -4 -1.08c-0.68 -2 -3.48 -2.38 -4.74 0.2 -0.34 0.68 -0.82 1.78 -1.26 2.94l-3.06 -0.38a24.54 24.54 0 0 0 0.36 -18 39.46 39.46 0 0 0 4.32 0.48 4 4 0 0 0 2.22 -0.56c3.12 -1.76 4.58 -4 6 -3.6l1.6 0.48c-1.62 2 -3.22 4.28 -5.28 7.28s2.92 5.36 8.94 -1.4a14.92 14.92 0 0 0 6.68 1.34c6.16 3.2 9.3 5.74 9.56 7.8a2.74 2.74 0 0 1 -0.92 2.14Zm1.56 -3.56c-0.94 -2 -3.62 -4 -8.38 -6.68a9.2 9.2 0 0 0 2.14 -0.66 0.52 0.52 0 0 0 -0.42 -0.94 12.64 12.64 0 0 1 -10.16 -0.66 0.52 0.52 0 0 0 -0.64 0.14c-4.68 5.44 -8.82 4.84 -7.54 2.96a84 84 0 0 1 6.7 -8.92c0.64 -0.72 2.14 -0.58 4 -0.4 5.84 0.56 4.96 0.26 9.42 -3.5a47.88 47.88 0 0 1 11.34 12.78c-1.62 1.5 -4.68 4.22 -6.46 5.92Zm15.68 -8c-2.5 2 -4.86 4 -6.82 5.52 -0.4 -4.68 -11.26 -17.48 -16.22 -18.52 1.82 -1.54 4.38 -3.64 7.3 -6 6.72 0.76 16.16 13.16 15.74 18.98Zm20.16 -26c-4 -10.88 -9.54 -26.96 -9.78 -28.96a66.3 66.3 0 0 1 0 -12.6 0.54 0.54 0 0 0 -1.06 0 66.96 66.96 0 0 0 0 12.82c0.18 1.48 2.98 9.86 6 18.5a135.44 135.44 0 0 1 1.18 22.36c-4.38 3.8 -10.2 8.76 -15.48 13.12 -0.44 -6.32 -8.88 -17.32 -15.72 -19.02 4.54 -3.68 9.62 -7.8 14.18 -11.76a0.5 0.5 0 0 0 0.18 -0.38c0.82 -29.46 0.64 -33.72 5.16 -40.14 3.66 -5.2 11.38 -8 13.16 -9.72a33.12 33.12 0 0 0 0.54 8.28 0.54 0.54 0 0 0 1.04 0 18.86 18.86 0 0 1 0.7 -2.62 14.7 14.7 0 0 0 1.14 2.8c-0.46 4.46 -2.82 34.72 -2.82 36.92a36.44 36.44 0 0 0 4.84 7.86 0.52 0.52 0 0 0 0.76 0c0.9 -0.98 5.7 -6.86 5.6 -7.72 -0.66 -4.92 -5.12 -33.48 -6 -37.04a26.74 26.74 0 0 0 1.78 -3.34 23.66 23.66 0 0 0 2.64 3.08 0.52 0.52 0 0 0 0.78 0 65.7 65.7 0 0 0 8.38 -14.4c3.8 2.22 4.42 2 8.8 2.5 21.9 2.64 35.12 4.22 46.72 14.96 6.44 6 10.2 13.04 15.32 36.34 -5.22 -2.12 -20 0.9 -24 5.88 -4 -17.02 -4.78 -19.34 -7.1 -21.04 -3.64 -2.66 -6 -3.7 -27.08 -5.7a0.52 0.52 0 0 0 -0.28 0.98 119.6 119.6 0 0 1 14.96 9.2c0.42 1.64 0.86 3.42 1.32 5.26 -9.34 10.1 -35.36 16.8 -45.86 13.56Z" fill="#7e2553" stroke-width="1" />
      <path d="M335.36 179.76a0.54 0.54 0 0 1 -0.16 -1.04c2.5 -0.78 10.72 -2.86 13.28 -3.3a0.52 0.52 0 1 1 0.18 1.02c-4.52 0.8 -13.1 3.32 -13.3 3.32Z" fill="#7e2553" stroke-width="1" />
      <g>
        <path d="m310.8 197.68 10.7 25.08 8.7 -1.86 -0.98 -4.62 4.64 -0.98 0.98 4.62 30.22 -6.42 -0.98 -4.62 4.66 -1 0.98 4.62 8.68 -1.84 -0.4 -27.48c-72.62 15.42 -67.32 14.22 -67.2 14.5Z" fill="#ff004d" stroke-width="1" />
        <path d="m388.82 228.6 -9.38 -44 0.42 26.7a0.72 0.72 0 0 1 -0.58 0.72L370 214l1 4.76 -4.64 1 -1.02 -4.78 -30.22 6.42 1.02 4.78 -4.66 1 -1 -4.78 -9.28 2a0.7 0.7 0 0 1 -0.8 -0.42L310 199.3l9.38 44a0.52 0.52 0 0 0 0.62 0.4l68.48 -14.56a0.54 0.54 0 0 0 0.34 -0.54Z" fill="#ff004d" stroke-width="1" />
      </g>
      <path d="M62.92 226.34c-0.16 -1.54 0 -3.2 0 -6.28 0 -2.66 3 -2.9 3.18 -0.32 0.16 2.2 0.2 3.78 0.26 6a1.746 1.746 0 0 1 -3.44 0.6Z" fill="#ff6b97" stroke-width="1" />
      <path d="M67.7 226.54c-0.28 -1.58 -0.24 -3.26 -0.44 -6.5 -0.16 -2.78 2.96 -3.14 3.3 -0.48 0.3 2.34 0.44 4 0.64 6.18a1.8 1.8 0 0 1 -3.5 0.8Z" fill="#ff6b97" stroke-width="1" />
      <path d="M72.56 226.22c-0.36 -1.58 -0.42 -3.44 -0.76 -6.58 -0.24 -2.16 1.54 -2.94 2.62 -2 -1.62 1.62 -1 3.26 0.56 3.26l0.48 0c0.22 1.34 0.34 2.3 0.64 4.4a1.84 1.84 0 0 1 -3.54 0.92Z" fill="#ff6b97" stroke-width="1" />
      <path d="M77.46 225.5a37.1 37.1 0 0 1 -0.9 -4.72c1 0 2.24 -0.14 3.48 -0.3 0.22 1.02 0.8 3.84 0.8 3.84a1.8 1.8 0 0 1 -3.38 1.18Z" fill="#ff6b97" stroke-width="1" />
      <path d="M80.5 207.16a34.94 34.94 0 0 1 3.64 3.8 15.02 15.02 0 0 1 0.78 7.44c-0.98 0.84 -8.14 1.4 -10 1.4 -0.32 0 -0.48 0 -0.5 -0.28 0 -0.66 1.16 -2.44 5.4 -3.5a0.526 0.526 0 0 0 -0.16 -1.04c-5.42 0.32 -8.28 -1.36 -9.04 -5.3a0.52 0.52 0 1 0 -1.02 0.18 7.16 7.16 0 0 0 7.22 6.14 9.12 9.12 0 0 0 -1.6 0.92 2.58 2.58 0 0 0 -4.2 0.92 2.56 2.56 0 0 0 -4.38 0.28 2.52 2.52 0 0 0 -4.54 0.5 123.56 123.56 0 0 1 -0.22 -15.4 58 58 0 0 1 15.6 -1.52 6.88 6.88 0 0 0 3.02 5.46Z" fill="#ff6b97" stroke-width="1" />
      <path d="M108.5 128.12c-11.06 2.92 1.68 1.6 24.38 -19.54a0.54 0.54 0 0 0 0 -0.68c-2.54 -4 -0.16 -6 1.1 -3.4 0.98 2 3.32 2 3.2 -2.96a18.16 18.16 0 0 0 2.56 -0.9c1.1 12 0.66 15.72 -0.5 17.34 -1.36 1.32 -5.66 -2.9 -6.98 -4.24a0.52 0.52 0 0 0 -0.9 0.4c0.22 3.86 0.98 6.74 4 8.92a144.54 144.54 0 0 0 -26.86 5.06Z" fill="#ff6b97" stroke-width="1" />
    </g>
  </g>
</svg>