<svg xmlns="http://www.w3.org/2000/svg" viewBox="0 0 400 400" height="400" width="400"><g><g><path d="M348 132.82a105.02 105.02 0 0 0 -53.02 -24.5 0.38 0.38 0 1 1 0 -0.74 105.8 105.8 0 0 1 53.42 24.66 0.38 0.38 0 0 1 -0.4 0.58Z" fill="#ff004d" stroke-width="1"/><path d="M215.38 272.34a0.38 0.38 0 1 1 0.26 -0.64 0.38 0.38 0 0 1 -0.26 0.64Z" fill="#ff004d" stroke-width="1"/><path d="M348 140.18a78.1 78.1 0 0 0 21.2 -1.16l-0.46 -21.02a68.62 68.62 0 0 1 -21.04 0.38 139.42 139.42 0 0 1 0.3 21.8Z" fill="#ffffff" stroke-width="1"/><path d="M284.9 101.86a80.4 80.4 0 0 1 -18.34 11.6c-3.36 -6.62 -7.78 -14 -12 -21.2a68.16 68.16 0 0 1 18 -11.52Z" fill="#ffffff" stroke-width="1"/><path d="m115.12 313.02 -1.08 0.5c-6 0.8 -16.26 2 -16.26 2 8 -2.42 8.28 -25.38 8.24 -28.16 -0.12 -10 -2.8 -13.38 -4.22 -14.38 1.52 0.26 5.04 0.6 7.48 0.8l0 0.22a0.38 0.38 0 0 0 0.68 -0.32l-14.88 -32A11.48 11.48 0 0 0 80 236.14L58.94 246c3.66 -4.84 18 -24.32 19.72 -37.2 2.18 -15.4 -20.66 -22.52 -23.48 -3.06 -2.22 15.86 0.72 33.5 1.84 39.24 -3.4 -4.78 -14.14 -19.04 -27.18 -28.32 -16 -11.42 -26.58 10.12 -14 19.08 10.68 7.58 34.86 10.66 40.68 11.3l-20.64 9.64A11.5 11.5 0 0 0 30.32 272l26.3 56.52A11.48 11.48 0 0 0 71.88 334l43.56 -20.3a0.38 0.38 0 0 0 -0.32 -0.68ZM56 205.86c2.6 -18.46 24 -11.58 22 2.76C76 221.78 60.92 242 58 246c-0.86 -4.14 -4.46 -23.18 -2 -40.14Zm-39.72 29.26c-11.78 -8.38 -2 -28.68 13.14 -17.84 14 10 25.28 25.66 27.64 29.06 -4.82 -0.5 -29.94 -3.52 -40.78 -11.22Zm72.26 90.3 -35.36 -76 10.1 -4.72 35.38 76Z" fill="#ff004d" stroke-width="1"/><path d="M173 216.9c6.26 -6 0.92 -11.8 -2 -7.46 -1.4 2 -2.18 2 -2.64 0.84 -2 -6.88 -11.86 -16.74 -14.48 2.28 -2.44 17.58 5.36 18 11.44 15.48 0.16 0.52 2.82 11.64 5.06 14.9a57.48 57.48 0 0 0 6.16 -13.26c-4.54 -5.8 -4.32 -12.02 -3.54 -12.78Z" fill="#ffffff" stroke-width="1"/><path d="M226.46 244.86c-4 -7.3 -15.8 -26 -22.96 -22.64 -3.02 1.42 -4 6.62 -2.6 14.66a0.38 0.38 0 0 0 0.4 0.3 86.16 86.16 0 0 0 17.54 -3.18 110.5 110.5 0 0 1 14.82 29.58 43.2 43.2 0 0 1 -17.88 8.32l0 -0.12a0.38 0.38 0 1 0 -0.64 0.38c3.74 6 13.4 19.32 19.42 16.52 3.84 -1.8 3.5 -9 2.36 -15.3a98.46 98.46 0 0 0 -10.46 -28.52Z" fill="#ff004d" stroke-width="1"/><path d="M321.42 310A106.3 106.3 0 0 0 376 169.28a0.38 0.38 0 1 0 -0.68 0.3 105.6 105.6 0 0 1 -54.22 139.68c-65.9 -142.22 -82.4 -178 -86.84 -187.38a41.22 41.22 0 0 0 -2 -3.88 104.62 104.62 0 0 1 29.36 -9.46 0.4 0.4 0 0 0 0.32 -0.44 0.38 0.38 0 0 0 -0.44 -0.3 105.12 105.12 0 0 0 -29.5 9.56 26.4 26.4 0 0 0 -18.92 -11.88L111.5 92.4a24.48 24.48 0 0 0 -16 3.48 24 24 0 0 0 -9.5 11.14 9.52 9.52 0 0 0 0.22 8.38l59.62 131.52a0.38 0.38 0 0 0 0.68 -0.32l-59.7 -131.52c-3.08 -6.72 1.22 -12.6 8.58 -11.66l103.54 13.54a35.46 35.46 0 0 1 27.7 20.32C328.74 357.36 342 386.42 343.68 390c0.34 0.68 0.94 0.2 0.76 -0.2L227.32 136.96a36.28 36.28 0 0 0 -28.28 -20.76L95.5 102.68a9.84 9.84 0 0 0 -7.4 1.7 23.76 23.76 0 0 1 23.3 -11.24l101.5 13.08a26.42 26.42 0 0 1 19.1 13.12c2.24 4.42 15.48 33.22 125.7 270.74a0.38 0.38 0 1 0 0.68 -0.32Z" fill="#ff004d" stroke-width="1"/><path d="M99.52 122.74c-2.46 -5.28 0.76 -9.88 4.98 -7.3s5.28 9.62 1.76 11.26c-2.52 1.18 -5.44 -1.16 -6.74 -3.96Zm1.6 -7.04c-2.98 1.38 -1.82 7.72 1.82 10a3.14 3.14 0 0 0 3.06 0.3c2.98 -1.38 1.84 -7.72 -1.82 -10a3.18 3.18 0 0 0 -3.06 -0.3Z" fill="#ff004d" stroke-width="1"/><path d="m59.78 140.88 -10.62 4.92 -4.94 -10.62a0.38 0.38 0 1 0 -0.68 0.32l4.92 10.62 -10.62 4.92a0.38 0.38 0 0 0 0.16 0.72c0.16 0 -0.24 0.18 10.78 -4.96l4.94 10.62a0.38 0.38 0 0 0 0.68 -0.3l-4.94 -10.62 10.64 -4.94a0.38 0.38 0 0 0 -0.32 -0.68Z" fill="#ff004d" stroke-width="1"/><path d="m195.64 38.44 -6 -11a0.38 0.38 0 0 0 -0.48 -0.16l-23 9.64 20.44 -14.28a0.38 0.38 0 0 0 0.12 -0.5l-6 -11a2.92 2.92 0 0 0 -4.74 -0.54l-31.7 35.18a2.94 2.94 0 0 0 2.68 4.84l46.62 -7.88a2.92 2.92 0 0 0 2.06 -4.3Zm-2.2 3.56 -46.62 7.88a2.16 2.16 0 0 1 -2 -3.58l31.6 -35.2a2.16 2.16 0 0 1 3.52 0.4l6 10.7 -23 16a0.38 0.38 0 0 0 0.3 0.7l26 -10.88 5.9 10.7a2.18 2.18 0 0 1 -1.7 3.28Z" fill="#ff004d" stroke-width="1"/><path d="M348.66 322c-0.44 -0.24 0 -0.92 0.36 -0.68 18 9.66 22 -18.34 40.48 -8.38a0.38 0.38 0 1 1 -0.36 0.66c-18.04 -9.78 -21.86 18.4 -40.48 8.4Z" fill="#ff004d" stroke-width="1"/><path d="M67.56 276a79.42 79.42 0 0 1 -9.46 -5.88c-4 -3.02 -2.82 -5.7 1.08 -3.64a103.5 103.5 0 0 0 12 4.72 61.28 61.28 0 0 1 -7.88 -5.74c-3.76 -3.32 -2.3 -5.46 1.56 -3.34A78.76 78.76 0 0 0 82 269.64a36.14 36.14 0 0 1 -4.62 -9.34c-0.8 -3.62 2.22 -2.52 7.74 3.5a32 32 0 0 0 16 9.06c3.48 0.62 5.6 10.26 4.74 21.82 0 1.36 -0.24 2.68 -0.4 4 -1.06 0.36 -19.74 -4.78 -30.72 -9.06 -4.42 -1.72 -9 -3.44 -13.28 -5.54s-4 -4.3 0.1 -3.3a60.46 60.46 0 0 0 6.22 0.94A77.56 77.56 0 0 1 58 277.3c-4.3 -2.44 -3.46 -5.24 0.66 -3.74a91.52 91.52 0 0 0 8.9 2.44Z" fill="#ffffff" stroke-width="1"/><path d="M203.18 371.74a20.54 20.54 0 0 0 -16.96 -37.4l-17.1 -37.74a0.385 0.385 0 0 0 -0.7 0.32l17.1 37.72A20.54 20.54 0 0 0 202.48 372l8.22 18.1a0.38 0.38 0 0 0 0.68 -0.32Zm1.82 -35.08a19.8 19.8 0 0 1 -2.14 34.4l-16.34 -36a19.72 19.72 0 0 1 18.48 1.6Z" fill="#ff004d" stroke-width="1"/><path d="M233.54 263.22a42.2 42.2 0 0 1 -42.3 5.8l0 -10.88a0.38 0.38 0 0 0 -0.72 0c-4.92 13.04 -14 26.2 -21.78 38a16.68 16.68 0 0 1 -8.74 6.66 314.18 314.18 0 0 1 -59.78 12.18c6.78 -6.22 8.7 -35 2.78 -41.42a225.08 225.08 0 0 0 44.94 0.84 0.34 0.34 0 0 0 0.26 -0.14c9.72 -12.26 23.74 -29.08 28.58 -43.8a21.08 21.08 0 0 0 2.58 2.6c2.96 2.52 9.02 4.32 17.42 4.32a82 82 0 0 0 22.06 -3.38l-0.48 -0.64c-20.76 5.8 -34.36 2.64 -38.62 -0.88a20.22 20.22 0 0 1 -4 -4.54 6 6 0 0 0 8.5 -4.4 6 6 0 0 0 9.76 -5.72 6 6 0 0 0 7.02 -8.8 6 6 0 0 0 6 -5.2 6 6 0 0 0 -2.64 -5.82 6.1 6.1 0 0 0 4.24 -4.94 6 6 0 0 0 -4 -6.54 6 6 0 0 0 -3.84 -10.6 6 6 0 0 0 -7.32 -8.5 6 6 0 0 0 -10 -5.3 6 6 0 0 0 -5.14 -5.12l-0.38 0a6 6 0 0 0 -6.24 3.3 6 6 0 0 0 -11.22 2 6 6 0 0 0 -9.72 5.7 6 6 0 0 0 -6.94 8.86A6 6 0 0 0 138 182a6 6 0 0 0 2.52 5.78 6 6 0 0 0 -0.14 11.48 6 6 0 0 0 3.9 10.56 6 6 0 0 0 7.38 8.46 6 6 0 0 0 2 5.46c1.52 5.82 5.88 7 11.38 4.78 0.22 0.94 0.82 3.22 1.64 6a175.2 175.2 0 0 1 -42.28 20.68 193.86 193.86 0 0 1 -22 2l0.34 0.74a185.7 185.7 0 0 0 21.9 -2 174.42 174.42 0 0 0 42.3 -20.74A53.16 53.16 0 0 0 170 243c-6.14 10.54 -14.8 21.16 -22.38 30.66a222.7 222.7 0 0 1 -45.6 -0.98 31.6 31.6 0 0 1 -16.66 -9.08c-2.88 -3.14 -6.6 -6.64 -8 -5.58s1.28 6.6 4 11.12A75.7 75.7 0 0 1 65.08 262c-4.18 -2.32 -6.2 0.24 -2 4a50.98 50.98 0 0 0 5.32 4 87.6 87.6 0 0 1 -9.04 -3.68c-4.12 -2.16 -6 0.82 -1.5 4.28a71.72 71.72 0 0 0 7.3 4.6c-2.82 -0.74 -5.2 -1.5 -6.32 -1.9 -4.38 -1.58 -5.86 1.66 -0.96 4.42a61.84 61.84 0 0 0 7.08 3.32c-1.32 -0.18 -2.38 -0.36 -3.3 -0.58 -2 -0.48 -3.34 -0.26 -3.64 0.56s0.88 2.28 3.28 3.46a224.98 224.98 0 0 0 31.04 11.42c-0.28 6.3 0.68 21.48 6.2 20a316.4 316.4 0 0 0 61.6 -12.38 17.48 17.48 0 0 0 9.22 -6.96 290.5 290.5 0 0 0 17.62 -28.7 45.6 45.6 0 0 0 20.86 5.14 42.2 42.2 0 0 0 26 -9.02c-0.14 -0.26 -0.22 -0.5 -0.3 -0.76Zm-66.68 -30.86 1.86 -5.82a0.38 0.38 0 0 0 -0.58 -0.42c-2.88 2 -7.78 3.82 -10.86 2s-4 -7.1 -3.04 -15.46 3.64 -10.58 5.56 -10.72c3.24 -0.24 7.04 4.38 8.2 8.5 0 0.24 0.42 0.94 1.08 1s1.3 -0.5 2.2 -1.82c2.62 -4 7.22 1.42 1.42 6.96a4.42 4.42 0 0 0 -0.62 2.78 18.88 18.88 0 0 0 4 10.34 64.64 64.64 0 0 1 -5.68 12.48 65.12 65.12 0 0 1 -3.54 -9.82ZM61.64 283.74c-2.44 -1.2 -3.02 -2.22 -2.9 -2.52s0.92 -0.52 2.76 0c1.54 0.36 3.38 0.6 6.26 0.96 0.2 0 1.58 0.62 4.32 1.5a0.38 0.38 0 1 0 0.22 -0.72 92 92 0 0 1 -14 -5.88c-2.3 -1.3 -2.82 -2.54 -2.6 -3.02s1.22 -0.66 2.96 0a77.86 77.86 0 0 0 9.02 2.54c2.34 1.28 4.4 2.32 5.5 2.86 0.44 0.2 0.78 -0.48 0.32 -0.68A118.7 118.7 0 0 1 58.32 270c-2.16 -1.64 -2.5 -2.96 -2.22 -3.4s1.28 -0.46 2.9 0.4a104.14 104.14 0 0 0 12 4.7c1.54 0.96 2.8 1.66 3.42 2a0.38 0.38 0 0 0 0.52 -0.16 0.38 0.38 0 0 0 -0.16 -0.5 63.54 63.54 0 0 1 -11.24 -7.68c-2 -1.72 -2.24 -2.9 -2 -3.28s1.44 -0.36 3.1 0.56a71.78 71.78 0 0 0 20.82 8.4 0.38 0.38 0 0 0 0.16 -0.74 65.71 65.71 0 0 1 -3.28 -0.8c0 -0.2 -6 -9.76 -4.6 -10.82 0.32 -0.24 2.22 0.26 7 5.48a32.6 32.6 0 0 0 16.6 9.26c3.08 1.12 4.9 10.46 4 21.34 0 1.18 -0.2 2.38 -0.36 3.56 -8.22 -1.28 -32.54 -9.28 -43.34 -14.58Z" fill="#7e2553" stroke-width="1"/><path d="M323.32 96a4.34 4.34 0 1 1 6.1 0.78 4.36 4.36 0 0 1 -6.1 -0.78Zm1.26 -5.5a3.58 3.58 0 1 0 5.02 0.66 3.6 3.6 0 0 0 -5.02 -0.6Z" fill="#ff004d" stroke-width="1"/><path d="M374.54 136.26c0 -1.22 -1.7 -2.26 -5.04 -3.08l-0.46 -18.24c7.76 -25.42 8.52 -37.14 7.24 -52.36a0.38 0.38 0 0 0 -0.62 -0.26c-9.28 8 -26.38 34.84 -29.66 45.06a0.5 0.5 0 0 0 0 0.16 131.84 131.84 0 0 1 1.88 24.46c-3.36 0.24 -13.42 1.2 -13.3 4.56 0.54 16 1.74 52.34 1.82 57.74 -2.78 0.48 -11 2.32 -20.52 4.52 15.16 -23.66 12.24 -29.8 7.4 -39.86 -6.56 -13.72 -26.94 -50 -34.52 -62.36 -0.6 -2 -4.68 -0.82 -6.62 -0.22l-9.26 -15.9c-1.44 -19.74 -2.84 -31.18 -9.4 -50.46a0.38 0.38 0 0 0 -0.68 0c-6.74 12 -13.86 40 -14.44 52.7a0.28 0.28 0 0 0 0 0.22c4.48 7.22 11.08 18.44 14 23.76 -2.4 1.7 -9.74 7.14 -8.3 9.68 3.44 6 29.38 49.36 30.7 51.74 -2.48 2 -12.2 12.48 -20 19.84l0.34 0.72c8.26 -7.78 18.18 -18.56 20.36 -20.16 0.48 -0.36 1.36 1.58 -22.74 -38.9a57.04 57.04 0 0 0 33 -19.62c6.44 11.22 21.54 38.16 26.88 49.36 4.74 10 7.62 16 -7.78 39.78 -7.02 1.64 -38.76 9.08 -40.42 9.4l0.34 0.7c2 -0.42 58 -13.52 62 -14.16a0.4 0.4 0 0 0 0.32 -0.38c0 -3.04 -0.72 -24.92 -1.32 -42.58 12.9 4.12 25.76 3.54 38.76 0 0.86 19 1.56 44 0.82 54.26 -1.58 21.76 0 20.44 -79.58 48.46l0.32 0.68c78.5 -27.62 78.42 -26.92 79.9 -47.78 1.26 -16.3 -0.48 -56.38 -1.42 -71.48Zm-119.5 -44a68 68 0 0 1 17.38 -11.12l12 20.56a80.14 80.14 0 0 1 -17.68 11.18c-3.36 -6.48 -7.76 -13.86 -11.7 -20.54Zm7.4 36.54c-2.88 -4.84 -5.38 -9.08 -7 -11.86 6.64 1.14 30.9 -13.02 33.22 -19.14 1.74 2.86 4 6.8 6.66 11.34a56.3 56.3 0 0 1 -32.88 19.74Zm106 -10.44c0 1.1 0.54 21.36 0.52 20.28a77.18 77.18 0 0 1 -20.44 1.1 143.22 143.22 0 0 0 -0.3 -21 68.66 68.66 0 0 0 20.14 -0.3Zm-32.54 32.8c-0.16 -5.08 -0.32 -9.78 -0.44 -13.54 4.96 4 33.56 4.14 38.48 -0.18 0.22 3.82 0.48 8.54 0.7 13.72 -14.12 3.98 -26.82 3.96 -38.82 0.08Z" fill="#7e2553" stroke-width="1"/></g></g></svg>