<svg xmlns="http://www.w3.org/2000/svg" viewBox="0 0 400 400" height="400" width="400">
  <g>
    <path d="M103.704 167.316c-10.288 8.086 -9.962 -11.648 -5.144 -9.92 1.094 0.4 5.09 4.4 5.88 1.836 0.344 -1.11 -2.572 -13.6 -3.674 -16.168a49.6 49.6 0 0 0 16.902 -23.886c0 -1.102 -2.938 0.368 -2.938 0.368a10.87 10.87 0 0 0 0.734 -4.778 0.69 0.69 0 0 0 -1.102 0c-1.838 3.676 -6.246 4.4 -9.922 4.778 -4.4 0 -19.844 -2.2 -25.356 0.368 -2.572 1.102 -5.512 4.776 -4.4 11.4 0 0.736 1.102 5.146 1.836 5.512a15.734 15.734 0 0 1 8.084 2.2c0.368 0.366 0 0.734 -0.366 0.734 -1.47 0 -2.574 -0.368 -3.676 -0.368 -5.144 -0.366 -12.494 -0.366 -13.228 6.248 -0.736 5.144 1.102 10.29 2.94 14.7 2.2 5.51 14.33 23.518 15.8 24.252a4.854 4.854 0 0 0 1.52 -0.212c0.382 3.868 1.084 7.72 1.788 11.236 0.366 2.2 2.572 2.572 2.2 0 -1.046 -3.836 -1.762 -7.672 -2.774 -11.508 5.234 -1.224 16.324 -4.356 18.576 -5.762 0.732 -0.372 -2.584 -12.132 -3.68 -11.03Zm4.044 -42.258a0.8 0.8 0 0 1 0.734 0.734c0 2.266 -7.068 3.6 -7.35 3.676 -0.366 0 -0.734 -0.736 -0.366 -0.736 0.408 -0.41 5.974 -4.01 6.982 -3.674ZM89 170.624a0.36 0.36 0 0 1 -0.368 0.368c-1.102 0.368 -2.2 -0.736 -2.572 -1.47a33.116 33.116 0 0 1 -2.2 -2.94 22.156 22.156 0 0 0 2.2 8.452 1.224 1.224 0 0 1 -1.836 1.47 37.52 37.52 0 0 1 -6.248 -8.82c-1.764 -3.346 -3.674 -6.614 -3.306 -10.656 0 -0.368 0.734 -0.736 0.734 0a28.414 28.414 0 0 0 4.4 9.554 24.678 24.678 0 0 0 2.596 4.042 16.298 16.298 0 0 1 -0.368 -7.35 0.964 0.964 0 0 1 1.838 -0.366c1.664 3.346 5.616 5.796 5.13 7.716Zm-7.71 -46.302c-0.38 0.18 -0.696 -0.054 -0.368 -0.366a12.068 12.068 0 0 1 9.922 -2.572 62.242 62.242 0 0 0 8.818 0.734c0.2 0 5.432 -0.654 3.308 1.47 -2.492 1.868 -8.074 0.958 -11.024 0.368a17.048 17.048 0 0 0 -10.656 0.366Z" fill="#7e2553" stroke-width="1" />
    <path d="M123.182 159.232a7.85 7.85 0 0 0 2.938 -6.246c0 -4.94 -4 -8.026 -7.348 -12.128 -1.816 -2.222 -4.042 -4.042 -6.248 -6.246 -0.368 -0.368 -1.102 0 -0.734 0.734 1.47 1.838 2.94 4.044 4.4 5.88 4.324 5.4 6.8 8 7.348 11.024a10.614 10.614 0 0 1 -1.47 5.512 2.788 2.788 0 0 0 -0.734 -1.47c-0.368 -0.366 -0.858 -0.34 -0.736 0.368 0.962 5.538 2.2 11.76 0.368 17.638a13.498 13.498 0 0 1 -2.94 5.512c-1.47 1.838 -3.674 2.574 -5.512 4.044 -0.368 0.366 -0.368 1.102 0.368 1.102 2.572 0.366 4.776 -1.47 6.614 -2.94a17.88 17.88 0 0 0 4.052 -6.616 26.934 26.934 0 0 0 -0.366 -16.168Z" fill="#7e2553" stroke-width="1" />
    <path d="M184.182 197.45c6.154 -1.76 9.948 -4.24 22.048 -10.29 4.62 -1.54 6.818 -2.454 8.818 -6.614C232 145.268 234.136 122.182 236 116.6a40.43 40.43 0 0 0 0.73 -6.6c0 -1.104 -1.47 -1.104 -1.838 -0.368a111.052 111.052 0 0 0 -2.2 11.76 262.716 262.716 0 0 1 -15.434 49.976c-1.8 4.06 -2.94 9.92 -6.982 12.126a109.154 109.154 0 0 1 -12.494 5.88c-4.45 2.122 -8.82 4.776 -13.6 6.982 -1.104 0.358 -0.736 1.094 0 1.094Z" fill="#7e2553" stroke-width="1" />
    <path d="M234.158 104.112c-2.2 -1.838 -4.432 -3.278 -6.982 -5.144a10.5 10.5 0 0 1 -3.676 -3.308 5.848 5.848 0 0 1 0 -5.512 41 41 0 0 1 2.572 -5.88c0.736 -1.836 1.838 -3.674 2.574 -5.512 0.366 -0.734 -0.736 -1.47 -1.47 -0.734a27.372 27.372 0 0 0 -3.308 5.512c-1.47 3.306 -3.752 7.358 -3.308 11.024a8.822 8.822 0 0 0 4.4 5.88c2.6 1.8 5.512 3.674 8.084 5.144 1.114 0 1.848 -0.736 1.114 -1.47Z" fill="#7e2553" stroke-width="1" />
    <path d="M230.85 85.738c1.21 -6.654 1.508 -14.188 2.2 -18.374 0.368 -2.2 0.368 -4.4 0.736 -6.614 0.368 -1.47 0.734 0.368 1.102 0.736 0.368 1.47 1.09 2.942 1.47 4.776 1.068 5.152 1.47 10.658 2.2 15.8a0.924 0.924 0 0 0 1.838 0 58.236 58.236 0 0 0 -3.674 -22.416 2.752 2.752 0 0 0 -2.572 -2.2c-2.572 0 -2.2 4.4 -2.572 5.878a208.548 208.548 0 0 0 -1.104 21.682c-0.726 1.1 0.008 1.1 0.376 0.732Z" fill="#7e2553" stroke-width="1" />
    <path d="M250.326 74.346a9.474 9.474 0 0 1 2.94 4.778 13.898 13.898 0 0 1 0 5.512 1.64 1.64 0 0 0 0 1.838c0.368 0.366 0.734 0 1.102 -0.368 1.44 -1.44 1.24 -5.326 0.736 -7.35a8.574 8.574 0 0 0 -4.41 -5.512c-0.524 -0.186 -0.736 0.736 -0.368 1.102Z" fill="#7e2553" stroke-width="1" />
    <path d="M258.778 102.274a31.25 31.25 0 0 0 2.572 -8.084c0.668 -4.786 0.736 -11.024 -2.572 -15.066 -0.368 -0.736 -1.47 0 -1.102 0.734a22.666 22.666 0 0 1 1.102 13.964c-0.736 4.4 -3.4 8.044 -5.144 12.128 -0.778 1.82 1.85 22.046 2.572 32.336 0.748 10.656 0.734 21.314 0.734 31.97 0 10.29 -0.722 20.58 -1.47 31.236a68.554 68.554 0 0 1 -2.572 15.066 22.894 22.894 0 0 1 -6.246 9.554 59.412 59.412 0 0 1 -12.128 9.554c-2.564 1.482 -4.776 2.94 -7.348 4.4a50.4 50.4 0 0 0 -7.35 4.778c-0.736 0.366 0 1.47 0.734 1.102a57.752 57.752 0 0 0 13.964 -6.982 83.118 83.118 0 0 0 11.4 -8.452 38.434 38.434 0 0 0 7.718 -9.186 37.54 37.54 0 0 0 3.674 -13.964c4.018 -29.136 2.334 -70.532 -2.2 -99.586 1.824 -0.724 3.294 -4.4 3.662 -5.502Z" fill="#7e2553" stroke-width="1" />
    <path d="M18.452 303.282c-0.52 7.8 -4.764 27.282 -6.614 34.908C10.186 345 10 344.6 10 346.276c0 0.734 0.734 1.102 1.47 0.366a15.988 15.988 0 0 0 2.572 -6.614c1.07 -4.872 5.88 -29.064 5.88 -36.746 -0.368 -1.104 -1.47 -1.104 -1.47 0Z" fill="#7e2553" stroke-width="1" />
    <path d="M241.14 71.774c0.734 1.102 1.836 1.838 2.2 2.94a16.464 16.464 0 0 1 1.47 7.35c0 2.554 2.874 0.2 1.838 -4.4a13.614 13.614 0 0 0 -2.2 -5.144 8.816 8.816 0 0 0 -2.94 -2.2c-0.368 0.352 -0.736 1.08 -0.368 1.454Z" fill="#7e2553" stroke-width="1" />
    <path d="M144.862 280.498c-0.736 0.368 -1.108 -0.744 -0.368 -1.102 5.478 -2.648 73.862 -27.56 74.6 -27.928 -2.938 -7.718 -24.988 -65.042 -25.722 -67.982a1.344 1.344 0 0 0 -1.838 -0.736c-8.084 5.512 -56.958 22.784 -58.06 23.152 -12.13 -12.862 -48.874 -14.702 -64.312 -7.718a1.148 1.148 0 0 0 0 2.2c3.648 1.128 6.12 6.118 6.616 6.614 -13.23 4.4 -25.474 11.67 -33.8 22.782 -10.724 14.304 -11.8 23.548 -28.662 77.904a1.356 1.356 0 0 0 0.366 1.104c8.086 1.47 16.536 1.836 24.622 3.306 -0.64 -17.89 -0.32 -38.146 4.4 -55.488a91.614 91.614 0 0 1 8.82 -22.782c0.368 -0.368 1.102 0 0.736 0.366a59.73 59.73 0 0 0 -4.778 13.6c-8.81 26.428 -5.726 63.988 -5.144 91.866 0.084 4.042 0.366 8.086 0.734 12.128a40.582 40.582 0 0 0 12.494 1.836c3.676 0 27.552 -1.572 36.012 -2.2 17.624 -1.316 69.82 -3.674 78.64 -2.94a1.18 1.18 0 0 0 1.102 -1.102c0.184 -9.56 4.042 -70.554 4.042 -74.6a247.36 247.36 0 0 0 -30.5 7.72Zm-26.462 -36.38a65.016 65.016 0 0 0 8.088 21.682 1.076 1.076 0 0 1 -0.368 1.836c-0.734 0 -1.47 -1.47 -1.836 -1.836 -1.47 -2.2 -2.94 -4.778 -4.41 -7.35a62.982 62.982 0 0 1 -4.4 -16.536c-1.352 -10.782 2.4 -21.496 6.614 -26.458 0.336 -0.4 5.146 -4.778 4.778 -3.308 -0.368 1.102 -1.872 2.172 -2.572 2.94a23.716 23.716 0 0 0 -4.042 7.35 42.072 42.072 0 0 0 -1.852 21.68ZM107 205.534a9.978 9.978 0 0 1 6.248 2.94 0.704 0.704 0 0 1 -0.368 1.102c-5.582 0 -4.97 -2.94 -28.296 -2.94 -0.734 0 -0.366 -0.734 0 -0.734 5.124 -0.394 17.16 -1.246 22.428 -0.368Z" fill="#ff004d" stroke-width="1" />
    <path d="M266.494 46.786c-8.182 0 -53.106 -0.772 -60.264 0 -4.036 0.436 -8.452 1.102 -11.4 4.4a10.958 10.958 0 0 0 -2.94 6.248 89.272 89.272 0 0 0 0 14.33c0.34 4.046 0.32 8.132 3.674 11.4 6.526 6.34 17.634 3.124 25.724 3.308a0.552 0.552 0 0 0 0 -1.104c-3.308 0 -6.982 -0.366 -10.29 -0.366 -6.484 0 -12.576 -0.166 -15.434 -5.88 -1.836 -3.674 -1.47 -8.452 -1.47 -12.494 0 -3.674 -0.366 -8.82 1.47 -12.126s5.888 -4.7 9.556 -5.146a125.054 125.054 0 0 1 15.066 -0.734c55.714 0 59.184 -0.162 60.632 0a14.134 14.134 0 0 1 9.186 5.88 17.92 17.92 0 0 1 2.2 12.126c-0.09 0.544 -0.508 9.028 -2.572 12.494 -3.19 5.354 -15.168 5.524 -18 5.88l-6.616 0c-0.366 0 -1.836 0 -1.47 0.734l0.368 0a90.432 90.432 0 0 0 16.536 0c3.676 -0.368 7.35 -1.102 9.554 -4.042 2.2 -2.572 2.522 -5.886 2.94 -9.186a61.532 61.532 0 0 0 0.736 -7.718 44.226 44.226 0 0 0 0 -6.982 14.652 14.652 0 0 0 -7.35 -9.554c-1.756 -0.88 -7.57 -1.468 -19.836 -1.468Z" fill="#7e2553" stroke-width="1" />
    <path d="M328.964 162.908a152.764 152.764 0 0 0 24.254 0.366 26.3 26.3 0 0 0 8.82 -1.47 12.132 12.132 0 0 0 6.614 -6.614 16.668 16.668 0 0 0 0.734 -5.88c0 -4.422 0.104 -5.2 -0.366 -6.614 0 -0.368 -0.736 -0.368 -0.736 0a11.81 11.81 0 0 0 -0.368 5.144 25.354 25.354 0 0 1 -0.734 5.512 9.8 9.8 0 0 1 -5.512 6.616 34.056 34.056 0 0 1 -8.452 1.47c-2.94 0 -6.248 0.366 -9.186 0.366 -4.778 0 -9.922 0 -14.7 0.368 -0.732 0.368 -0.732 0.736 -0.368 0.736Z" fill="#7e2553" stroke-width="1" />
    <path d="M243.344 240.076c13.672 0.298 52.114 1.228 60.632 0.368 4.04 -0.4 8.13 -0.668 11.4 -2.94 4.102 -2.856 4.778 -7.35 4.778 -11.76 0.89 -14.254 1.066 -24.348 -13.23 -25.354 -7.34 -0.518 -14.698 0 -22.416 0 -19.452 0 -18.2 0.366 -21.68 0.366a0.552 0.552 0 0 0 0 1.104c1.47 0 4.042 0.336 5.88 0.366 11.028 0.184 22.046 -0.712 33.072 0 5.878 0.38 13.666 0.346 15.8 7.35 1.898 6.228 1.462 14.698 0.366 20.946 -1.48 8.45 -14.332 8.016 -20.946 8.084 -18 0.184 -35.644 -0.368 -53.65 0.368 -0.374 0.368 -0.374 1.094 -0.006 1.102Z" fill="#7e2553" stroke-width="1" />
    <path d="M377.47 210.31c-8.158 -0.814 -53 -0.146 -54.018 0.368 -0.734 0.368 0.368 22.048 1.104 22.048 9.2 -0.658 53.4 -1.036 56.958 -1.836 4.434 -1 6.98 -5.88 6.98 -10.29 0.368 -5.88 -5.51 -9.554 -11.024 -10.29Z" fill="#ff004d" stroke-width="1" />
    <path d="M224.97 133.878a235.6 235.6 0 0 0 -30.868 -1.104c-5.144 0 -10.288 0 -15.432 0.368a54.2 54.2 0 0 0 -7.718 0.368 45.422 45.422 0 0 0 -7.35 0.366 12.102 12.102 0 0 0 -8.818 8.086c-1.47 3.674 0.378 7.704 3.306 10.288a16.8 16.8 0 0 0 11.76 3.676c18.704 0 30.926 0.126 49.976 -1.104 0.734 0 0.734 -1.47 0 -1.102a431.044 431.044 0 0 1 -43.73 0.368c-4.042 0 -8.8 0.312 -12.86 -1.102 -3.292 -1.148 -6.982 -4.4 -6.982 -8.452a9.03 9.03 0 0 1 2.2 -5.144 8.338 8.338 0 0 1 5.146 -3.676c4.472 -0.744 9.1 0.012 14.332 -0.734 9.05 0 -6.824 -0.368 47.4 -0.368 0.006 -0.2 0.006 -0.368 -0.362 -0.734Z" fill="#7e2553" stroke-width="1" />
    <path d="M384.086 57.444C380.43 55.2 376 55.6 371.6 55.6c-71.432 0 -74.964 0.278 -74.964 1.838a166.352 166.352 0 0 1 -1.104 19.108 0.8 0.8 0 0 0 0.368 1.47c20.618 1.178 46.566 0.078 78.64 -0.368 3.306 -0.046 6.982 0 9.92 -2.2 7.246 -4.028 7.648 -13.092 -0.374 -18.004Z" fill="#ff004d" stroke-width="1" />
    <path d="M386.29 137.184c-3.306 -3.306 -15.434 -4.042 -15.434 -2.572 0 5.88 0 19.476 0.736 20.21a4.93 4.93 0 0 0 3.306 0.736 23.698 23.698 0 0 0 6.982 -0.736 11.042 11.042 0 0 0 7.718 -7.716 12.216 12.216 0 0 0 -3.308 -9.922Z" fill="#ff004d" stroke-width="1" />
    <path d="M367.916 130.938c-6 -9 -18.476 -6.982 -26.824 -6.982 -4.778 0 -9.922 0 -14.7 -0.368 -30.54 0 -45 -1.572 -51.078 1.47a10.2 10.2 0 0 0 -5.88 5.144 11.046 11.046 0 0 0 -1.14 3.282c-5.032 -0.01 -7.532 -0.122 -8.046 0.4l0 1.102a2.814 2.814 0 0 0 1.838 0.734c3.588 0 5.118 0.108 5.916 0.12 -0.124 1.888 -0.038 3.772 -0.038 5.4a48.494 48.494 0 0 0 1.056 13.6c-6.218 0 -6.72 -0.108 -7.67 0.368l0.05 1.47c0.2 0.2 -0.924 0 8.302 0a10.238 10.238 0 0 0 5.612 5.512c3.968 1.322 6.506 1.102 23.518 1.102 14.488 0 24 -0.4 26.09 -0.366a0.552 0.552 0 1 0 0 -1.104c-2.2 0 -4.776 -0.366 -6.982 -0.366l-22.782 0c-6.248 0 -14.7 1.47 -20.212 -1.47a10.162 10.162 0 0 1 -4.776 -9.188c-0.368 -5.512 -1.102 -12.86 0.366 -18.374a8.4 8.4 0 0 1 2.574 -3.674c4.954 -4.954 15.668 -3.674 76.8 -3.674 4.778 0 9.554 0 13.23 2.572a11.252 11.252 0 0 1 4.776 11.024c0.368 0.368 0.368 0.368 0.736 0a8.2 8.2 0 0 0 -0.736 -7.734Z" fill="#7e2553" stroke-width="1" />
    <path d="M288.544 136.45c-3 8.974 0.734 17.71 0.734 14.33 0.45 -1.35 0.888 -17.58 -0.734 -14.33Z" fill="#7e2553" stroke-width="1" />
    <path d="M302.506 135.346c-0.698 2.446 -0.366 4.064 -0.366 12.128 0 2.26 0.168 3.306 1.836 3.306 1.03 -0.686 0.736 -1.246 0.736 -7.348 0 -11.862 -2.646 -8.086 -2.206 -8.086Z" fill="#7e2553" stroke-width="1" />
    <path d="M319.41 150.78c0.648 -0.97 -0.17 -20.236 -2.572 -15.434 0.2 0 -0.638 18.654 2.572 15.434Z" fill="#7e2553" stroke-width="1" />
    <path d="M331.17 135.714a87.146 87.146 0 0 0 -0.368 12.126c0 1.104 0 2.94 0.736 3.676 0.366 0.368 1 0.352 1.102 0a13.766 13.766 0 0 0 0.366 -4.042 61.812 61.812 0 0 0 -0.734 -12.128c0 -0.366 -1.102 -0.366 -1.102 0.368Z" fill="#7e2553" stroke-width="1" />
    <path d="M346.97 136.082c0 0.2 -1.166 13.2 1.104 15.066 2.672 2.19 1.378 -9.948 1.134 -11.45 -1.042 -6.424 -2.208 -4.416 -2.238 -3.616Z" fill="#7e2553" stroke-width="1" />
    <path d="M211.374 59.648c-1.346 4.04 -0.256 3.966 -1.102 7.35 0 2.2 -0.368 5.144 0.734 6.982 0.368 0.734 1.104 0.366 1.104 0 0.462 -1.388 0.366 -2 0.366 -10.658 0 -1.102 -0.366 -2.2 -0.366 -3.674 0.366 -0.368 -0.368 -0.736 -0.736 0Z" fill="#7e2553" stroke-width="1" />
    <path d="M225.338 58.546a47.36 47.36 0 0 0 -0.734 12.126c0 1.102 0 2.94 1.102 3.308l0.734 0c1.102 -0.736 0.736 -2.2 0.736 -3.308a47.972 47.972 0 0 0 -0.736 -12.126c-0.368 -0.368 -1.102 -0.736 -1.102 0Z" fill="#7e2553" stroke-width="1" />
    <path d="M254 58.912a87.27 87.27 0 0 0 -0.366 12.128c0 1.102 0 2.94 0.734 3.674 0.368 0.368 1.076 0.4 1.184 0.042a14.128 14.128 0 0 0 0.286 -4.084 61.784 61.784 0 0 0 -0.734 -12.126c0 -0.368 -1.104 -0.368 -1.104 0.366Z" fill="#7e2553" stroke-width="1" />
    <path d="M269.8 59.28c0 0.2 -1.284 18.556 2.2 15.066 1.232 -1.844 -0.468 -12.982 -1.102 -15.434 -0.168 -0.672 -1.098 -0.366 -1.098 0.368Z" fill="#7e2553" stroke-width="1" />
    <path d="M271.64 212.884c-0.288 2.016 -0.122 14.372 1.47 15.434a0.69 0.69 0 0 0 1.102 0c1.166 -1.75 -0.744 -14.178 -1.102 -15.434 0 -0.736 -1.11 -0.736 -1.47 0Z" fill="#7e2553" stroke-width="1" />
    <path d="M285.97 213.618a87.252 87.252 0 0 0 -0.366 12.126c0 1.104 0 2.94 0.734 3.676 0.368 0.366 1.102 0.366 1.102 0 0.736 -1.102 0.368 -2.572 0.368 -4.042a61.812 61.812 0 0 0 -0.734 -12.128c0 -0.734 -1.104 -0.366 -1.104 0.368Z" fill="#7e2553" stroke-width="1" />
    <path d="M304.344 224.642a57.246 57.246 0 0 0 -1.47 -11.4c-0.232 -0.752 -0.914 -0.432 -1.102 0.368a16.2 16.2 0 0 0 -0.368 4.042c0 3.91 -0.248 6.13 0 7.6a4.868 4.868 0 0 0 1.48 3.42 0.688 0.688 0 0 0 1.102 0c0.726 -1.09 0.358 -2.56 0.358 -4.03Z" fill="#7e2553" stroke-width="1" />
    <path d="M258.41 218.028c0 1.838 -0.368 3.674 -0.368 5.512l0 4.042c0 0.736 0.736 1.102 1.47 1.102 2.638 0 0.612 -6.522 0 -10.288 -0.186 -1.148 -1.102 -0.736 -1.102 -0.368Z" fill="#7e2553" stroke-width="1" />
    <path d="M190.8 56.708a17.47 17.47 0 0 0 -4.778 -0.368c-7.722 0.184 -15.8 -0.734 -23.518 0.368a11.944 11.944 0 0 0 -6.614 3.674 11.118 11.118 0 0 0 0 13.6c4.544 5.866 14.5 3.674 24.988 3.674a70.534 70.534 0 0 1 8.82 0 0.924 0.924 0 0 0 0 -1.838 42.726 42.726 0 0 0 -6.616 0c-2.568 0.4 -5.512 0.368 -8.084 0.736 -7.758 0 -11.816 0.39 -15.066 -1.47a9 9 0 0 1 -2.94 -12.126c2.2 -3.676 6.614 -4.41 10.658 -4.41 6.246 -0.368 12.494 0.366 18.74 0a20.932 20.932 0 0 0 4.778 -0.368c-0.004 -0.736 -0.004 -1.104 -0.368 -1.472Z" fill="#7e2553" stroke-width="1" />
    <path d="M240.562 58.824a12.77 12.77 0 0 0 -0.158 1.558c0 3.368 -0.116 3.926 0.368 4.41 0.676 0.676 1.47 -1 1.47 -1.47a15.97 15.97 0 0 0 -0.24 -4.464c-0.132 -0.442 -1.342 -0.582 -1.44 -0.034Z" fill="#7e2553" stroke-width="1" />
    <path d="M114.73 164.378a4.22 4.22 0 0 0 3.306 1.836c1.838 0 2.2 1.102 1.102 1.838a3.612 3.612 0 0 1 -4.776 -1.47c-1.268 -1.982 -1.102 -3.674 0.368 -2.204Z" fill="#7e2553" stroke-width="1" />
    <path d="M110.32 141.6a2.934 2.934 0 0 0 -2.94 1.47c-1.102 1.47 -2.022 1.136 -1.838 -0.368a3.506 3.506 0 0 1 3.676 -3.306c2.582 -0.006 2.938 1.83 1.102 2.204Z" fill="#7e2553" stroke-width="1" />
    <path d="M108.85 147.106a2.94 1.838 0 1 0 5.88 0 2.94 1.838 0 1 0 -5.88 0Z" fill="#7e2553" stroke-width="1" />
  </g>
</svg>