<svg xmlns="http://www.w3.org/2000/svg" viewBox="0 0 997.87 821.92"><defs><style>.cls-1{fill:#edf2ff;}.cls-1,.cls-10,.cls-2,.cls-3,.cls-4,.cls-5,.cls-6,.cls-7,.cls-8,.cls-9{fill-rule:evenodd;}.cls-2{fill:#cae7e4;}.cls-3{fill:#fff;}.cls-4{fill:#344372;}.cls-5{fill:#ff4c4c;}.cls-6{fill:#1c2541;}.cls-7{fill:#eef7f6;}.cls-8{fill:#e53838;}.cls-9{fill:#9fc9d0;}.cls-10{fill:#213268;}</style></defs><g id="Layer_2" data-name="Layer 2"><g id="Layer_1-2" data-name="Layer 1"><path class="cls-1" d="M93.93,814.51H944.44S987.58,705.92,971,592.67c-26-178-98.94-142.54-64.8-282.37C936.11,187.77,822.5-84.59,617.8,25.77c-129,69.53-208.83,83-348.92,68.8C128.46,80.3,33.7,240.44,73.2,393.07,107.78,526.73-42,638.23,93.93,814.51Z"/><path class="cls-2" d="M285.85,137.12a7.1,7.1,0,1,1-7.12,7.08,7.1,7.1,0,0,1,7.12-7.08Zm36.11.11a7.1,7.1,0,1,1-7.12,7.08,7.1,7.1,0,0,1,7.12-7.08ZM267.05,85.38l-2.35-7a2.22,2.22,0,0,0-2.1-1.44l-14.33,0a2.06,2.06,0,1,0,0,4.1L261,81l17.35,51.57a2.17,2.17,0,0,0,2.09,1.44l47.16.15a2.06,2.06,0,1,0,0-4.1l-45.54-.14-1.29-3.84,47.41-5.27a2.76,2.76,0,0,0,2.41-2.29c1-5.86,3.79-22.67,5-29.75a2.75,2.75,0,0,0-2.71-3.21l-65.79-.2Zm17,9.24.56,21a1.73,1.73,0,1,0,3.46-.1l-.56-21a1.73,1.73,0,1,0-3.46.09Zm11.54,0,.51,19.11a1.73,1.73,0,0,0,3.46-.1l-.51-19.11a1.73,1.73,0,0,0-3.46.1Zm11.63,0,.3,17.37A1.73,1.73,0,1,0,311,112l-.3-17.37a1.73,1.73,0,0,0-3.46.06Zm11.55,0,.27,15.92a1.73,1.73,0,0,0,3.46,0l-.28-15.93a1.73,1.73,0,1,0-3.45.06Z"/><path class="cls-2" d="M80.44,455.36A44.66,44.66,0,1,0,125.1,500a44.68,44.68,0,0,0-44.66-44.66Z"/><path class="cls-3" d="M76.74,476.9a13.45,13.45,0,0,0-12,13.37h0a13.45,13.45,0,0,0,13.45,13.45h4.44a6.05,6.05,0,0,1,6,6h0a6,6,0,0,1-6,6H74a1.87,1.87,0,0,1-1.3-.54,1.83,1.83,0,0,1-.53-1.29v-1.17a3.71,3.71,0,0,0-7.41,0V514A9.24,9.24,0,0,0,74,523.22h2.73v4.07a3.71,3.71,0,1,0,7.41,0v-4.15a13.46,13.46,0,0,0,12-13.37h0a13.46,13.46,0,0,0-13.46-13.46H78.22a6,6,0,0,1-6-6h0a6,6,0,0,1,6-6h8.65a1.81,1.81,0,0,1,1.3.54,1.84,1.84,0,0,1,.54,1.29v1.17a3.71,3.71,0,0,0,7.41,0v-1.17a9.25,9.25,0,0,0-9.25-9.24H84.15v-4.07a3.71,3.71,0,1,0-7.41,0v4.15Z"/><path class="cls-2" d="M822.07,85.25H807.24s-3.87,39-5.76,61.43a11.05,11.05,0,0,0,11,12h55.37a11,11,0,0,0,11-12c-1.88-22.48-5.76-61.43-5.76-61.43h-15.2V79.16A17.91,17.91,0,0,0,840,61.24h0a17.91,17.91,0,0,0-17.92,17.92v6.09Zm31.29,0H826.63V79.16A13.37,13.37,0,0,1,840,65.79h0a13.38,13.38,0,0,1,13.37,13.37v6.09Z"/><polygon class="cls-4" points="200.44 222.64 200.44 454.77 200.44 785.1 812.22 785.1 812.22 454.77 812.22 222.64 200.44 222.64"/><polygon class="cls-5" points="833.61 785.1 179.04 785.1 179.04 814.51 833.61 814.51 833.61 785.1 833.61 785.1"/><polygon class="cls-5" points="415.63 521.31 244.6 521.31 244.6 814.51 415.63 814.51 415.63 521.31 415.63 521.31"/><polygon class="cls-5" points="768.05 521.31 462.13 521.31 462.13 711.32 768.05 711.32 768.05 521.31 768.05 521.31"/><polygon class="cls-6" points="750.28 537.87 479.9 537.87 479.9 694.76 750.28 694.76 750.28 537.87 750.28 537.87"/><polygon class="cls-6" points="399.28 538.55 260.94 538.55 260.94 814.51 399.28 814.51 399.28 538.55 399.28 538.55"/><polygon class="cls-5" points="878.91 386.44 133.74 386.44 207.45 282.16 805.2 282.16 878.91 386.44 878.91 386.44"/><polygon class="cls-7" points="818.68 386.44 193.97 386.44 255.76 282.16 756.89 282.16 818.68 386.44 818.68 386.44"/><polygon class="cls-5" points="754.09 386.44 258.56 386.44 307.58 282.16 705.07 282.16 754.09 386.44 754.09 386.44"/><polygon class="cls-7" points="686.35 386.44 326.3 386.44 361.92 282.16 650.73 282.16 686.35 386.44 686.35 386.44"/><polygon class="cls-5" points="616.09 386.44 396.57 386.44 418.28 282.16 594.37 282.16 616.09 386.44 616.09 386.44"/><polygon class="cls-7" points="544.39 386.44 468.26 386.44 475.79 282.16 536.86 282.16 544.39 386.44 544.39 386.44"/><path class="cls-2" d="M544.39,386.44h-76v28.43c0,22,17,39.91,38,39.91h0c21,0,38-17.87,38-39.91V386.44Z"/><path class="cls-2" d="M686.35,386.44H616.08V417.9A37.84,37.84,0,0,0,626.37,444a34.32,34.32,0,0,0,24.85,10.81h0A34.31,34.31,0,0,0,676.06,444a37.8,37.8,0,0,0,10.29-26.07V386.44Z"/><path class="cls-2" d="M326.41,386.44h70.26V417.9A37.8,37.8,0,0,1,386.38,444a34.3,34.3,0,0,1-24.84,10.81h0A34.3,34.3,0,0,1,336.7,444a37.8,37.8,0,0,1-10.29-26.07V386.44Z"/><path class="cls-2" d="M818.68,386.44H754.09v34.43a34.74,34.74,0,0,0,9.46,24,31.53,31.53,0,0,0,22.84,9.94h0a31.52,31.52,0,0,0,22.83-9.94,34.74,34.74,0,0,0,9.46-24V386.44Z"/><path class="cls-2" d="M194.07,386.44h64.6v34.43a34.79,34.79,0,0,1-9.46,24,31.55,31.55,0,0,1-22.84,9.94h0a31.55,31.55,0,0,1-22.84-9.94,34.79,34.79,0,0,1-9.46-24V386.44Z"/><path class="cls-8" d="M616.08,386.44H544.39v30.71c0,20.78,16.05,37.63,35.85,37.63h0c19.8,0,35.84-16.85,35.84-37.63V386.44Z"/><path class="cls-8" d="M396.67,386.44h71.7v30.71c0,20.78-16.05,37.63-35.85,37.63h0c-19.8,0-35.85-16.85-35.85-37.63V386.44Z"/><path class="cls-8" d="M754.09,386.44H686.35v32.78c0,19.64,15.16,35.56,33.87,35.56h0c18.7,0,33.87-15.92,33.87-35.56V386.44Z"/><path class="cls-8" d="M258.67,386.44h67.74v32.78c0,19.64-15.17,35.56-33.87,35.56h0c-18.71,0-33.87-15.92-33.87-35.56V386.44Z"/><path class="cls-8" d="M878.91,386.44H818.68v36.72a32.47,32.47,0,0,0,8.82,22.36,29.45,29.45,0,0,0,21.3,9.26h0a29.45,29.45,0,0,0,21.29-9.26,32.42,32.42,0,0,0,8.82-22.36V386.44Z"/><path class="cls-8" d="M133.84,386.44h60.23v36.72a32.42,32.42,0,0,1-8.82,22.36A29.42,29.42,0,0,1,164,454.78h0a29.45,29.45,0,0,1-21.3-9.26,32.47,32.47,0,0,1-8.82-22.36V386.44Z"/><path class="cls-2" d="M110.1,632.57c-11.64-17.16-9.28-22.69-9.28-22.69s-12.18,13.17-23.74,51.24l14.09,6.52-15.85-.54a159.58,159.58,0,0,0-5.39,40,163.27,163.27,0,0,0,6.74,46.78l24.43-1.19L81,766.12c8.84,21.83,23.15,40.51,43.51,50.58,21.12.21,63.7,3,66,.28,8.21-10,26.05-36.94,14.19-72l-20.47,2.76,18.74-7.39c-5.62-13.82-15.94-28.79-33.24-44.39q-9.31-8.38-17-15.77L139.11,684l9.27-7.87c-18.19-17.77-29.51-31.11-36.53-41l-4.51,2.36,2.76-4.89Z"/><path class="cls-9" d="M187.92,815.93c.3,1.29-3.85,3.74-4.53.68-1.53-6.85-5.3-20.67-13.69-38.61a267,267,0,0,0-23.53-40.39c-13.07-18.74-32.91-46.48-43.24-73.86-7.26-19.24-9.83-38.29-2.11-53.87-7.21,15.66-4.15,34.5,3.53,53.43,10.94,27,31.23,54.15,44.63,72.5a269.1,269.1,0,0,1,24.47,40.7c8.8,18.21,12.81,32.32,14.47,39.42Z"/><path class="cls-10" d="M141.5,820.11c0,1.87-2.32,0-4.27,0C122.05,802.93,88,762.63,60.05,716.75,43.14,689,28.48,659.18,21.56,631.22a.93.93,0,0,1,.67-1.12.92.92,0,0,1,1.12.67c7,27.74,21.79,57.25,38.75,84.72,29.36,47.57,65.33,89,79.4,104.62Z"/><path class="cls-5" d="M138.28,820.11s15.27-19.11,7-40.38-18.36,18.74-7,40.38Z"/><path class="cls-5" d="M116.29,793s18.22-34,7.72-44.94-15,22.66-7.72,44.94Z"/><path class="cls-5" d="M96.7,768.06s17.35-26.45,10.48-37.63S88.89,739.9,96.7,768.06Z"/><path class="cls-5" d="M81.82,747.62s18.17-24.88,7.81-37.7-16.1,14.85-7.81,37.7Z"/><path class="cls-5" d="M64.45,721.56s16.17-20,8.79-32.92-11.74,15.24-8.79,32.92Z"/><path class="cls-5" d="M51.3,699.46s21.09-26,10.71-38-11.42,27.31-10.71,38Z"/><path class="cls-5" d="M35.34,665.94s20.55-25.25,12.55-36.62S35.26,657,35.34,665.94Z"/><path class="cls-5" d="M24.11,637.14s12-28.61-.66-37.95-11.11,26.74.66,37.95Z"/><path class="cls-5" d="M35.34,665.94S8.52,642.67,1.12,651.37,25.05,673,35.34,665.94Z"/><path class="cls-5" d="M51.3,699.46S13.44,676,11.4,691.13s29.83,19.64,39.9,8.33Z"/><path class="cls-5" d="M64.45,721.56s-37.14-10.83-37.11,3.32,25.44,6.91,37.11-3.32Z"/><path class="cls-5" d="M81.81,747.61s-27.62-2.81-33.51,6.91,17.58,10.17,33.51-6.91Z"/><path class="cls-5" d="M96.7,768.06s-33.64,1.42-38.21,14.28,32.08-.3,38.21-14.28Z"/><path class="cls-5" d="M116.29,793s-31.11,1.79-38,13.84,27.3,10.77,38-13.84Z"/><path class="cls-5" d="M265.5,816.9c-10.82,1.77-32.62-.75-55.17.11-24.19-8-51.6-21.07-56.77-40.19-8.16-30.16,50.13,13,46.57-7.83s-57.78-48.68-51.54-65.93,43.93,19.34,51,10.55-34.72-51.22-22.92-72.16,20.63,15,34.58,42.38,29.29-10.52,46.42-6.22c23.35,5.86-21.06,54.36-9,73.46,11.14,17.6,39.85-54.27,46.22-6.83,5.06,37.68-14.35,60.76-29.36,72.66Z"/><path class="cls-3" d="M239.45,802.89a250.17,250.17,0,0,1-34.83-6.29c-8.45-2.25-16.75-5.18-22.78-8.94a.36.36,0,0,0-.5.09.37.37,0,0,0,.14.5c6.05,3.92,14.41,7,22.93,9.47a253.6,253.6,0,0,0,35.64,7.06c1.52,4.85,2.84,9.1,3.92,12.57-.27.38,2.5,2.09,1.85,0-1.67-5.26-4-12.4-6.64-20.71a198.19,198.19,0,0,0,26.22-25c5.47-6.4,10.41-13.42,13.25-20.29a.38.38,0,0,0-.2-.49.35.35,0,0,0-.48.15c-2.94,6.74-8,13.59-13.51,19.82a196.4,196.4,0,0,1-25.92,23.8c-5.32-16.47-12.1-37.16-18.83-57-.31-.91-.61-1.82-.92-2.72a.83.83,0,0,0,.32-.27l28.21-40.62a.37.37,0,0,0-.11-.51.36.36,0,0,0-.51,0l-28.64,39.2c-7.54-22.07-14.86-42.54-19.84-54.21a.41.41,0,0,0-.49-.23.33.33,0,0,0-.19.45c5.25,12.53,13.11,35.2,21,59.11q1.28,3.85,2.54,7.72c-4.27-2-21-9.86-33.65-17.2-6.15-3.57-11.31-7-13.54-9.56a.38.38,0,0,0-.52-.08.34.34,0,0,0,0,.5c2.21,2.65,7.4,6.27,13.59,10,14.49,8.8,34.51,18.43,34.51,18.43a1,1,0,0,0,.36.1c6.56,20,12.91,40,17.6,55Z"/><path class="cls-2" d="M295.25,800.2c-18.76-23.81-85.06-192-45.1-204.14,23.91-7.26,12.85,101.1,53.13,197.88,18.46,44.34-5.93,8.93-8,6.26Z"/><path class="cls-9" d="M310.37,816.41s-23.52-36.61-41.28-106.8a641.87,641.87,0,0,1-17.74-113.52.36.36,0,0,0-.39-.34.37.37,0,0,0-.34.39,643.94,643.94,0,0,0,17.2,113.78c17.5,70.61,41,107.49,41,107.49a.93.93,0,0,0,1.58-1Z"/><path class="cls-5" d="M897.93,800.18c23.9-18.64,128.41-166.12,92.51-187.43C969,600,953.83,707.83,891.63,792.18c-28.51,38.66,3.62,10.09,6.3,8Z"/><path class="cls-3" d="M879.39,812.31S911,782.38,945,718.47a642.15,642.15,0,0,0,44.31-106,.36.36,0,0,1,.46-.23.37.37,0,0,1,.24.46A643.28,643.28,0,0,1,946.1,719.08c-33.84,64.38-65.42,94.58-65.42,94.58a.93.93,0,1,1-1.29-1.35Z"/><path class="cls-5" d="M914.13,627.73c14.15-16.92,12.24-23,12.24-23S937.86,620,946,661.49l-15.62,5.39L947.23,668a169.73,169.73,0,0,1,1.41,43,173.67,173.67,0,0,1-12.15,48.79l-25.73-3.88,19.89,16.33c-10,19-24,35.08-42.06,44.63-21.7,0-40.74,2.3-75.69,2.3,0,0-31.62-36.93-10.84-82.56l21.37,5.12-19-9.83c7.43-14,20-28.76,39.94-43.42,7.17-5.25,13.71-10.21,19.68-14.87L877.9,679l-9-9.32c21.16-16.86,34.57-29.77,43-39.46l4.53,3-2.39-5.47Z"/><path class="cls-3" d="M815.34,819.57s4.46-18.1,20.11-44.31A282.44,282.44,0,0,1,864.69,735c15.83-18.43,39.81-45.67,53.68-73.54,9.75-19.59,14.51-39.47,8-56.79,6,17.35.7,37-9.45,56.17-14.48,27.39-38.87,54-55,72a286.61,286.61,0,0,0-30.26,40.46c-13.3,21.64-18.93,38-20.61,43.43a10.5,10.5,0,0,0,1.87,2.42s1.24.47,2.32.81a2.78,2.78,0,0,0,.12-.38Z"/><path class="cls-9" d="M696.28,812s40.2-59.22,34.46-119.48c-2.42-25.42-13-51-38.34-72.42a.9.9,0,0,1,1.16-1.38c25.92,21.64,36.89,47.68,39.53,73.57,6.22,61.12-34.16,121.5-34.16,121.5a1.6,1.6,0,0,1-2.65-1.79Z"/><path class="cls-9" d="M697.09,810.57s-2.39-4.31-6.44-10.26c-1.37-2-2.94-4.18-4.62-6.5-1.24-1.72-2.55-3.49-3.88-5.32s-2.52-3.54-3.89-5.3a56.86,56.86,0,0,0-9.77-10.32.63.63,0,0,1,.66-1.07,51.72,51.72,0,0,1,12.4,8.35,48.62,48.62,0,0,1,4.21,4.29,36.18,36.18,0,0,1,2.46,3.15,61.35,61.35,0,0,1,5,8.61,72.21,72.21,0,0,1,5.08,13.92.61.61,0,0,1-.36.81.63.63,0,0,1-.81-.36Z"/><path class="cls-9" d="M703.24,803.62s-.22-5.09-4-13.09a80,80,0,0,0-4.39-7.85c-1.1-1.77-2.37-3.61-3.71-5.6-1.18-1.77-2.4-3.66-3.77-5.62-1.83-2.62-3.82-5.37-6.15-8.27-2.07-2.58-4.25-5.23-6.8-8,3.21,2,6.08,4,8.72,6,2,1.55,3.75,3.09,5.4,4.66a60.61,60.61,0,0,1,4.93,5.22,39.86,39.86,0,0,1,2.85,3.87,47.39,47.39,0,0,1,3.44,6.38,43.07,43.07,0,0,1,1.73,4.52,44.86,44.86,0,0,1,2.11,10.61,24.4,24.4,0,0,1-.35,7.11Z"/><path class="cls-9" d="M710.72,789.39a64.7,64.7,0,0,0-6.34-15.92c-.69-1.26-1.43-2.54-2.22-3.89-1.07-1.83-2.29-3.69-3.59-5.63-.79-1.19-1.61-2.43-2.47-3.68-1.22-1.78-2.49-3.6-3.94-5.42s-2.81-3.43-4.43-5.15a71.4,71.4,0,0,0-7.6-7.07,62.1,62.1,0,0,1,9.36,5,51.09,51.09,0,0,1,5.7,4.34,47.19,47.19,0,0,1,5.08,5.13,35.23,35.23,0,0,1,2.87,3.88,44.9,44.9,0,0,1,3.37,6.4,43.65,43.65,0,0,1,1.67,4.5,51.71,51.71,0,0,1,2.54,17.52Z"/><path class="cls-9" d="M717.08,775.24a69.06,69.06,0,0,0-7.17-15.36c-.74-1.22-1.54-2.45-2.38-3.74-1.15-1.75-2.45-3.52-3.82-5.36-.84-1.14-1.71-2.31-2.62-3.49-1.31-1.69-2.66-3.41-4.2-5.09s-3-3.18-4.72-4.73a58.54,58.54,0,0,0-8.12-6.24,52.7,52.7,0,0,1,9.69,4,47.49,47.49,0,0,1,6,3.87,43.56,43.56,0,0,1,5.36,4.77,35.83,35.83,0,0,1,3,3.68,43,43,0,0,1,3.64,6.16,42.49,42.49,0,0,1,1.87,4.37,54.27,54.27,0,0,1,3.45,17.15Z"/><path class="cls-9" d="M723.87,756.63A73.86,73.86,0,0,0,714.25,743c-.92-1.06-1.9-2.13-2.92-3.26-1.4-1.52-2.93-3.06-4.53-4.66-1-1-2-2-3-3.06-1.51-1.48-3-3-4.75-4.48s-3.3-2.79-5.13-4.14a67.06,67.06,0,0,0-8.51-5.44,58.48,58.48,0,0,1,9.85,3.07,50.29,50.29,0,0,1,6.23,3.12,48.36,48.36,0,0,1,5.8,4,37.52,37.52,0,0,1,3.46,3.16,47,47,0,0,1,4.43,5.42q1.39,2,2.49,3.94a56,56,0,0,1,6.25,16Z"/><path class="cls-9" d="M727.76,743.77a64.66,64.66,0,0,0-9.47-13.21c-.92-1-1.89-2-2.92-3.09-1.39-1.45-2.92-2.89-4.53-4.39-1-.93-2-1.89-3.07-2.85-1.52-1.38-3.07-2.79-4.8-4.14s-3.34-2.55-5.2-3.77a61.56,61.56,0,0,0-8.59-4.82,54.78,54.78,0,0,1,9.79,2.37,46.81,46.81,0,0,1,6.26,2.7,42.82,42.82,0,0,1,5.86,3.6,35.28,35.28,0,0,1,3.51,3,44,44,0,0,1,7,9,50.35,50.35,0,0,1,6.14,15.65Z"/><path class="cls-9" d="M731.79,719.28A56,56,0,0,0,721,709.59c-1-.69-2-1.38-3.13-2.11-1.49-1-3.09-1.93-4.78-2.92-1-.62-2.1-1.26-3.2-1.89-1.58-.91-3.19-1.85-4.94-2.71s-3.38-1.6-5.24-2.32a56.53,56.53,0,0,0-8.42-2.6,48.87,48.87,0,0,1,9,0,40.67,40.67,0,0,1,6,1,36.73,36.73,0,0,1,5.87,2,27.61,27.61,0,0,1,3.67,1.91,34.84,34.84,0,0,1,4.94,3.72,36.13,36.13,0,0,1,2.9,2.91,47.17,47.17,0,0,1,5.41,7.36,32.55,32.55,0,0,1,2.66,5.4Z"/><path class="cls-9" d="M732.38,698.88a61.1,61.1,0,0,0-9.28-5.56c-1.9-1-4-1.89-6.42-2.9-1.52-.64-3.14-1.25-4.82-1.94s-3.13-1.36-4.8-2c-2.37-1-4.8-1.89-7.49-2.71a69.55,69.55,0,0,0-7.93-2A54.27,54.27,0,0,1,700,681a44.65,44.65,0,0,1,5.64.37,39.65,39.65,0,0,1,5.58,1.1,28,28,0,0,1,3.58,1.26,35.22,35.22,0,0,1,5,2.69,34.43,34.43,0,0,1,3.09,2.2,42.7,42.7,0,0,1,9.52,10.22Z"/><path class="cls-9" d="M730.57,682.84a58.92,58.92,0,0,0-6.92-2.66c-1.63-.53-3.47-1-5.56-1.6-1.69-.49-3.53-.94-5.48-1.52-.85-.26-1.7-.58-2.58-.89l-3.9-1.39a80,80,0,0,0-10.22-3,54.73,54.73,0,0,1,6.79-.91,39.7,39.7,0,0,1,4.62,0,35.06,35.06,0,0,1,4.6.48,22.93,22.93,0,0,1,3,.75,30.3,30.3,0,0,1,4.26,1.81,28.34,28.34,0,0,1,2.69,1.53,37.52,37.52,0,0,1,8.71,7.45Z"/><path class="cls-9" d="M727.23,669.42a97.28,97.28,0,0,0-10.68-2.08c-.9-.13-1.83-.26-2.81-.43-1.31-.23-2.7-.44-4.16-.74-.89-.19-1.8-.42-2.74-.67-1.32-.36-2.66-.8-4.09-1.22s-2.7-.8-4.15-1.21c-2.07-.6-4.09-1.21-6.37-1.74,2.33-.43,4.45-.77,6.63-1,1.56-.14,3-.2,4.48-.21a43.21,43.21,0,0,1,4.48.2,24,24,0,0,1,2.94.5A34.57,34.57,0,0,1,715,662.2c1,.38,1.9.78,2.75,1.2a43.91,43.91,0,0,1,9.45,6Z"/><path class="cls-9" d="M721.61,655.4s-3.26-.63-8.31-1.34c-.7-.1-1.39-.2-2.14-.35-1-.19-2.06-.36-3.14-.63-.67-.17-1.34-.38-2-.62-1-.34-2-.74-3-1.14a50.32,50.32,0,0,0-7.91-2.65,32.27,32.27,0,0,1,5.1-1.2,27.51,27.51,0,0,1,3.5-.28,25.27,25.27,0,0,1,3.5.16,15.21,15.21,0,0,1,2.27.46,21.58,21.58,0,0,1,3.22,1.27,20.62,20.62,0,0,1,2,1.09,40.33,40.33,0,0,1,6.9,5.23Z"/><path class="cls-9" d="M713.21,641.24a24.59,24.59,0,0,0-6.35.3c-.52.07-1,.16-1.6.22s-1.51.19-2.36.22a14.27,14.27,0,0,1-1.58-.06c-.79-.06-1.57-.2-2.44-.33-2-.3-4-.74-6.51-1a38,38,0,0,1,3.52-2.11,19.88,19.88,0,0,1,2.51-1.09,15.17,15.17,0,0,1,2.64-.76,8.79,8.79,0,0,1,1.82-.16,12.68,12.68,0,0,1,2.73.37,13.48,13.48,0,0,1,1.79.55,17.66,17.66,0,0,1,3.15,1.58,10.69,10.69,0,0,1,2.68,2.22Z"/><path class="cls-9" d="M705.39,631.42a22.87,22.87,0,0,0-5.42.34c-.43.07-.84.17-1.32.22s-1.24.19-1.93.2a13.47,13.47,0,0,1-1.63-.12c-.84-.1-1.62-.29-2.56-.44-1.54-.25-2.83-.6-4.67-.77a26.82,26.82,0,0,1,2.87-2.13,15.81,15.81,0,0,1,2.12-1.09,11.73,11.73,0,0,1,2.28-.76,7.22,7.22,0,0,1,1.58-.15,7.35,7.35,0,0,1,1.59.21,11.48,11.48,0,0,1,2.32.76,13,13,0,0,1,2.64,1.59,9.46,9.46,0,0,1,2.13,2.14Z"/><path class="cls-9" d="M695.41,621.52s-1.24-.58-5.21-.25c-.42,0-.83.11-1.31.12s-1.23.09-1.94.06a8.81,8.81,0,0,1-1.3-.18c-.65-.13-1.27-.34-2-.55-1.7-.51-3.16-1.14-5.34-1.71,1.18-.68,2-1.16,3.09-1.66a17.27,17.27,0,0,1,2.18-.81,12,12,0,0,1,2.26-.52,7.22,7.22,0,0,1,1.54,0,7.8,7.8,0,0,1,1.53.33,10.68,10.68,0,0,1,2.22.91,11,11,0,0,1,2.51,1.81,5.84,5.84,0,0,1,1.76,2.46Z"/><path class="cls-9" d="M698.76,624.59a48.78,48.78,0,0,0-1-5.66c-.11-.46-.23-.89-.31-1.39s-.27-1.31-.33-2a10.26,10.26,0,0,1,0-1.36c0-.71.14-1.37.22-2.13a40.4,40.4,0,0,0,.48-5.77,22,22,0,0,1,2.38,2.84,15.75,15.75,0,0,1,1.25,2.15,12.8,12.8,0,0,1,.89,2.33,7.65,7.65,0,0,1,.24,1.62,10.67,10.67,0,0,1-.24,2.45,11.22,11.22,0,0,1-.45,1.6,17.78,17.78,0,0,1-1.32,2.84,13.6,13.6,0,0,1-1.78,2.52Z"/><path class="cls-9" d="M708.12,634.59s.25-2.87.14-7.59c0-.63,0-1.25,0-1.94,0-.9,0-1.84.07-2.84a17.54,17.54,0,0,1,.24-1.86c.15-.93.36-1.84.56-2.82a48.47,48.47,0,0,0,1.19-7.49,31.39,31.39,0,0,1,2.07,4.31,21.43,21.43,0,0,1,.92,3.07,19.06,19.06,0,0,1,.5,3.18,11.47,11.47,0,0,1,0,2.12,17.07,17.07,0,0,1-.69,3.11,15.67,15.67,0,0,1-.75,2,27.38,27.38,0,0,1-4.18,6.75Z"/><path class="cls-9" d="M715.19,644.15a72.89,72.89,0,0,0,1.45-7.38c.21-1.32.37-2.74.57-4.31.12-.9.2-1.84.37-2.81.2-1.19.46-2.41.73-3.67.39-1.84.86-3.64,1.16-5.64a43,43,0,0,0,.63-6.23,31.52,31.52,0,0,1,2.18,5.44,25.72,25.72,0,0,1,.8,3.88,23.4,23.4,0,0,1,.25,4A16.16,16.16,0,0,1,723,630a22.24,22.24,0,0,1-1.12,3.78,23.14,23.14,0,0,1-1.09,2.4,34,34,0,0,1-5.64,7.94Z"/><path class="cls-9" d="M724.36,661.51a39.62,39.62,0,0,0,4.08-8.57c.62-1.73,1.16-3.67,1.74-5.87.36-1.38.67-2.85,1.05-4.39s.77-2.85,1.14-4.4c.51-2.15,1-4.38,1.39-6.86a64.23,64.23,0,0,0,.76-7.19,49,49,0,0,1,2,7.14,39,39,0,0,1,.58,5,32.48,32.48,0,0,1-.11,5.06,21.58,21.58,0,0,1-.62,3.33,27.71,27.71,0,0,1-1.79,4.76,26.78,26.78,0,0,1-1.65,3,34.26,34.26,0,0,1-4.72,5.88,22.06,22.06,0,0,1-3.82,3.15Z"/><path class="cls-9" d="M728.87,675.1s2.45-3,5.62-7.82c1-1.59,2.16-3.35,3.32-5.26.43-.71.87-1.44,1.33-2.17s.91-1.4,1.4-2.11c.94-1.38,1.92-2.74,2.85-4.21a37.2,37.2,0,0,0,4.89-10.12,30.25,30.25,0,0,1,0,7.12,30.83,30.83,0,0,1-1,4.71,29.5,29.5,0,0,1-1.72,4.52,22.38,22.38,0,0,1-1.59,2.79,32.05,32.05,0,0,1-3,3.71,31.25,31.25,0,0,1-2.29,2.2,48.49,48.49,0,0,1-9.72,6.64Z"/><path class="cls-9" d="M731.5,688.79a107.84,107.84,0,0,0,8.72-8.82c1.65-1.86,3.4-3.93,5.19-6.2.67-.85,1.35-1.73,2.05-2.61s1.36-1.72,2.07-2.58c1.36-1.69,2.74-3.41,4.05-5.25a44.92,44.92,0,0,0,6.75-12.86,38.45,38.45,0,0,1-1.11,9,41.41,41.41,0,0,1-4.82,11.36,30.14,30.14,0,0,1-2.4,3.34,42.83,42.83,0,0,1-4.28,4.42c-1,.94-2.09,1.8-3.15,2.59a62.82,62.82,0,0,1-13.07,7.57Z"/><path class="cls-9" d="M732.16,706.57s4.76-1.56,11.06-4.28c2.21-1,4.57-2,7-3.24l2.83-1.4,2.82-1.36c1.9-.9,3.76-1.81,5.54-2.86,4.08-2.43,7.6-5.28,9.66-9.42a21.61,21.61,0,0,1-5,10.55,29.81,29.81,0,0,1-5.95,5.34,30.51,30.51,0,0,1-5.18,2.88,37.09,37.09,0,0,1-5.56,1.87A54.73,54.73,0,0,1,742.5,706a64.41,64.41,0,0,1-10.34.6Z"/><path class="cls-9" d="M730.62,728.38a90.89,90.89,0,0,0,11-.19q3.3-.24,7.07-.79c.94-.13,1.9-.29,2.87-.43l2.84-.41c1.89-.27,3.78-.55,5.68-1a29.36,29.36,0,0,0,11.64-5.14,26.09,26.09,0,0,1-5.48,6,27.13,27.13,0,0,1-4.69,3,29.24,29.24,0,0,1-5.2,2.08,23.07,23.07,0,0,1-3.64.75,34.91,34.91,0,0,1-9.15-.18,51.72,51.72,0,0,1-12.94-3.75Z"/><path class="cls-9" d="M726.9,746.12s3.7.18,9.21.15c1.68,0,3.46,0,5.4-.07,1.15,0,2.33-.05,3.54,0,1.53.05,3.1.14,4.68.24,2.37.15,4.7.36,7.08.33a36.15,36.15,0,0,0,7.55-.65,30.57,30.57,0,0,1-6.28,3.32,34.24,34.24,0,0,1-4.59,1.39,33.16,33.16,0,0,1-4.72.77,24.08,24.08,0,0,1-3.17.07,34.93,34.93,0,0,1-4.69-.59c-1.07-.2-2.09-.44-3.07-.72a61.13,61.13,0,0,1-10.94-4.22Z"/><path class="cls-9" d="M731.83,718s5.39-1.11,12.58-2.69c2.59-.57,5.35-1.24,8.21-1.79,1.81-.35,3.65-.6,5.46-.88,2.87-.43,5.61-.8,8.14-1.44,3.24-.82,6-1.78,8-3.42-1.7,2.73-4.66,5.08-8.47,7.08a39.06,39.06,0,0,1-6.86,2.8,37.33,37.33,0,0,1-5.35,1.21,46.21,46.21,0,0,1-5.44.41c-2.33.06-4.52,0-6.53-.15a88.07,88.07,0,0,1-9.71-1.13Z"/><path class="cls-9" d="M732.41,697.69s3.13-2.08,7.55-5.23c1.37-1,2.82-2,4.38-3.13.95-.67,1.89-1.37,2.9-2,1.3-.83,2.65-1.63,4-2.42,2.08-1.24,4.11-2.37,5.94-3.71a21.8,21.8,0,0,0,5.41-5.11,19.53,19.53,0,0,1-2.82,6.53,28.23,28.23,0,0,1-3,3.79,31.74,31.74,0,0,1-3.45,3.3,22.93,22.93,0,0,1-2.56,1.83,36,36,0,0,1-4.18,2.15c-1,.44-1.94.81-2.9,1.14a70.3,70.3,0,0,1-11.29,2.88Z"/><path class="cls-9" d="M729,737.39s4.78.13,11.55-.11c2.34-.09,4.86-.21,7.54-.37l3.09-.17c1,0,2.05-.07,3.08-.09,2.06,0,4.11,0,6.16-.15,4.72-.26,9.19-.84,13.11-2.7a27.54,27.54,0,0,1-7,4.77,36.65,36.65,0,0,1-5.36,2,40.71,40.71,0,0,1-5.59,1.25,30.25,30.25,0,0,1-3.78.31,43.48,43.48,0,0,1-5.65-.31c-1.29-.14-2.52-.33-3.71-.57A77.41,77.41,0,0,1,729,737.39Z"/><path class="cls-9" d="M724.77,755s5,1.32,11.9,2.74c2.44.5,5.08,1,7.85,1.5,1.06.19,2.14.37,3.23.58s2.13.42,3.19.65c2.15.46,4.27.92,6.38,1.24,5.09.79,9.85,1,13.94-.71a23,23,0,0,1-11.07,4.56,36.22,36.22,0,0,1-8.1.35,37.44,37.44,0,0,1-6-.87,44.93,44.93,0,0,1-5.69-1.8,66.63,66.63,0,0,1-6.51-2.89,78.37,78.37,0,0,1-9.17-5.35Z"/><path class="cls-9" d="M719.86,768.18s5,1.81,12.25,3.84c2.51.7,5.23,1.43,8.12,2.13l3.35.84c1.1.28,2.21.58,3.32.88,2.22.62,4.42,1.23,6.65,1.72,5.15,1.12,10.14,1.72,14.82.65a27.38,27.38,0,0,1-8.91,3,37,37,0,0,1-6.36.47,41,41,0,0,1-6.34-.48,33.36,33.36,0,0,1-4.11-.88,49.23,49.23,0,0,1-5.92-2.11c-1.32-.55-2.57-1.14-3.77-1.77a87.39,87.39,0,0,1-13.1-8.32Z"/><path class="cls-9" d="M713.81,782.8a88.9,88.9,0,0,0,10.8,4.67q3.3,1.2,7.28,2.39l3,.88,3,.92c2,.62,3.94,1.28,6,1.8,1.75.44,3.5.85,5.35,1.17a49.26,49.26,0,0,0,8.36.81,43.31,43.31,0,0,1-8.43,1.91,41.3,41.3,0,0,1-5.85.26,39.84,39.84,0,0,1-5.86-.58,28.92,28.92,0,0,1-3.8-.95,38.66,38.66,0,0,1-5.4-2.25,37.27,37.27,0,0,1-3.38-1.9,54.18,54.18,0,0,1-11.12-9.13Z"/><path class="cls-9" d="M707.36,796.06s4.08,2,10.42,4.41c2.11.8,4.43,1.6,7,2.43.94.31,1.9.61,2.88,1s1.88.65,2.84,1c1.86.68,3.73,1.42,5.7,2,1.66.52,3.31,1,5,1.46a47.14,47.14,0,0,0,7.95,1.35,41,41,0,0,1-8.19,1.36,42,42,0,0,1-11.17-.89,29.26,29.26,0,0,1-3.59-1.06,40,40,0,0,1-5.07-2.33c-1.14-.61-2.19-1.24-3.19-1.91a59.59,59.59,0,0,1-10.57-8.83Z"/><path class="cls-9" d="M701,807.47s3.27,2.23,8.15,5c1.68.95,3.49,1.92,5.44,2.93l2.23,1.17c.72.4-7.86.79-8.58.06a51.92,51.92,0,0,1-7.24-9.16Z"/><path class="cls-2" d="M769.07,817.76s5.14,2.21,15.14-.24c25.6-6.27,72.19-21,79.1-46.57,8.16-30.16-50.13,13-46.57-7.82s57.78-48.68,51.54-65.94-43.93,19.34-51,10.55,34.72-51.21,22.92-72.15-20.63,15-34.58,42.37-29.29-10.51-46.42-6.22c-23.35,5.86,21.07,54.36,9,73.46-11.14,17.61-39.85-54.27-46.22-6.83-6,44.4,22,68.52,36.8,78a12.52,12.52,0,0,0,10.26,1.41Z"/><path class="cls-9" d="M777.42,797a250.72,250.72,0,0,0,34.83-6.3c8.45-2.25,16.75-5.18,22.78-8.94a.36.36,0,0,1,.5.09.38.38,0,0,1-.14.51c-6,3.91-14.41,7-22.93,9.47a253.6,253.6,0,0,1-35.64,7.06c-2.41,7.68-4.33,13.87-5.55,17.82-.17.55-2,.31-1.85-.08,1.63-5.16,4.57-14.38,8.27-25.84a196.73,196.73,0,0,1-26.22-25c-5.46-6.4-10.41-13.42-13.26-20.29a.39.39,0,0,1,.21-.48.33.33,0,0,1,.48.15c2.94,6.74,8,13.58,13.51,19.81a195.66,195.66,0,0,0,25.92,23.8c5.32-16.47,12.1-37.16,18.83-57,.31-.91.62-1.81.92-2.72a.83.83,0,0,1-.32-.27l-28.21-40.62a.38.38,0,0,1,.11-.51.36.36,0,0,1,.51.06L798.81,727c7.54-22.08,14.86-42.55,19.84-54.21a.41.41,0,0,1,.49-.24.33.33,0,0,1,.19.45c-5.25,12.53-13.11,35.2-21,59.12-.85,2.56-1.7,5.14-2.54,7.71,4.27-2,21-9.86,33.65-17.2,6.15-3.57,11.31-7,13.54-9.56a.38.38,0,0,1,.52-.08.35.35,0,0,1,0,.51c-2.21,2.64-7.4,6.26-13.59,10C815.4,732.32,795.38,742,795.38,742a1,1,0,0,1-.36.1c-6.56,20-12.91,40-17.6,55Z"/><path class="cls-8" d="M956.89,818c0-2.19-1-4-2.17-4H41.87c-1.2,0-2.17,1.77-2.17,4h0c0,2.19,1,4,2.17,4H954.72c1.2,0,2.17-1.77,2.17-4Z"/></g></g></svg>