<svg id="visual" viewBox="0 0 900 100" width="900" height="100" xmlns="http://www.w3.org/2000/svg" xmlns:xlink="http://www.w3.org/1999/xlink" version="1.1"><path d="M0 42L15 49.8C30 57.7 60 73.3 90 80C120 86.7 150 84.3 180 74.7C210 65 240 48 270 36.3C300 24.7 330 18.3 360 22.2C390 26 420 40 450 44C480 48 510 42 540 45.3C570 48.7 600 61.3 630 64C660 66.7 690 59.3 720 48.8C750 38.3 780 24.7 810 26.3C840 28 870 45 885 53.5L900 62L900 0L885 0C870 0 840 0 810 0C780 0 750 0 720 0C690 0 660 0 630 0C600 0 570 0 540 0C510 0 480 0 450 0C420 0 390 0 360 0C330 0 300 0 270 0C240 0 210 0 180 0C150 0 120 0 90 0C60 0 30 0 15 0L0 0Z" fill="#0f162c" stroke-linecap="round" stroke-linejoin="miter"></path></svg>