<svg xmlns="http://www.w3.org/2000/svg" xmlns:xlink="http://www.w3.org/1999/xlink" viewBox="0 0 3330.58 3473.53"><defs><style>.cls-1{fill:none;}.cls-2{isolation:isolate;}.cls-3{fill:url(#linear-gradient);}.cls-26,.cls-34,.cls-4,.cls-6{fill:#fff;}.cls-11,.cls-16,.cls-17,.cls-28,.cls-4,.cls-44,.cls-46,.cls-47,.cls-51,.cls-58,.cls-61,.cls-8{opacity:0.3;}.cls-22,.cls-34,.cls-4,.cls-6{mix-blend-mode:soft-light;}.cls-5{fill:url(#linear-gradient-2);}.cls-6{opacity:0.5;}.cls-7{fill:url(#linear-gradient-3);}.cls-11,.cls-16,.cls-28,.cls-44,.cls-46,.cls-47,.cls-51,.cls-58,.cls-61,.cls-8{mix-blend-mode:multiply;}.cls-8{fill:url(#linear-gradient-4);}.cls-9{fill:url(#linear-gradient-5);}.cls-10{fill:url(#linear-gradient-6);}.cls-11{fill:url(#linear-gradient-7);}.cls-12{fill:url(#linear-gradient-8);}.cls-13{fill:url(#linear-gradient-9);}.cls-14{clip-path:url(#clip-path);}.cls-15{fill:url(#linear-gradient-10);}.cls-16{fill:url(#linear-gradient-11);}.cls-17{fill:url(#linear-gradient-12);}.cls-18{fill:url(#linear-gradient-13);}.cls-19{fill:url(#linear-gradient-14);}.cls-20{fill:url(#linear-gradient-15);}.cls-21{fill:url(#linear-gradient-16);}.cls-22{fill:#f4f7fa;}.cls-23{fill:url(#linear-gradient-17);}.cls-24{fill:url(#linear-gradient-18);}.cls-25{fill:url(#linear-gradient-19);}.cls-27{fill:url(#linear-gradient-20);}.cls-28{fill:url(#linear-gradient-21);}.cls-29{fill:url(#linear-gradient-22);}.cls-30{fill:#d8dee8;}.cls-31{fill:url(#linear-gradient-23);}.cls-32{fill:url(#linear-gradient-24);}.cls-33{fill:url(#linear-gradient-25);}.cls-34{opacity:0.48;}.cls-35{fill:url(#linear-gradient-26);}.cls-36{fill:url(#linear-gradient-27);}.cls-37{fill:url(#linear-gradient-28);}.cls-38{fill:url(#linear-gradient-29);}.cls-39{fill:url(#linear-gradient-30);}.cls-40{fill:url(#linear-gradient-31);}.cls-41{fill:url(#linear-gradient-32);}.cls-42{fill:url(#linear-gradient-33);}.cls-43{fill:url(#linear-gradient-34);}.cls-45{fill:url(#linear-gradient-35);}.cls-46{fill:url(#linear-gradient-36);}.cls-47{fill:url(#linear-gradient-37);}.cls-48{fill:url(#linear-gradient-38);}.cls-49{fill:url(#linear-gradient-39);}.cls-50{fill:url(#linear-gradient-40);}.cls-51{fill:url(#linear-gradient-41);}.cls-52{fill:url(#linear-gradient-42);}.cls-53{fill:url(#linear-gradient-43);}.cls-54{fill:url(#linear-gradient-44);}.cls-55{fill:url(#linear-gradient-45);}.cls-56{fill:url(#linear-gradient-46);}.cls-57{fill:url(#linear-gradient-47);}.cls-58{fill:url(#linear-gradient-48);}.cls-59{fill:url(#linear-gradient-49);}.cls-60{fill:url(#linear-gradient-50);}.cls-61{fill:url(#linear-gradient-51);}.cls-62{fill:url(#linear-gradient-52);}.cls-63{fill:url(#linear-gradient-53);}</style><linearGradient id="linear-gradient" x1="-3907.58" y1="963.74" x2="-3936.48" y2="2257.25" gradientTransform="matrix(-0.82, -0.23, -0.25, 0.89, -265.25, 332.25)" gradientUnits="userSpaceOnUse"><stop offset="0" stop-color="#aa80f9"/><stop offset="1" stop-color="#6165d7"/></linearGradient><linearGradient id="linear-gradient-2" x1="-4000.3" y1="1769.16" x2="-4520.6" y2="851.4" gradientTransform="matrix(-0.82, -0.23, -0.25, 0.89, -265.25, 332.25)" gradientUnits="userSpaceOnUse"><stop offset="0" stop-color="#e38ddd"/><stop offset="1" stop-color="#9571f6"/></linearGradient><linearGradient id="linear-gradient-3" x1="23.15" y1="1230.63" x2="-345.84" y2="1665.8" gradientTransform="translate(958.83 -129.13) rotate(-18.13)" gradientUnits="userSpaceOnUse"><stop offset="0" stop-color="#ffc444"/><stop offset="1" stop-color="#f36f56"/></linearGradient><linearGradient id="linear-gradient-4" x1="-22.3" y1="1192.09" x2="-391.29" y2="1627.26" xlink:href="#linear-gradient-3"/><linearGradient id="linear-gradient-5" x1="-500.05" y1="921.46" x2="-797.89" y2="1272.71" gradientTransform="matrix(-0.95, 0.31, 0.31, 0.95, -82.89, 212.24)" xlink:href="#linear-gradient-2"/><linearGradient id="linear-gradient-6" x1="193.54" y1="432.16" x2="534.06" y2="2315.67" gradientTransform="translate(958.83 -129.13) rotate(-18.13)" xlink:href="#linear-gradient"/><linearGradient id="linear-gradient-7" x1="77.01" y1="435.57" x2="421.78" y2="2342.58" gradientTransform="translate(958.83 -129.13) rotate(-18.13)" xlink:href="#linear-gradient"/><linearGradient id="linear-gradient-8" x1="-1725.55" y1="697.48" x2="-2403.86" y2="1497.45" gradientTransform="matrix(-1, 0, 0, 1, 156.09, -484.75)" xlink:href="#linear-gradient-2"/><linearGradient id="linear-gradient-9" x1="-1678.04" y1="1087.61" x2="-2331.94" y2="1104.27" gradientTransform="matrix(-0.95, 0.31, 0.31, 0.95, -82.89, 212.24)" gradientUnits="userSpaceOnUse"><stop offset="0" stop-color="#311944"/><stop offset="1" stop-color="#893976"/></linearGradient><clipPath id="clip-path"><path class="cls-1" d="M2412.16,1197.22c34-11.14,62.77-36.36,85.46-75,23.1-39.28,38.9-90.34,47-151.75,17-129.1-2.3-287.55-54.24-446.18S2360.21,226.56,2270.18,132.5c-42.84-44.75-85.78-76.57-127.63-94.58-41.13-17.7-79.23-21-113.25-9.89s-62.78,36.36-85.47,75c-23.09,39.28-38.89,90.33-47,151.75-17,129.1,2.3,287.55,54.24,446.18s130.13,297.78,220.17,391.84c42.83,44.75,85.77,76.56,127.63,94.58C2340,1205,2378.14,1208.36,2412.16,1197.22Z"/></clipPath><linearGradient id="linear-gradient-10" x1="649.38" y1="491.66" x2="871.72" y2="1721.44" xlink:href="#linear-gradient-3"/><linearGradient id="linear-gradient-11" x1="777.59" y1="650.09" x2="941.64" y2="1557.47" xlink:href="#linear-gradient-3"/><linearGradient id="linear-gradient-12" x1="343.44" y1="1036.76" x2="848.1" y2="1482.59" gradientTransform="matrix(-0.95, 0.31, 0.31, 0.95, 2625.8, -674.73)" xlink:href="#linear-gradient-2"/><linearGradient id="linear-gradient-13" x1="151.44" y1="763.84" x2="567.45" y2="979.46" gradientTransform="matrix(-0.95, 0.31, 0.31, 0.95, 2625.8, -674.73)" gradientUnits="userSpaceOnUse"><stop offset="0" stop-color="#ff9085"/><stop offset="1" stop-color="#fb6fbb"/></linearGradient><linearGradient id="linear-gradient-14" x1="224" y1="980.67" x2="707.22" y2="1407.56" gradientTransform="matrix(-0.95, 0.31, 0.31, 0.95, 2625.8, -674.73)" xlink:href="#linear-gradient-2"/><linearGradient id="linear-gradient-15" x1="60.94" y1="909.58" x2="520.22" y2="1147.62" xlink:href="#linear-gradient-13"/><linearGradient id="linear-gradient-16" x1="307.63" y1="1149.09" x2="895.32" y2="1668.27" gradientTransform="matrix(-0.95, 0.31, 0.31, 0.95, 2625.8, -674.73)" xlink:href="#linear-gradient"/><linearGradient id="linear-gradient-17" x1="1427.07" y1="3202.58" x2="1195.57" y2="3299.81" gradientUnits="userSpaceOnUse"><stop offset="0" stop-color="#40447e"/><stop offset="1" stop-color="#3c3b6b"/></linearGradient><linearGradient id="linear-gradient-18" x1="1117.94" y1="2182.26" x2="866.7" y2="2287.78" xlink:href="#linear-gradient-17"/><linearGradient id="linear-gradient-19" x1="35.05" y1="2239.38" x2="2363.37" y2="2239.38" xlink:href="#linear-gradient-17"/><linearGradient id="linear-gradient-20" x1="35.05" y1="3100.38" x2="3330.58" y2="3100.38" xlink:href="#linear-gradient-17"/><linearGradient id="linear-gradient-21" x1="358.23" y1="3073.38" x2="2772.85" y2="3073.38" xlink:href="#linear-gradient-17"/><linearGradient id="linear-gradient-22" x1="1753.26" y1="1038.85" x2="517.23" y2="2365.01" gradientTransform="matrix(1, 0, 0, 1, 0, 0)" xlink:href="#linear-gradient"/><linearGradient id="linear-gradient-23" x1="225.19" y1="1612.43" x2="284.9" y2="1612.43" gradientUnits="userSpaceOnUse"><stop offset="0" stop-color="#444b8c"/><stop offset="1" stop-color="#26264f"/></linearGradient><linearGradient id="linear-gradient-24" x1="333.57" y1="1611.8" x2="392.74" y2="1611.8" xlink:href="#linear-gradient-23"/><linearGradient id="linear-gradient-25" x1="440.97" y1="1611.18" x2="499.59" y2="1611.18" xlink:href="#linear-gradient-23"/><linearGradient id="linear-gradient-26" x1="2142.81" y1="1866.57" x2="1112.63" y2="3605" gradientUnits="userSpaceOnUse"><stop offset="0" stop-color="#ab316d"/><stop offset="1" stop-color="#792d3d"/></linearGradient><linearGradient id="linear-gradient-27" x1="2542.5" y1="1873.45" x2="2574.61" y2="1818.88" xlink:href="#linear-gradient-26"/><linearGradient id="linear-gradient-28" x1="3251.61" y1="1275.71" x2="3213.09" y2="1609.58" xlink:href="#linear-gradient-26"/><linearGradient id="linear-gradient-29" x1="3269.3" y1="1577.86" x2="3346.34" y2="1012.85" xlink:href="#linear-gradient-26"/><linearGradient id="linear-gradient-30" x1="1987.36" y1="1946.24" x2="1611.76" y2="2636.45" gradientTransform="matrix(1, 0, 0, 1, 0, 0)" xlink:href="#linear-gradient-13"/><linearGradient id="linear-gradient-31" x1="822.87" y1="2572.08" x2="122.73" y2="3653.25" gradientTransform="matrix(1, 0, 0, 1, 0, 0)" xlink:href="#linear-gradient-13"/><linearGradient id="linear-gradient-32" x1="1704.85" y1="2546.34" x2="236.14" y2="2806.37" gradientTransform="matrix(1, 0, 0, 1, 0, 0)" xlink:href="#linear-gradient-13"/><linearGradient id="linear-gradient-33" x1="2350.11" y1="1835.25" x2="2321.21" y2="2117.75" gradientTransform="matrix(1, 0, 0, 1, 0, 0)" xlink:href="#linear-gradient-13"/><linearGradient id="linear-gradient-34" x1="2730.36" y1="1886.33" x2="3333.9" y2="1119.07" gradientTransform="matrix(1, 0, 0, 1, 0, 0)" xlink:href="#linear-gradient-13"/><linearGradient id="linear-gradient-35" x1="1958.51" y1="1930.54" x2="1582.91" y2="2620.75" gradientTransform="matrix(1, 0, 0, 1, 0, 0)" xlink:href="#linear-gradient-13"/><linearGradient id="linear-gradient-36" x1="2416.63" y1="1874.07" x2="2311.51" y2="2067.23" gradientTransform="matrix(1, 0, 0, 1, 0, 0)" xlink:href="#linear-gradient-13"/><linearGradient id="linear-gradient-37" x1="793.18" y1="2552.85" x2="93.03" y2="3634.02" gradientTransform="matrix(1, 0, 0, 1, 0, 0)" xlink:href="#linear-gradient-13"/><linearGradient id="linear-gradient-38" x1="-408.88" y1="2300.06" x2="-176.24" y2="2300.06" gradientTransform="matrix(-1, 0, 0, 1, 1029.18, 0)" xlink:href="#linear-gradient-3"/><linearGradient id="linear-gradient-39" x1="192.1" y1="2736.85" x2="643.22" y2="2736.85" gradientTransform="matrix(-1, 0, 0, 1, 2030.77, 0)" xlink:href="#linear-gradient"/><linearGradient id="linear-gradient-40" x1="2530.64" y1="2959.42" x2="2550.14" y2="3310.41" gradientTransform="matrix(0.96, 0.29, -0.29, 0.96, -105.91, -333.04)" xlink:href="#linear-gradient-2"/><linearGradient id="linear-gradient-41" x1="404.15" y1="2753.82" x2="855.28" y2="2753.82" gradientTransform="matrix(-1, 0, 0, 1, 2030.77, 0)" xlink:href="#linear-gradient"/><linearGradient id="linear-gradient-42" x1="4541.45" y1="3343.05" x2="4570.79" y2="3343.05" gradientTransform="matrix(-1, 0, 0, 1, 5967.74, 0)" gradientUnits="userSpaceOnUse"><stop offset="0" stop-color="#311944"/><stop offset="1" stop-color="#a03976"/></linearGradient><linearGradient id="linear-gradient-43" x1="432.98" y1="2456.75" x2="837.47" y2="2948.22" gradientTransform="matrix(-1, 0, 0, 1, 2030.77, 0)" xlink:href="#linear-gradient"/><linearGradient id="linear-gradient-44" x1="1557.99" y1="1846.12" x2="1023.02" y2="2294.1" gradientTransform="matrix(-1, -0.05, -0.05, 1, 2119.23, 15.84)" xlink:href="#linear-gradient-23"/><linearGradient id="linear-gradient-45" x1="-1674.22" y1="2471.32" x2="-1239.76" y2="2080.71" gradientTransform="translate(2574.76)" xlink:href="#linear-gradient-3"/><linearGradient id="linear-gradient-46" x1="4789.47" y1="2022.94" x2="4942.65" y2="2022.94" xlink:href="#linear-gradient-42"/><linearGradient id="linear-gradient-47" x1="4808.87" y1="2419.96" x2="4805.56" y2="2117.66" xlink:href="#linear-gradient-42"/><linearGradient id="linear-gradient-48" x1="-1659.94" y1="2487.19" x2="-1225.49" y2="2096.58" gradientTransform="translate(2574.76)" xlink:href="#linear-gradient-3"/><linearGradient id="linear-gradient-49" x1="-1516.77" y1="2549.2" x2="-1121.62" y2="2549.2" gradientTransform="translate(2574.76)" xlink:href="#linear-gradient-23"/><linearGradient id="linear-gradient-50" x1="-1328.88" y1="2445.42" x2="-786.5" y2="2445.42" gradientTransform="translate(2574.76)" xlink:href="#linear-gradient-23"/><linearGradient id="linear-gradient-51" x1="2212.29" y1="2301.53" x2="2471.36" y2="2558.53" gradientTransform="matrix(-1, 0, 0, 1, 3873.99, 0)" xlink:href="#linear-gradient-23"/><linearGradient id="linear-gradient-52" x1="-1494.19" y1="2468.4" x2="-1825.96" y2="2141.93" gradientTransform="translate(2574.76)" xlink:href="#linear-gradient-3"/><linearGradient id="linear-gradient-53" x1="1071.85" y1="2428.76" x2="1179.15" y2="2503.87" gradientTransform="matrix(1, 0, 0, 1, 0, 0)" xlink:href="#linear-gradient-42"/></defs><g class="cls-2"><g id="Layer_2" data-name="Layer 2"><g id="Illustration"><path class="cls-3" d="M2299.29,2924c-47.52-31.28,67.62-312.49,171.43-498.45,85.26-152.72,185.57-281.84,214.54-266.93,22.17,11.42-5.61,103,14.5,110.35,26.94,9.79,83.62-152.21,138.71-146.77,33.94,3.35,63.28,69.87,64.37,131,2,110.3-88.28,183.36-284.66,374.95C2366.54,2873.71,2323.75,2940.12,2299.29,2924Z"/><path class="cls-4" d="M2380.31,2742.29c26.47-79.33,24.19-129.94,72.34-181.23,42.06-44.8,68-32,117.64-83.8,56.17-58.65,36.53-89.35,83.59-134.78,65.33-63.07,128.19-28,183.6-84.7,17.51-17.92,35.57-46.34,44.38-94,12.34,25,20.42,57.91,21,89.43,2,110.3-88.28,183.36-284.66,374.95-251.64,245.53-294.43,311.94-318.89,295.84-3.71-2.44-6.44-6.42-8.25-11.76C2338.74,2847.4,2364.91,2788.47,2380.31,2742.29Z"/><path class="cls-5" d="M2208.36,3067.93c101.53-226.88,216.59-389.1,302.94-494.77,194.26-237.77,288.82-245.27,330.3-242.1,55.29,4.22,126.28,35.78,137.2,88.74,20.42,99.08-178.48,229.24-156.77,266.66,11.24,19.36,66.2-12.58,88.38,12.77,30.34,34.66-28.5,144.59-44.33,171.09C2743.75,3075.17,2338.89,3072.6,2208.36,3067.93Z"/><path class="cls-6" d="M2404.12,2894.5c91.08-58.39,118.29-52.54,167.18-106.56,90.17-99.63,57.15-185.27,140.72-249.11,59.57-45.52,94.22-15.63,177.83-63.75,34-19.59,61.92-43.9,84.65-68.88a71.26,71.26,0,0,1,4.3,13.6c20.42,99.08-178.48,229.24-156.77,266.66,11.24,19.36,66.2-12.58,88.38,12.77,30.34,34.66-28.5,144.59-44.33,171.09-122.33,204.85-527.19,202.28-657.72,197.61,1.86-4.14,3.72-8.21,5.58-12.3C2286.71,2976.89,2353.9,2926.7,2404.12,2894.5Z"/><path class="cls-7" d="M1513.12,1682.29c-46.23,11.93-98.39-2.76-131.25-40.92L918.43,1103.23c-42.2-49-36.58-121.94,12.75-163.3,49.67-41.66,147.66-43.84,190.66,5.56l472.36,542.7c44.54,51.17,37.51,125.37-15.47,165.34C1565.68,1663.37,1528.37,1678.35,1513.12,1682.29Z"/><path class="cls-8" d="M931.18,939.93c49.67-41.66,147.66-43.84,190.66,5.56l431.9,496.22c-44.15,2.87-92,19.59-151.61-5.83-99.15-42.32-89.6-141.3-175.91-198.41-39.45-26.11-103.25-46.31-212-23l-95.76-111.2C876.23,1054.23,881.85,981.29,931.18,939.93Z"/><path class="cls-9" d="M734.53,867.42a51.75,51.75,0,0,1,6.78-1.71l159.78-54.26,136.53,416.93L882.08,1277a52.17,52.17,0,0,1-11.64,5.52c-55,18-129.93-60.34-167.47-175S679.57,885.41,734.53,867.42Z"/><path class="cls-10" d="M901.09,811.45c-15.28,158.72,30,297.06,136.53,416.93L2356,1221.3,1985.13,47Z"/><path class="cls-11" d="M1921.37,982.76c-127.48-5.83-216.6-158.83-350.08-121.25-104.74,29.49-103,140-207.79,162.33-107.25,22.85-161.24-83.17-290.18-84.55-58.62-.63-112.74,20.76-161.36,53.44q29.94,127.89,125.66,235.65L2356,1221.3,2155.33,847.08C2060.19,954.19,1983.17,985.58,1921.37,982.76Z"/><ellipse class="cls-12" cx="2220.73" cy="612.63" rx="305.31" ry="636.74" transform="translate(-80.38 721.5) rotate(-18.13)"/><path class="cls-13" d="M2412.16,1197.22c34-11.14,62.77-36.36,85.46-75,23.1-39.28,38.9-90.34,47-151.75,17-129.1-2.3-287.55-54.24-446.18S2360.21,226.56,2270.18,132.5c-42.84-44.75-85.78-76.57-127.63-94.58-41.13-17.7-79.23-21-113.25-9.89s-62.78,36.36-85.47,75c-23.09,39.28-38.89,90.33-47,151.75-7.1,54-7.86,113.09-2.54,175.2,7.4,86.43,89.41,152.34,119.63,244.64,32.14,98.14,11.48,215.18,60.3,292.35,30.09,47.55,62.69,90,97,125.83,42.83,44.75,85.77,76.56,127.63,94.58C2340,1205,2378.14,1208.36,2412.16,1197.22Z"/><g class="cls-14"><path class="cls-15" d="M2247.21,612.75c50.2,153.31-11.46,308.28-135.93,345.6-122.55,36.75-260.08-54.7-308.89-203.75S1810.88,452,1932,411C2055.11,369.38,2197,459.44,2247.21,612.75Z"/><path class="cls-16" d="M2226.89,616.64c37.27,113.85,17.41,220.44-43.5,237.83-60,17.12-137.28-58.91-173.53-169.59S1991.36,468.29,2050.3,448C2110.16,427.43,2189.61,502.8,2226.89,616.64Z"/></g><path class="cls-17" d="M2316.74,594.29,2696,487.06c30.92-8.75,62.88,4.1,71,28.81h0c8.09,24.71-10.93,51.39-42.06,59.48l-381.88,99.28c-25.42,6.61-51.6-5.87-58.78-27.79h0C2277.09,624.92,2291.5,601.43,2316.74,594.29Z"/><path class="cls-18" d="M2228.24,375.36,2660,226c36.19-12.52,74.51,3,85,34.94h0c10.45,31.92-11.21,67.23-47.76,78.67l-436,136.54c-28.24,8.84-58.07-6.32-67-33.73h0C2185.21,415,2200.27,385,2228.24,375.36Z"/><path class="cls-19" d="M2428.39,496.92l357.9-105.22c29.09-8.56,59.36,3.88,67.22,27.88h0c7.86,24-9.83,50-39.13,57.92L2454,575.19c-24.06,6.52-49-5.58-56-26.94h0C2391,526.88,2404.5,503.94,2428.39,496.92Z"/><path class="cls-20" d="M2761.73,254.72c10.49,32,47.45,49.16,83.17,38,36.42-11.37,57.66-47.67,46.78-80.88s-49.43-49.78-85.46-37.25C2770.87,186.89,2751.23,222.67,2761.73,254.72Z"/><path class="cls-21" d="M2323.11,707.47,2781.47,595.6c38.49-9.39,78.84,9.14,89.46,41.57h0c10.62,32.42-12.83,65.54-51.68,73.82l-462.68,98.64c-29.92,6.37-61.18-11.06-70.28-38.85h0C2277.2,743,2293.48,714.7,2323.11,707.47Z"/><path class="cls-22" d="M2749.68,665.35c8,24.34,38.07,38.95,67.61,32.55,30-6.5,48-32.09,39.81-57.08s-39.28-39.37-69-32.22C2758.72,615.65,2741.71,641,2749.68,665.35Z"/><path class="cls-23" d="M3330.58,3075.9,35.05,3047.19v84.93c0,23.05,14.38,42.65,33.84,46.14l931.88,167.23a127.91,127.91,0,0,0,33.43,1.57l2260.57-190.67c20.18-1.7,35.81-21.36,35.81-45Z"/><path class="cls-24" d="M2269.71,2938.23,71.32,3093.59C32,3096.37,0,3066.83,0,3027.6V1456a71.21,71.21,0,0,1,71.32-71H2269.71c32.41,0,58.61,28.75,58.61,64.21V2869.88C2328.32,2905.34,2302.12,2935.94,2269.71,2938.23Z"/><path class="cls-25" d="M2304.76,2938.23,106.38,3093.59c-39.34,2.78-71.33-26.76-71.33-66V1456a71.21,71.21,0,0,1,71.33-71H2304.76c32.41,0,58.61,28.75,58.61,64.21V2869.88C2363.37,2905.34,2337.17,2935.94,2304.76,2938.23Z"/><path class="cls-26" d="M2236.28,2838.07,188.71,2973c-32,2.11-58-22.14-58-54.16V1542.94a58.32,58.32,0,0,1,58-58.23l2047.57-8.47c26.73-.11,48.36,23.44,48.36,52.61V2782.07C2284.64,2811.24,2263,2836.31,2236.28,2838.07Z"/><path class="cls-26" d="M1283.21,1428c0,14.6-11.32,26.47-25.29,26.51s-25.34-11.78-25.34-26.42,11.35-26.51,25.34-26.52S1283.21,1413.37,1283.21,1428Z"/><path class="cls-27" d="M2249.91,2931.18,35.05,3094.71,1000.77,3268a128.34,128.34,0,0,0,33.43,1.57L3330.58,3075.9,2285.14,2932.3A168.08,168.08,0,0,0,2249.91,2931.18Z"/><polygon class="cls-28" points="358.24 3098.83 2202.17 2960.66 2772.85 3038.41 944.8 3186.11 358.24 3098.83"/><path class="cls-29" d="M2284.89,1742.27,130.43,1769V1525.65a49.41,49.41,0,0,1,49.42-49.41H2235.47a49.42,49.42,0,0,1,49.42,49.41Z"/><polygon class="cls-30" points="1481.15 2394.31 263.06 2444.64 263.06 1869.25 1481.15 1848.82 1481.15 2394.31"/><polygon class="cls-30" points="2174.21 2365.67 1552.98 2391.34 1552.98 1847.62 2174.21 1837.2 2174.21 2365.67"/><polygon class="cls-30" points="2174.21 2757.94 263.06 2871.73 263.06 2519.78 2174.21 2434.68 2174.21 2757.94"/><path class="cls-31" d="M284.9,1612.25c0,15.32-13.34,27.84-29.82,28s-29.89-12.24-29.89-27.6,13.39-27.88,29.89-27.95S284.9,1596.93,284.9,1612.25Z"/><path class="cls-32" d="M392.74,1611.63c0,15-13.22,27.2-29.55,27.32s-29.62-12-29.62-27,13.27-27.24,29.62-27.31S392.74,1596.66,392.74,1611.63Z"/><path class="cls-33" d="M499.59,1611c0,14.91-13.1,27.08-29.28,27.19S441,1626.29,441,1611.35s13.14-27.12,29.34-27.19S499.59,1596.11,499.59,1611Z"/><path class="cls-34" d="M1775.09,2507.2c-169.47-91.19-302.73,24.36-431.33-89.64-78-69.12-39.69-120.66-135.63-223.94-106.26-114.4-175.44-75.95-282.23-178.9-135-130.19-67.49-231.47-183.8-324.94-141.1-113.39-293.26-8.44-427.58-117.18-57.93-46.91-89.72-115.09-106.31-187.61H76.78a41.72,41.72,0,0,0-41.73,41.69V3055.76c0,23,18.7,40.37,41.73,38.73l2240.52-159c11-.78,20.74-7.2,27-16.51-164-6-264.77-61-329.18-117.8C1889.12,2690,1911,2580.31,1775.09,2507.2Z"/><path class="cls-35" d="M3174.1,1696.74,2928.87,2098l-748.11-8.43L1849,2731.44l-856.6,30L547.9,3446.33a47.05,47.05,0,0,1-35.52,21.27l-58,4.9c-26.34,4.15-82.61-3.87-74-29.12l301.05-681.11L929,2651.49l832.78-31.84,315.11-631.08,765.26-8.44,256.49-389.61Z"/><polygon class="cls-36" points="2717.93 1723.72 2580.42 1660.5 2733.66 1629.3 2717.93 1723.72"/><polygon class="cls-37" points="3241.77 1590.52 3313.71 1696.74 3154.09 1696.74 3100.13 1629.3 3241.77 1590.52"/><polygon class="cls-38" points="3330.58 1222.32 3263.89 1172.9 3235.02 1573.09 3263.89 1624.53 3313.71 1696.74 3330.58 1222.32"/><polygon class="cls-39" points="1456.46 2573.39 1801.86 2667.76 2133.65 2025.85 1788.25 1931.47 1456.46 2573.39"/><path class="cls-40" d="M132.38,3398,391,3468.64a65.14,65.14,0,0,0,71.81-27.38l482.51-743.52-345.41-94.37L114.55,3351.21A31,31,0,0,0,132.38,3398Z"/><polygon class="cls-41" points="599.87 2603.37 945.26 2697.74 1801.86 2667.76 1456.46 2573.39 599.87 2603.37"/><polygon class="cls-42" points="1788.25 1931.47 2133.65 2025.85 2881.76 2034.29 2536.36 1939.91 1788.25 1931.47"/><polygon class="cls-43" points="2580.42 1660.5 2711.35 1653.61 2536.36 1939.91 2881.76 2034.29 3127.84 1631.69 3263.89 1624.53 3263.89 1172.9 2580.42 1660.5"/><g class="cls-44"><path class="cls-45" d="M1577,2550.11c99.26-79.67,189.32-31.19,252.81-96.3,54.29-55.69-1.9-101,60.19-238.37,50.56-111.82,124.71-163.31,139.65-173.35a355.19,355.19,0,0,1,54.16-29.86l-295.57-80.76-331.79,641.92,77,21.05A267,267,0,0,1,1577,2550.11Z"/></g><path class="cls-46" d="M2176.53,1948.18c-63.17,4.31-74.5,6.7-74.64,9.64-.41,8.85,101,26.19,204.66,28.89,92.22,2.4,108.33-8.82,207.06-2.41,64.25,4.17,107.29,12.16,108.35,7.22,1.26-5.92-58.47-27.74-122.8-40.93C2411.57,1932.64,2332,1937.57,2176.53,1948.18Z"/><path class="cls-47" d="M421.3,3077.4c53.43-87.14,73.13-176,166.14-219.1,71.22-33,119.67-8.79,183-50.56,49.3-32.52,76-84.23,91.16-132.86l-261.72-71.51L133.79,3321.56C294.7,3243.54,376.26,3150.88,421.3,3077.4Z"/><path class="cls-48" d="M1244.29,2058.64c29.29-8.55,68.43,45.23,101,89.94,48.68,66.89,105.56,145,90.24,238.88-15.08,92.33-94.23,164.23-116.79,153.95-19.29-8.8,17.8-70.9-10.61-153.95-22.93-67-60.93-67-86.41-132.74C1190.08,2173.18,1208.25,2069.17,1244.29,2058.64Z"/><path class="cls-49" d="M1258.78,2483.9c150.86,36.63,250.23,95.42,308.26,137,31.45,22.54,46,36.59,53.82,57.08,44.69,116.77-184.9,293.31-209.37,311.8q-16-37.38-32.06-74.76c23.72-130.21,63.22-171.07,96.27-183.21,9.25-3.4,24.77-7.05,24.47-11.42-.72-10.35-87.92,4.4-171.26-26.1-83.1-30.4-166.59-107.34-151.68-158.2C1180,2526.81,1191.35,2500,1258.78,2483.9Z"/><path class="cls-50" d="M1405.06,3337.37s-14,5-14.09,16.1,14.22,60,29.73,77.41,16.9-8.55,15.94-25.25-5-54.1-8.86-61.33S1405.06,3337.37,1405.06,3337.37Z"/><path class="cls-51" d="M1450.15,2654.62c27.41-.54,91.63-5.66,108.73,26.09,14.27,26.49-10.72,66.64-26.09,91.34-41.79,67.14-82.35,74-110.91,115.25-11.06,16-21.08,38.27-24.27,70.14L1379.43,2915c23.72-130.21,63.22-171.07,96.27-183.21,9.25-3.4,24.77-7.05,24.47-11.42-.72-10.35-87.92,4.4-171.26-26.1-75.75-27.71-151.57-94-153.14-144.09C1295.72,2636.24,1386,2655.87,1450.15,2654.62Z"/><path class="cls-52" d="M1397,3290.18c.83,17.11,2.28,31.42,3.59,42,2.89,23.51,5.56,32.81,9.21,41.29,3.18,7.38,11.14,23.48,14.93,22.37s-.11-19-3.11-68.6c-.44-7.2-1.77-30.13-1.77-30.13h0Z"/><path class="cls-53" d="M1171.79,2493.69c86.92,52.41,143.35,112,176.15,152.23,38.73,47.5,97.63,119.75,119,227.49,11.37,57.42,5.77,108.93-5.88,209.61a2109.59,2109.59,0,0,1-41.14,237l-20.05,8c-17.9-32.9-41.32-85-49.71-151.55-13.74-108.93,27-143.55,7.45-220.8-16.94-66.93-66-108-164.23-190-80.68-67.43-155.07-107.44-182.68-191.54-4.69-14.29-8.68-31.81-1-47.85C1026.1,2491.74,1089.13,2479.67,1171.79,2493.69Z"/><path class="cls-54" d="M1102.41,2064.88c22.56-4.86,59.66-3.89,95-31.75,10.65-8.38,48.38-38.09,43.8-80.59-4-37.42-39.5-57.53-43.85-59.93-25.11-13.82-50.14-10.74-77.9-6.95-36,4.92-48,14.76-73,21.5-61.88,16.68-82.81-18.14-145.11-15.2-79.63,3.76-86.51,62.56-153.51,64-75.21,1.65-89.62-72-163.88-84.43-103.07-17.31-259,93.65-255.88,221.56,1.81,73.87,56.82,158.54,127.09,184,40.95,14.82,85.15,10.11,97.76,36.74,9,19-11.2,33.56-9.29,66.58,2.45,42.58,39.11,72.46,45,77.28,54.94,44.79,178.13,22.16,262.26-41.21C1002.7,2302.19,979.74,2091.27,1102.41,2064.88Z"/><path class="cls-55" d="M928.16,2049.69a1613,1613,0,0,1,175.51-12c138.39-1.88,158.2,15.67,163.26,28.66,9.45,24.21-6.73,36.35,2.46,78.57,5.49,25.24.3,36.75,10.93,63.87,10.35,26.44,2.23,40.65-6.93,102.63-11.71,79.26-17.11,119.55,5.07,151.5,15.41,22.2,32.65,24.08,31,34.63-3.5,22.46-81.18,10.07-179.54,53.21-28.47,12.48-54.68,27.87-76.66,40.77-51.46,30.21-61,41.77-84.81,55.45-75.36,43.29-188.57,47.47-247.91-4.89-22.12-19.52-38.24-48.21-31-58.71,9.88-14.3,54.06,18.18,94.6-1.64,26.86-13.12,21.75-34.36,52.8-59.38,37.37-30.11,63.35-14.33,88.78-33.92,39.68-30.57,21.63-103.75,10.49-226.43A2049.35,2049.35,0,0,1,928.16,2049.69Z"/><path class="cls-56" d="M1077.91,2021.19c-18.87,11.7-49.38,27-52.74,31.16s92.43,20.55,152-9.52c0,0,9.24-5.14-26.69-12.32-7.66-1.54-6.16-16.43-5.14-31.83l-7.18-13.34S1096.78,2009.47,1077.91,2021.19Z"/><path class="cls-57" d="M1125.53,1976.27s-7.41,31.41,20.25,46.93c24.77,13.9,66.67-43.08,58.84-64.26-2.6-7.06-11.93-16.14-21.68-19.19-6.85-2.15-32.79-1.32-43.9,20.52-2.91-6.38-8.12-9.73-11.62-8.68-4.45,1.33-5.1,9.41-5.25,11.24A22.67,22.67,0,0,0,1125.53,1976.27Z"/><path class="cls-58" d="M1168.41,2479.75c-28.49,11.81-32.34,37.33-71.74,51.81-37.59,13.81-50.2-3.49-87.69,8-56.31,17.22-77.83,71.55-86.36,66.43-7.81-4.7-.32-56.68,35.88-90.35,41.56-38.67,86.33-21,112.93-61.11,10.35-15.63,18.32-40.58,9.3-59.79-12.24-26-44.19-17-61.12-38.53-30.42-38.68,40.77-108.44,21.26-167.41-7.79-23.53-32.58-53-112.53-72.77,1.08,59.11,4.49,108.5,7.89,146,11.14,122.69,29.19,195.87-10.49,226.44-25.43,19.59-51.41,3.81-88.78,33.92-31.05,25-25.94,46.26-52.8,59.38-40.54,19.82-84.72-12.66-94.6,1.63-7.25,10.51,8.87,39.2,31,58.72,59.34,52.35,172.55,48.18,247.91,4.89,23.83-13.68,33.35-25.24,84.81-55.45,22-12.9,48.19-28.29,76.66-40.77,69-30.27,127.83-33.2,158-40C1228,2470.82,1191.54,2470.16,1168.41,2479.75Z"/><path class="cls-59" d="M1443.46,2519.83l-361.53,17.6a15.17,15.17,0,0,0-12.15,7.13l-10,16.06a11.74,11.74,0,0,0,10.41,17.94l383-14.59Z"/><path class="cls-60" d="M1775.34,2320.11l-373.49,7.23a31.35,31.35,0,0,0-26.64,15.85l-129.33,227.55L1640.33,2555a32.11,32.11,0,0,0,26.27-15.59l119.84-200.2A12.64,12.64,0,0,0,1775.34,2320.11Z"/><path class="cls-61" d="M1375.21,2343.19a31.35,31.35,0,0,1,26.64-15.85l8.18-.15c1.22,12,4.92,23.08,12.3,32,23,27.8,61.29,10.66,89.81,40.08,31.33,32.31,2.39,70.78,30.4,100.86,29.48,31.66,77.15,5.88,132,26.14l-7.9,13.18a32.09,32.09,0,0,1-26.27,15.6l-394.45,15.71Z"/><path class="cls-62" d="M1141.15,2520l12.23-32.28c-45-12.34-107.3-30.58-171.17-53.4-15.78-5.64-21.56-12.93-25.78-18.53-32.75-43.43,50.59-120.05,49.1-219.46-1-68.91-42.82-147.74-79.63-148.64-74.83-1.82-239.82,315.7-100.86,451.22C894,2566.2,1022.87,2574,1141.15,2520Z"/><path class="cls-63" d="M1153.38,2487.75c28.26-15,62.1.38,64.28,1.41a84.41,84.41,0,0,1,24.38,17.48c1,1.41,13.29,18.4,8.83,23.84-3.58,4.37-17.45.75-34.11-9.61a129.8,129.8,0,0,0-29.85-.74c-22.87,2.11-33.35,9.34-41.66,3.1-6.08-4.56-8.15-14.22-6-21.4C1141.64,2494.12,1148.59,2490.29,1153.38,2487.75Z"/></g></g></g></svg>