<svg xmlns="http://www.w3.org/2000/svg" version="1.1" xmlns:xlink="http://www.w3.org/1999/xlink" xmlns:svgjs="http://svgjs.com/svgjs" width="1400" height="300" preserveAspectRatio="none" viewBox="0 0 1400 300">
   <g mask="url(&quot;#SvgjsMask1105&quot;)" fill="none">
      <use xlink:href="#SvgjsSymbol1112" x="0" y="0"></use>
      <use xlink:href="#SvgjsSymbol1112" x="720" y="0"></use>
   </g>
   <defs>
      <mask id="SvgjsMask1105">
         <rect width="1400" height="300" fill="#ffffff"></rect>
      </mask>
      <path d="M-1 0 a1 1 0 1 0 2 0 a1 1 0 1 0 -2 0z" id="SvgjsPath1110"></path>
      <path d="M-3 0 a3 3 0 1 0 6 0 a3 3 0 1 0 -6 0z" id="SvgjsPath1111"></path>
      <path d="M-5 0 a5 5 0 1 0 10 0 a5 5 0 1 0 -10 0z" id="SvgjsPath1106"></path>
      <path d="M2 -2 L-2 2z" id="SvgjsPath1107"></path>
      <path d="M6 -6 L-6 6z" id="SvgjsPath1108"></path>
      <path d="M30 -30 L-30 30z" id="SvgjsPath1109"></path>
   </defs>
   <symbol id="SvgjsSymbol1112">
      <use xlink:href="#SvgjsPath1106" x="30" y="30" stroke="rgba(67, 166, 73, 1)"></use>
      <use xlink:href="#SvgjsPath1107" x="30" y="90" stroke="rgba(67, 166, 73, 1)"></use>
      <use xlink:href="#SvgjsPath1106" x="30" y="150" stroke="rgba(67, 166, 73, 1)"></use>
      <use xlink:href="#SvgjsPath1108" x="30" y="210" stroke="rgba(67, 166, 73, 1)"></use>
      <use xlink:href="#SvgjsPath1107" x="30" y="270" stroke="rgba(67, 166, 73, 1)"></use>
      <use xlink:href="#SvgjsPath1108" x="90" y="30" stroke="rgba(67, 166, 73, 1)"></use>
      <use xlink:href="#SvgjsPath1107" x="90" y="90" stroke="rgba(67, 166, 73, 1)"></use>
      <use xlink:href="#SvgjsPath1109" x="90" y="150" stroke="rgba(67, 166, 73, 1)" stroke-width="3"></use>
      <use xlink:href="#SvgjsPath1106" x="90" y="210" stroke="rgba(67, 166, 73, 1)"></use>
      <use xlink:href="#SvgjsPath1108" x="90" y="270" stroke="rgba(67, 166, 73, 1)"></use>
      <use xlink:href="#SvgjsPath1108" x="150" y="30" stroke="rgba(67, 166, 73, 1)"></use>
      <use xlink:href="#SvgjsPath1110" x="150" y="90" stroke="rgba(67, 166, 73, 1)"></use>
      <use xlink:href="#SvgjsPath1106" x="150" y="150" stroke="rgba(67, 166, 73, 1)"></use>
      <use xlink:href="#SvgjsPath1111" x="150" y="210" stroke="rgba(67, 166, 73, 1)"></use>
      <use xlink:href="#SvgjsPath1107" x="150" y="270" stroke="rgba(67, 166, 73, 1)"></use>
      <use xlink:href="#SvgjsPath1108" x="210" y="30" stroke="rgba(67, 166, 73, 1)"></use>
      <use xlink:href="#SvgjsPath1106" x="210" y="90" stroke="rgba(67, 166, 73, 1)"></use>
      <use xlink:href="#SvgjsPath1106" x="210" y="150" stroke="rgba(67, 166, 73, 1)"></use>
      <use xlink:href="#SvgjsPath1110" x="210" y="210" stroke="rgba(67, 166, 73, 1)"></use>
      <use xlink:href="#SvgjsPath1110" x="210" y="270" stroke="rgba(67, 166, 73, 1)"></use>
      <use xlink:href="#SvgjsPath1110" x="270" y="30" stroke="rgba(67, 166, 73, 1)"></use>
      <use xlink:href="#SvgjsPath1106" x="270" y="90" stroke="rgba(67, 166, 73, 1)"></use>
      <use xlink:href="#SvgjsPath1107" x="270" y="150" stroke="rgba(67, 166, 73, 1)"></use>
      <use xlink:href="#SvgjsPath1106" x="270" y="210" stroke="rgba(67, 166, 73, 1)"></use>
      <use xlink:href="#SvgjsPath1111" x="270" y="270" stroke="rgba(67, 166, 73, 1)"></use>
      <use xlink:href="#SvgjsPath1108" x="330" y="30" stroke="rgba(67, 166, 73, 1)"></use>
      <use xlink:href="#SvgjsPath1108" x="330" y="90" stroke="rgba(67, 166, 73, 1)"></use>
      <use xlink:href="#SvgjsPath1108" x="330" y="150" stroke="rgba(67, 166, 73, 1)"></use>
      <use xlink:href="#SvgjsPath1107" x="330" y="210" stroke="rgba(67, 166, 73, 1)"></use>
      <use xlink:href="#SvgjsPath1108" x="330" y="270" stroke="rgba(67, 166, 73, 1)"></use>
      <use xlink:href="#SvgjsPath1108" x="390" y="30" stroke="rgba(67, 166, 73, 1)"></use>
      <use xlink:href="#SvgjsPath1111" x="390" y="90" stroke="rgba(67, 166, 73, 1)"></use>
      <use xlink:href="#SvgjsPath1107" x="390" y="150" stroke="rgba(67, 166, 73, 1)"></use>
      <use xlink:href="#SvgjsPath1106" x="390" y="210" stroke="rgba(67, 166, 73, 1)"></use>
      <use xlink:href="#SvgjsPath1111" x="390" y="270" stroke="rgba(67, 166, 73, 1)"></use>
      <use xlink:href="#SvgjsPath1106" x="450" y="30" stroke="rgba(67, 166, 73, 1)"></use>
      <use xlink:href="#SvgjsPath1107" x="450" y="90" stroke="rgba(67, 166, 73, 1)"></use>
      <use xlink:href="#SvgjsPath1107" x="450" y="150" stroke="rgba(67, 166, 73, 1)"></use>
      <use xlink:href="#SvgjsPath1107" x="450" y="210" stroke="rgba(67, 166, 73, 1)"></use>
      <use xlink:href="#SvgjsPath1107" x="450" y="270" stroke="rgba(67, 166, 73, 1)"></use>
      <use xlink:href="#SvgjsPath1106" x="510" y="30" stroke="rgba(67, 166, 73, 1)"></use>
      <use xlink:href="#SvgjsPath1111" x="510" y="90" stroke="rgba(67, 166, 73, 1)"></use>
      <use xlink:href="#SvgjsPath1111" x="510" y="150" stroke="rgba(67, 166, 73, 1)"></use>
      <use xlink:href="#SvgjsPath1109" x="510" y="210" stroke="rgba(67, 166, 73, 1)" stroke-width="3"></use>
      <use xlink:href="#SvgjsPath1107" x="510" y="270" stroke="rgba(67, 166, 73, 1)"></use>
      <use xlink:href="#SvgjsPath1111" x="570" y="30" stroke="rgba(67, 166, 73, 1)"></use>
      <use xlink:href="#SvgjsPath1107" x="570" y="90" stroke="rgba(67, 166, 73, 1)"></use>
      <use xlink:href="#SvgjsPath1106" x="570" y="150" stroke="rgba(67, 166, 73, 1)"></use>
      <use xlink:href="#SvgjsPath1108" x="570" y="210" stroke="rgba(67, 166, 73, 1)"></use>
      <use xlink:href="#SvgjsPath1107" x="570" y="270" stroke="rgba(67, 166, 73, 1)"></use>
      <use xlink:href="#SvgjsPath1111" x="630" y="30" stroke="rgba(67, 166, 73, 1)"></use>
      <use xlink:href="#SvgjsPath1109" x="630" y="90" stroke="rgba(67, 166, 73, 1)" stroke-width="3"></use>
      <use xlink:href="#SvgjsPath1108" x="630" y="150" stroke="rgba(67, 166, 73, 1)"></use>
      <use xlink:href="#SvgjsPath1106" x="630" y="210" stroke="rgba(67, 166, 73, 1)"></use>
      <use xlink:href="#SvgjsPath1106" x="630" y="270" stroke="rgba(67, 166, 73, 1)"></use>
      <use xlink:href="#SvgjsPath1106" x="690" y="30" stroke="rgba(67, 166, 73, 1)"></use>
      <use xlink:href="#SvgjsPath1111" x="690" y="90" stroke="rgba(67, 166, 73, 1)"></use>
      <use xlink:href="#SvgjsPath1106" x="690" y="150" stroke="rgba(67, 166, 73, 1)"></use>
      <use xlink:href="#SvgjsPath1108" x="690" y="210" stroke="rgba(67, 166, 73, 1)"></use>
      <use xlink:href="#SvgjsPath1106" x="690" y="270" stroke="rgba(67, 166, 73, 1)"></use>
   </symbol>
</svg>