<svg id="wave" style="transform:rotate(0deg); transition: 0.3s" viewBox="0 0 1440 430" version="1.1" xmlns="http://www.w3.org/2000/svg">
    <defs>
        <linearGradient id="sw-gradient-0" x1="0" x2="0" y1="1" y2="0">
            <stop stop-color="rgba(87, 178, 82, 0.13)" offset="0%"></stop>
            <stop stop-color="rgba(87, 178, 82, 0.12)" offset="100%"></stop>
        </linearGradient>
    </defs>
    <path style="transform:translate(0, 0px); opacity:1" fill="url(#sw-gradient-0)" d="M0,172L120,179.2C240,186,480,201,720,229.3C960,258,1200,301,1440,293.8C1680,287,1920,229,2160,236.5C2400,244,2640,315,2880,315.3C3120,315,3360,244,3600,193.5C3840,143,4080,115,4320,93.2C4560,72,4800,57,5040,71.7C5280,86,5520,129,5760,121.8C6000,115,6240,57,6480,43C6720,29,6960,57,7200,86C7440,115,7680,143,7920,129C8160,115,8400,57,8640,28.7C8880,0,9120,0,9360,21.5C9600,43,9840,86,10080,114.7C10320,143,10560,158,10800,157.7C11040,158,11280,143,11520,157.7C11760,172,12000,215,12240,236.5C12480,258,12720,258,12960,258C13200,258,13440,258,13680,250.8C13920,244,14160,229,14400,229.3C14640,229,14880,244,15120,229.3C15360,215,15600,172,15840,150.5C16080,129,16320,129,16560,150.5C16800,172,17040,215,17160,236.5L17280,258L17280,430L17160,430C17040,430,16800,430,16560,430C16320,430,16080,430,15840,430C15600,430,15360,430,15120,430C14880,430,14640,430,14400,430C14160,430,13920,430,13680,430C13440,430,13200,430,12960,430C12720,430,12480,430,12240,430C12000,430,11760,430,11520,430C11280,430,11040,430,10800,430C10560,430,10320,430,10080,430C9840,430,9600,430,9360,430C9120,430,8880,430,8640,430C8400,430,8160,430,7920,430C7680,430,7440,430,7200,430C6960,430,6720,430,6480,430C6240,430,6000,430,5760,430C5520,430,5280,430,5040,430C4800,430,4560,430,4320,430C4080,430,3840,430,3600,430C3360,430,3120,430,2880,430C2640,430,2400,430,2160,430C1920,430,1680,430,1440,430C1200,430,960,430,720,430C480,430,240,430,120,430L0,430Z"></path>
    <defs>
        <linearGradient id="sw-gradient-1" x1="0" x2="0" y1="1" y2="0">
            <stop stop-color="rgba(87, 178, 82, 0.17)" offset="0%"></stop>
            <stop stop-color="rgba(87, 178, 82, 0)" offset="100%"></stop>
        </linearGradient>
    </defs>
    <path style="transform:translate(0, 50px); opacity:0.9" fill="url(#sw-gradient-1)" d="M0,258L120,272.3C240,287,480,315,720,329.7C960,344,1200,344,1440,293.8C1680,244,1920,143,2160,114.7C2400,86,2640,129,2880,172C3120,215,3360,258,3600,243.7C3840,229,4080,158,4320,129C4560,100,4800,115,5040,121.8C5280,129,5520,129,5760,164.8C6000,201,6240,272,6480,308.2C6720,344,6960,344,7200,344C7440,344,7680,344,7920,329.7C8160,315,8400,287,8640,258C8880,229,9120,201,9360,222.2C9600,244,9840,315,10080,336.8C10320,358,10560,330,10800,301C11040,272,11280,244,11520,236.5C11760,229,12000,244,12240,250.8C12480,258,12720,258,12960,236.5C13200,215,13440,172,13680,172C13920,172,14160,215,14400,222.2C14640,229,14880,201,15120,186.3C15360,172,15600,172,15840,200.7C16080,229,16320,287,16560,272.3C16800,258,17040,172,17160,129L17280,86L17280,430L17160,430C17040,430,16800,430,16560,430C16320,430,16080,430,15840,430C15600,430,15360,430,15120,430C14880,430,14640,430,14400,430C14160,430,13920,430,13680,430C13440,430,13200,430,12960,430C12720,430,12480,430,12240,430C12000,430,11760,430,11520,430C11280,430,11040,430,10800,430C10560,430,10320,430,10080,430C9840,430,9600,430,9360,430C9120,430,8880,430,8640,430C8400,430,8160,430,7920,430C7680,430,7440,430,7200,430C6960,430,6720,430,6480,430C6240,430,6000,430,5760,430C5520,430,5280,430,5040,430C4800,430,4560,430,4320,430C4080,430,3840,430,3600,430C3360,430,3120,430,2880,430C2640,430,2400,430,2160,430C1920,430,1680,430,1440,430C1200,430,960,430,720,430C480,430,240,430,120,430L0,430Z"></path>
    <defs>
        <linearGradient id="sw-gradient-2" x1="0" x2="0" y1="1" y2="0">
            <stop stop-color="rgba(87, 178, 82, 0.25)" offset="0%"></stop>
            <stop stop-color="rgba(87, 178, 82, 0.43)" offset="100%"></stop>
        </linearGradient>
    </defs>
    <path style="transform:translate(0, 100px); opacity:0.8" fill="url(#sw-gradient-2)" d="M0,301L120,293.8C240,287,480,272,720,236.5C960,201,1200,143,1440,143.3C1680,143,1920,201,2160,193.5C2400,186,2640,115,2880,121.8C3120,129,3360,215,3600,236.5C3840,258,4080,215,4320,200.7C4560,186,4800,201,5040,236.5C5280,272,5520,330,5760,336.8C6000,344,6240,301,6480,243.7C6720,186,6960,115,7200,78.8C7440,43,7680,43,7920,71.7C8160,100,8400,158,8640,215C8880,272,9120,330,9360,301C9600,272,9840,158,10080,114.7C10320,72,10560,100,10800,100.3C11040,100,11280,72,11520,107.5C11760,143,12000,244,12240,236.5C12480,229,12720,115,12960,107.5C13200,100,13440,201,13680,265.2C13920,330,14160,358,14400,358.3C14640,358,14880,330,15120,301C15360,272,15600,244,15840,243.7C16080,244,16320,272,16560,301C16800,330,17040,358,17160,372.7L17280,387L17280,430L17160,430C17040,430,16800,430,16560,430C16320,430,16080,430,15840,430C15600,430,15360,430,15120,430C14880,430,14640,430,14400,430C14160,430,13920,430,13680,430C13440,430,13200,430,12960,430C12720,430,12480,430,12240,430C12000,430,11760,430,11520,430C11280,430,11040,430,10800,430C10560,430,10320,430,10080,430C9840,430,9600,430,9360,430C9120,430,8880,430,8640,430C8400,430,8160,430,7920,430C7680,430,7440,430,7200,430C6960,430,6720,430,6480,430C6240,430,6000,430,5760,430C5520,430,5280,430,5040,430C4800,430,4560,430,4320,430C4080,430,3840,430,3600,430C3360,430,3120,430,2880,430C2640,430,2400,430,2160,430C1920,430,1680,430,1440,430C1200,430,960,430,720,430C480,430,240,430,120,430L0,430Z"></path>
</svg>