<svg id="visual" viewBox="0 0 1400 254" width="1400" height="254" xmlns="http://www.w3.org/2000/svg" xmlns:xlink="http://www.w3.org/1999/xlink" version="1.1">
   <path d="M0 34L156 42L311 44L467 44L622 34L778 37L933 42L1089 49L1244 42L1400 44L1400 0L1244 0L1089 0L933 0L778 0L622 0L467 0L311 0L156 0L0 0Z" fill="#ffffff"></path>
   <path d="M0 95L156 82L311 92L467 95L622 82L778 85L933 82L1089 98L1244 90L1400 90L1400 42L1244 40L1089 47L933 40L778 35L622 32L467 42L311 42L156 40L0 32Z" fill="#fcfdff"></path>
   <path d="M0 176L156 176L311 164L467 179L622 166L778 179L933 179L1089 181L1244 181L1400 156L1400 88L1244 88L1089 96L933 80L778 83L622 80L467 93L311 90L156 80L0 93Z" fill="#f3f4f694"></path>
   <path d="M0 255L156 255L311 255L467 255L622 255L778 255L933 255L1089 255L1244 255L1400 255L1400 154L1244 179L1089 179L933 177L778 177L622 164L467 177L311 162L156 174L0 174Z" fill="#f3f4f6"></path>
</svg>