<svg xmlns="http://www.w3.org/2000/svg" viewBox="0 0 995.02 995.02">
  <defs>
    <style>
    .cls-1 {
      fill: #022e06;
    }

    .cls-2 {
      fill: #4DC957;
    }

    .cls-3 {
      fill: #022e06;
    }
    </style>
  </defs>
  <g id="Layer_2" data-name="Layer 2">
    <g id="Layer_1-2" data-name="Layer 1">
      <g id="textblocktransform">
        <path id="text-0" class="cls-1" d="M76.91,177l56.77-7.88V300.78a37.53,37.53,0,0,0,21.53-9.3A71.16,71.16,0,0,0,171,271.21a109.88,109.88,0,0,0,9.85-27,135.13,135.13,0,0,0,3.31-29.73h0A112.29,112.29,0,0,0,182,193.71a54,54,0,0,0-9.06-20.9q-6.94-9.62-20.11-16.16t-35.32-6.46h0a104.23,104.23,0,0,0-32.33,4.73A68.09,68.09,0,0,0,60,169.35,64.29,64.29,0,0,0,43.4,194.1q-5.91,15.22-5.91,35.72h0a88.48,88.48,0,0,0,1.42,17.5A50.21,50.21,0,0,0,42.46,259,42.2,42.2,0,0,0,47,266.88c1.58,2.1,3,4.07,4.34,5.91h0q-23.65,0-37.45-11T0,227.06H0a75.44,75.44,0,0,1,9.7-37.45,96.22,96.22,0,0,1,26.41-30.12,129.66,129.66,0,0,1,39-20.18,150.67,150.67,0,0,1,47.07-7.26h0q24,0,43.76,6.31a102,102,0,0,1,33.9,17.9,80.42,80.42,0,0,1,21.92,28,85.28,85.28,0,0,1,7.65,36.5h0a100,100,0,0,1-5.92,33.12,92.18,92.18,0,0,1-47.07,52.82q-17.58,8.67-40.84,8.68h-2V427.72H76.91ZM326.85,397h0a63.61,63.61,0,0,0,20.9-3.15,58.54,58.54,0,0,0,16.16-8.52,72,72,0,0,0,13-12.61q5.91-7.26,11.43-15.54h13.4A192.22,192.22,0,0,1,388.51,384a99.44,99.44,0,0,1-18.92,23.26,90.46,90.46,0,0,1-26.18,16.56q-15,6.3-35.09,6.3h0A91,91,0,0,1,277.18,425a64,64,0,0,1-24.68-16q-10.41-10.8-16.16-28t-5.68-41.15h0a196.87,196.87,0,0,1,3.71-36.51,117,117,0,0,1,13.24-36,82.9,82.9,0,0,1,25.63-27.6q16.15-11,41-11h0q18.92,0,29.17,5.91t15.14,13.8a37.88,37.88,0,0,1,5.91,15.37,91.74,91.74,0,0,1,1,10.65h0q0,17.73-6.55,31.14a68,68,0,0,1-17.34,22.63,76,76,0,0,1-24.84,14.19,101.15,101.15,0,0,1-28.54,5.76h0q.39,26.4,8.83,37.61T326.85,397Zm8.28-122.21h0q0-13.8-4.73-19.55t-10.25-5.68h0q-6.7,0-12.22,6.47t-9.7,17.34a144.68,144.68,0,0,0-6.7,25.47,251,251,0,0,0-3.31,30.35h0a47.35,47.35,0,0,0,18.53-5.36,49.87,49.87,0,0,0,15-11.82,54.27,54.27,0,0,0,9.85-16.72A57.83,57.83,0,0,0,335.13,274.76Zm153.75,33.9h0q0-23.66-5.36-33.74t-15.14-10h0a16.27,16.27,0,0,0-10.09,3.15,25.37,25.37,0,0,0-6.86,8.28A50.8,50.8,0,0,0,447,287.93a85.8,85.8,0,0,0-2,13.24h0V427.72H388.35V230.61H445v20.5q9.15-13.8,20.58-18A64.35,64.35,0,0,1,487.3,229h0a62.88,62.88,0,0,1,21.05,3.55,42.93,42.93,0,0,1,17.74,12q7.65,8.52,12.07,22.47t4.33,34.54h0q0,5.12-.23,12.77T541.62,330q-.32,7.89-.55,15.38t-.16,12.61h0q0,16.95,3.55,25.39t15.77,8.52h0q13.41,0,18.69-9.86t8.51-24.84H604q-3.22,23.66-9.46,38t-14.19,22.07a39.3,39.3,0,0,1-17,10.25,63.44,63.44,0,0,1-17.74,2.6h0q-30.29,0-43.92-20.1t-13.56-53.62h0q0-3.54.16-10.09t.15-13.56q0-7.09.24-13.64T488.88,308.66Zm199,0h0q0-23.66-5.28-33.74t-15.22-10h0a15.94,15.94,0,0,0-10,3.15,25,25,0,0,0-6.94,8.28,48.94,48.94,0,0,0-4.34,11.59,76.11,76.11,0,0,0-2,13.24h0V427.72H587.35V230.61h56.77v20.5q9.07-13.8,20.5-18A64.35,64.35,0,0,1,686.3,229h0a63.09,63.09,0,0,1,21.13,3.55,43.68,43.68,0,0,1,17.75,12q7.64,8.52,12,22.47t4.34,34.54h0q0,5.12-.16,12.77T740.71,330q-.4,7.89-.55,15.38t-.24,12.61h0q0,16.95,3.55,25.39t15.77,8.52h0q13.39,0,18.76-9.86t8.44-24.84H803q-3.15,23.66-9.46,38t-14.19,22.07a39.28,39.28,0,0,1-17,10.25,63.92,63.92,0,0,1-17.74,2.6h0q-30.36,0-43.92-20.1t-13.64-53.62h0q0-3.54.24-10.09t.16-13.56q0-7.09.23-13.64T687.88,308.66Zm195.93-78.05h56.77V413.53A69.53,69.53,0,0,0,955.17,406a45.18,45.18,0,0,0,11-10.88,55.09,55.09,0,0,0,7.73-15.77,123.63,123.63,0,0,0,4.49-22.24H995q-2,19.71-7.25,32.49a71.27,71.27,0,0,1-13,21.13,64.29,64.29,0,0,1-16.56,13,106.68,106.68,0,0,1-17.58,7.49h0v28q0,20.89-5.13,34.14t-13.16,20.5a43.59,43.59,0,0,1-17.74,9.85,74.58,74.58,0,0,1-18.77,2.53h0a71,71,0,0,1-21.44-3.16A53.83,53.83,0,0,1,847,514.29a43,43,0,0,1-11.67-14A39.35,39.35,0,0,1,831,481.73h0a39.83,39.83,0,0,1,4.58-19.16,49.63,49.63,0,0,1,12-14.75,79,79,0,0,1,17-10.8,147.62,147.62,0,0,1,19.32-7.72h0V407.61A50.78,50.78,0,0,1,873,419.44a52.91,52.91,0,0,1-11.43,6.7,47.18,47.18,0,0,1-11.44,3.16,81.06,81.06,0,0,1-10.88.78h0q-28,0-40.37-16.55T786.44,369h0V230.61h56.77v134q0,15,4.17,21.06t12,6.15h0q10.64,0,17-9.86t7.49-24.84h0ZM851.88,478.18h0a16,16,0,0,0,5.36,12.62q5.28,4.72,10.8,4.73h0q7.1,0,11.43-8.68t4.34-26.41h0V449a98.66,98.66,0,0,0-22.63,12.61Q851.88,468.72,851.88,478.18Z" />
        <path id="text-1" class="cls-2" d="M103.05,650h0q0,9.26-4,15t-11.6,5.75h0a17.17,17.17,0,0,1-12.18-5.12h0a15.43,15.43,0,0,0,5.26-7.06,26.06,26.06,0,0,0,1.81-9.5h0a16.83,16.83,0,0,0-4.88-12.43q-4.86-4.87-14.86-4.87h0q-11,0-15.83,6.09T41.9,654.18h0q0,11.94,5.75,19.49a62.09,62.09,0,0,0,14.23,13.5A186.25,186.25,0,0,0,80.3,698.52a107,107,0,0,1,18.37,12.67A64.06,64.06,0,0,1,113,728.83q5.7,10.38,5.7,26.46h0q0,13.63-4.49,23.39a43.35,43.35,0,0,1-12.32,15.93,49.28,49.28,0,0,1-18.52,9.06,93.18,93.18,0,0,1-23.39,2.78h0a105.78,105.78,0,0,1-22-2.29,59.32,59.32,0,0,1-19.25-7.6A39.94,39.94,0,0,1,5.12,782.67Q0,774,0,761.62H0a46.31,46.31,0,0,1,2.34-15.1,33.32,33.32,0,0,1,6.33-11.45A28.77,28.77,0,0,1,18,727.86a25.91,25.91,0,0,1,11.21-2.54h0a30.85,30.85,0,0,1,6.33.73,26.27,26.27,0,0,1,6.82,2.54,24.47,24.47,0,0,1,6.34,5,23.14,23.14,0,0,1,4.62,7.79h0a40.37,40.37,0,0,0-8.77,1,22,22,0,0,0-7.89,3.41,17.82,17.82,0,0,0-5.75,6.67,23.81,23.81,0,0,0-2.19,10.87h0q0,12.66,7.79,18.12T56,787h0q11.7,0,18-5.6t6.34-19.25h0q0-12.68-5.27-21.44a57.92,57.92,0,0,0-13.25-15.35A174.51,174.51,0,0,0,44.73,713a151.67,151.67,0,0,1-17.2-12.42,57.83,57.83,0,0,1-13.25-15.69Q9,675.87,9,662.71H9q0-21.19,14.13-32.31t38.5-11.06h0q3.4,0,10.38.59a45.14,45.14,0,0,1,13.88,3.65,32.77,32.77,0,0,1,12,9.26Q103.06,639.08,103.05,650Zm201.19,68h0a19.72,19.72,0,0,0,.59-3.41c.09-1,.14-2.27.14-3.9h0c0-6.65-.94-11.45-2.82-14.37s-4.24-4.39-7.17-4.39h0q-4.86,0-8.43,5a45.37,45.37,0,0,0-5.84,12.67,101.84,101.84,0,0,0-3.41,17.2,164.08,164.08,0,0,0-1.08,18.52h0a92.56,92.56,0,0,0,1.56,18.76q1.62,7.31,4.78,11.45a17.1,17.1,0,0,0,7.89,5.85,32.42,32.42,0,0,0,10.87,1.7h0a37.86,37.86,0,0,0,12.76-1.95,36.61,36.61,0,0,0,9.9-5.26,44.42,44.42,0,0,0,8-7.8q3.66-4.47,7.07-9.59h8.28A118.93,118.93,0,0,1,339.18,775a61.39,61.39,0,0,1-11.7,14.38,55.26,55.26,0,0,1-16.32,10.23,56.31,56.31,0,0,1-21.78,3.9h0a57.27,57.27,0,0,1-19-3.07,38.24,38.24,0,0,1-15.25-9.75,45.07,45.07,0,0,1-10-17.39q-3.51-10.73-3.51-25.83h0a133.63,133.63,0,0,1,2.05-22.31,71.46,71.46,0,0,1,7.69-22.27,50.46,50.46,0,0,1,15.21-17.06q9.65-6.81,25-6.82h0q9.51,0,15.69,2.68a28.19,28.19,0,0,1,9.89,6.68,23.16,23.16,0,0,1,5.12,8.77,31.41,31.41,0,0,1,1.46,9.16h0a19.48,19.48,0,0,1-2.58,10.47,7.77,7.77,0,0,1-6.92,4.15h0a18.34,18.34,0,0,1-4.63-.73A24.76,24.76,0,0,1,304.24,718Zm196.07-39h0q16.81,0,26.8,9.11T540,717.53h1.71a28.12,28.12,0,0,0,7.65-1.22,77.65,77.65,0,0,0,8.92-3.17,67.3,67.3,0,0,0,9-4.63,61.1,61.1,0,0,0,7.8-5.6h0l3.65,6.58a32.39,32.39,0,0,1-6.72,7.06,51.26,51.26,0,0,1-9.12,5.7,73.89,73.89,0,0,1-10.72,4.39,79.15,79.15,0,0,1-11.2,2.82h0a23.55,23.55,0,0,1,.24,3.27V736h0a136.05,136.05,0,0,1-2.43,26.41,62.64,62.64,0,0,1-8.19,21.44,41.73,41.73,0,0,1-14.72,14.37q-9,5.26-22.17,5.27h0a52.45,52.45,0,0,1-17.2-2.83,36.65,36.65,0,0,1-14.47-9.26q-6.33-6.44-10.13-17.05t-3.75-25.92h0a126.84,126.84,0,0,1,2.19-22.56,72.33,72.33,0,0,1,8-22.51A51.52,51.52,0,0,1,474.34,686Q484.48,679,500.31,679Zm.25,101.6h0a12.45,12.45,0,0,0,8.86-3.56,25.65,25.65,0,0,0,6.24-9.75,61.1,61.1,0,0,0,3.51-14.71,142.11,142.11,0,0,0,1.12-18.52h0v-3.65q-6.09-1.22-7.8-4.63a16.72,16.72,0,0,1-1.7-7.55h0q0-5.12,1.7-7.8a8.64,8.64,0,0,1,4.39-3.65h0q-2.68-8.29-6.48-10.72c-2.5-1.63-4.65-2.44-6.43-2.44h0q-5.37,0-9.16,5a42.64,42.64,0,0,0-6.19,12.67,93,93,0,0,0-3.56,17A155.74,155.74,0,0,0,484,746h0a82.28,82.28,0,0,0,1.56,17.78,32.84,32.84,0,0,0,4,10.48,12.72,12.72,0,0,0,11,6.34ZM720.5,679h0q16.82,0,26.8,9.11t12.91,29.39h1.71a28.12,28.12,0,0,0,7.65-1.22,77.65,77.65,0,0,0,8.92-3.17,67.3,67.3,0,0,0,9-4.63,61.1,61.1,0,0,0,7.8-5.6h0l3.65,6.58a32.39,32.39,0,0,1-6.72,7.06,51.26,51.26,0,0,1-9.12,5.7,73.89,73.89,0,0,1-10.72,4.39,79.15,79.15,0,0,1-11.2,2.82h0a23.55,23.55,0,0,1,.24,3.27V736h0A136.05,136.05,0,0,1,759,762.45a62.64,62.64,0,0,1-8.19,21.44,41.73,41.73,0,0,1-14.72,14.37q-9,5.26-22.17,5.27h0a52.49,52.49,0,0,1-17.2-2.83,36.65,36.65,0,0,1-14.47-9.26q-6.33-6.44-10.13-17.05t-3.75-25.92h0a126.84,126.84,0,0,1,2.19-22.56,72.33,72.33,0,0,1,8-22.51A51.52,51.52,0,0,1,694.53,686Q704.67,679,720.5,679Zm.25,101.6h0a12.45,12.45,0,0,0,8.86-3.56,25.65,25.65,0,0,0,6.24-9.75,61.1,61.1,0,0,0,3.51-14.71,142.11,142.11,0,0,0,1.12-18.52h0v-3.65q-6.09-1.22-7.8-4.63a16.72,16.72,0,0,1-1.7-7.55h0q0-5.12,1.7-7.8a8.64,8.64,0,0,1,4.39-3.65h0q-2.69-8.29-6.48-10.72c-2.5-1.63-4.65-2.44-6.43-2.44h0q-5.37,0-9.16,5a42.64,42.64,0,0,0-6.19,12.67,93,93,0,0,0-3.56,17A155.74,155.74,0,0,0,704.18,746h0a82.28,82.28,0,0,0,1.56,17.78,32.84,32.84,0,0,0,4,10.48,12.72,12.72,0,0,0,11,6.34Zm172-109.39h35.08v18.27A33.85,33.85,0,0,1,953.6,679h0a39.46,39.46,0,0,1,15.69,3.17,34.38,34.38,0,0,1,13.16,10.09q5.74,7,9.16,18.41T995,738.48h0a133.11,133.11,0,0,1-2.09,23.39,67,67,0,0,1-7.17,21,41.74,41.74,0,0,1-13.79,15q-8.62,5.75-21.53,5.75h0q-9.26,0-14.62-2.59a22,22,0,0,1-8-5.94h0v59.2L892.7,863Zm46,111.09h0A14.73,14.73,0,0,0,949.46,778,29.13,29.13,0,0,0,956.38,767,67.22,67.22,0,0,0,960,751.73a126.81,126.81,0,0,0,1.12-16.66h0q0-13.41-2.34-21.2t-5.46-11.6a14.28,14.28,0,0,0-6.24-4.72,16.62,16.62,0,0,0-4.72-1h0a14.33,14.33,0,0,0-8.53,3,17.69,17.69,0,0,0-6.09,9.17h0v68a13.62,13.62,0,0,0,3.9,3.8A12.44,12.44,0,0,0,938.74,782.33Z" />
      </g>
      <path class="cls-3" d="M304.46,39a497.56,497.56,0,0,1,386.1,0H655a462,462,0,0,0-315,0H304.46m0,917.06a497.48,497.48,0,0,0,386.1,0H655a461.89,461.89,0,0,1-315,0H304.46" />
    </g>
  </g>
</svg>