<svg xmlns="http://www.w3.org/2000/svg" xmlns:xlink="http://www.w3.org/1999/xlink" viewBox="0 0 197.35 38.08" data-arp-injected="true">
  <defs>
    <style>
    .cls-1,
    .cls-2,
    .cls-3 {
      fill: #fff;
    }

    .cls-2 {
      clip-path: url(#clip-path);
    }

    .cls-3 {
      clip-path: url(#clip-path-2);
    }

    .cls-4 {
      fill: #ffc234;
    }
    </style>
    <clipPath id="clip-path" transform="translate(0 0.08)">
      <rect class="cls-1" x="50.69" y="9.82" width="146.67" height="18.37" />
    </clipPath>
    <clipPath id="clip-path-2" transform="translate(0 0.08)">
      <rect class="cls-1" x="17.99" width="4.37" height="8.06" />
    </clipPath>
  </defs>
  <g id="Layer_2" data-name="Layer 2">
    <g id="Layer_1-2" data-name="Layer 1">
      <g class="cls-2">
        <path d="M59.12,27.88H55.87V12.73H50.7V10.12H64.32v2.61h-5.2Zm10.86,0H66.73V10.12h6.52a7.56,7.56,0,0,1,3.51.72,5,5,0,0,1,2.07,1.95,5.54,5.54,0,0,1,.69,2.73,5.4,5.4,0,0,1-.86,3,4.77,4.77,0,0,1-2.65,2l3.68,7.43H76l-3.29-7H70Zm0-15v5.65h3.07a3.2,3.2,0,0,0,2.38-.78,2.87,2.87,0,0,0,.76-2.08,2.75,2.75,0,0,0-.75-2A3.27,3.27,0,0,0,73,12.84Zm15.8,15H82.54V10.12h3.24Zm11.49.3A8.85,8.85,0,0,1,92.65,27a7.77,7.77,0,0,1-3-3.22,10.54,10.54,0,0,1-1-4.78,10.66,10.66,0,0,1,1-4.8,7.85,7.85,0,0,1,3-3.25,8.85,8.85,0,0,1,4.62-1.16,8.28,8.28,0,0,1,5.24,1.58,6.94,6.94,0,0,1,2.55,4.45h-3.58a3.87,3.87,0,0,0-1.4-2.27,4.6,4.6,0,0,0-2.86-.82,4.77,4.77,0,0,0-3.86,1.67A7,7,0,0,0,92,19a6.87,6.87,0,0,0,1.39,4.57,5.43,5.43,0,0,0,6.72.89,3.58,3.58,0,0,0,1.4-2.14h3.58a6.7,6.7,0,0,1-2.55,4.29,8.45,8.45,0,0,1-5.24,1.54Zm13.9-.3h-3.24V10.12h3.24V17.3l6.57-7.18h4l-6.54,7.05,6.72,10.71h-4l-5.08-8.22-1.7,1.85Zm16.24,0h-3.25V10.12h3.25l8.35,12.51V10.12H139V27.88h-3.24L127.41,15.4Zm18.29,0h-3.24V10.12h3.24Zm9.51,0h-6.06V10.12h6.06a10.7,10.7,0,0,1,5.14,1.1,7.07,7.07,0,0,1,3,3.1,10.68,10.68,0,0,1,1,4.68,10.68,10.68,0,0,1-1,4.68,7,7,0,0,1-3,3.09,10.58,10.58,0,0,1-5.14,1.11Zm-2.81-15v12.2h2.66a7.19,7.19,0,0,0,3.53-.73,4.08,4.08,0,0,0,1.85-2.08A8.61,8.61,0,0,0,161,19a8.67,8.67,0,0,0-.56-3.27,4.15,4.15,0,0,0-1.85-2.11,7.19,7.19,0,0,0-3.53-.73Zm26.38,15H167.19V10.12h11.59v2.61h-8.35v4.88H178v2.53h-7.59v5.13h8.35Zm5.33,0h-3.4l6.49-17.76h3.66l6.49,17.76H193.9l-1.42-4.11h-6.93Zm4.9-14-2.57,7.38h5.15Z" transform="translate(0 0.08)" />
      </g>
      <g class="cls-3">
        <path class="cls-4" d="M20.18,8a2,2,0,0,1-2-2v-4a2,2,0,1,1,4,0V6a2,2,0,0,1-2,2" transform="translate(0 0.08)" />
      </g>
      <path class="cls-4" d="M30.17,12.13a2,2,0,0,1-1.43-.59,2,2,0,0,1,0-2.85L31.6,5.83a2,2,0,1,1,2.85,2.86L31.6,11.54a2,2,0,0,1-1.43.59" transform="translate(0 0.08)" />
      <path class="cls-4" d="M38.34,22.12h-4a2,2,0,1,1,0-4h4a2,2,0,1,1,0,4" transform="translate(0 0.08)" />
      <path class="cls-4" d="M33,35a2,2,0,0,1-1.43-.6l-2.85-2.85a2,2,0,1,1,2.85-2.85l2.86,2.85A2,2,0,0,1,33,35" transform="translate(0 0.08)" />
      <path class="cls-4" d="M7.33,35a2,2,0,0,1-1.42-3.45l2.85-2.85a2,2,0,0,1,2.85,2.85L8.76,34.37A2,2,0,0,1,7.33,35" transform="translate(0 0.08)" />
      <path class="cls-4" d="M6.05,22.11H2a2,2,0,1,1,0-4h4a2,2,0,1,1,0,4" transform="translate(0 0.08)" />
      <path class="cls-4" d="M10.19,12.13a2,2,0,0,1-1.42-.59L5.92,8.68A2,2,0,0,1,8.77,5.83l2.85,2.85a2,2,0,0,1-1.43,3.45" transform="translate(0 0.08)" />
      <path class="cls-4" d="M20.18,11.3a9,9,0,0,0-4.9,16.61V33.1a4.9,4.9,0,0,0,9.8,0V27.91a9,9,0,0,0-4.9-16.61Zm0,14.67a5.75,5.75,0,1,1,5.75-5.75A5.74,5.74,0,0,1,20.18,26Z" transform="translate(0 0.08)" />
    </g>
  </g>
</svg>