<svg xmlns="http://www.w3.org/2000/svg" version="1.1" xmlns:xlink="http://www.w3.org/1999/xlink" xmlns:svgjs="http://svgjs.dev/svgjs" width="128" height="128" viewBox="0 0 128 128"><g transform="matrix(0.8046875,0,0,0.8046875,12.760752631578946,18.126727884434473)"><svg viewBox="0 0 95 85" data-background-color="#ffffff" preserveAspectRatio="xMidYMid meet" height="114" width="128" xmlns="http://www.w3.org/2000/svg" xmlns:xlink="http://www.w3.org/1999/xlink"><g id="tight-bounds" transform="matrix(1,0,0,1,-0.24049999999999727,0.005637933687012264)"><svg viewBox="0 0 95.48099999999998 84.98872413262599" height="84.98872413262599" width="95.48099999999998"><g><svg viewBox="0 0 95.48099999999998 84.98872413262599" height="84.98872413262599" width="95.48099999999998"><g><svg viewBox="0 0 95.48099999999998 84.98872413262599" height="84.98872413262599" width="95.48099999999998"><g id="textblocktransform"><svg viewBox="0 0 95.48099999999998 84.98872413262599" height="84.98872413262599" width="95.48099999999998" id="textblock"><g><svg viewBox="0 0 95.48099999999998 84.98872413262599" height="84.98872413262599" width="95.48099999999998"><g><svg viewBox="0 0 95.48099999999998 84.98872413262599" height="84.98872413262599" width="95.48099999999998"><g><svg xmlns="http://www.w3.org/2000/svg" xmlns:xlink="http://www.w3.org/1999/xlink" version="1.1" x="0" y="0" viewBox="4.052309210717943 7.715111524285793 94.47569248150772 84.09388847571421" enable-background="new 0 0 100 100" xml:space="preserve" height="84.98872413262599" width="95.48099999999998" class="icon-icon-0" data-fill-palette-color="accent" id="icon-0"><g fill="#ff4444" data-fill-palette-color="accent"><g fill="#ff4444" data-fill-palette-color="accent"><g fill="#ff4444" data-fill-palette-color="accent"><path fill="#ffffff" d="M95.603 51.168h-4.016V30.292c0-0.848-0.578-1.537-1.292-1.537-0.484 0.008-51.823 0.826-69.792-0.002-2.176-0.101-7.448-0.734-9.39-4.441-1.233-2.353-0.795-5.24 1.299-8.582l3.401 2.131c-0.882 1.406-1.795 3.344-1.144 4.586 0.748 1.428 3.561 2.181 6.018 2.293 17.846 0.824 69.061 0.008 69.574-0.001 2.96 0 5.341 2.49 5.341 5.552V51.168z" data-fill-palette-color="accent"></path></g><g fill="#ff4444" data-fill-palette-color="accent"><path fill="#ffffff" d="M20.097 91.809c-1.673 0-7.182-0.321-11.305-4.193C5.692 84.702 4.12 80.528 4.12 75.21V28.905c-0.113-1.011-0.476-6.053 3.026-10.117 2.903-3.371 7.55-5.08 13.807-5.08v4.014c-5.014 0-8.626 1.229-10.737 3.653-2.635 3.025-2.108 7.08-2.102 7.12l0.02 0.286V75.21c0 4.152 1.138 7.334 3.382 9.456 3.57 3.377 8.909 3.122 8.961 3.121l69.817-0.004c0.714 0 1.292-0.69 1.292-1.54V66.222h4.016v20.021c0 3.062-2.381 5.554-5.308 5.554H20.596C20.571 91.8 20.395 91.809 20.097 91.809z" data-fill-palette-color="accent"></path></g><g fill="#ff4444" data-fill-palette-color="accent"><path fill="#ffffff" d="M84.436 21.489h-4.015V19.26c0-0.848-0.581-1.539-1.293-1.539H52.441v-4.014h26.687c2.927 0 5.308 2.491 5.308 5.553V21.489z" data-fill-palette-color="accent"></path></g><g fill="#ff4444" data-fill-palette-color="accent"><g fill="#ff4444" data-fill-palette-color="accent"><path fill="#ffffff" d="M86.869 20.653c-21.217-4.297-42.431-8.596-63.646-12.894-0.97-0.197-2.297 0.269-2.469 1.402-0.616 4.057-1.231 8.112-1.847 12.167-0.383 2.533 3.484 3.62 3.872 1.067 0.615-4.056 1.23-8.112 1.845-12.167-0.823 0.467-1.645 0.935-2.469 1.402 21.215 4.298 42.433 8.596 63.646 12.893C88.33 25.035 89.405 21.167 86.869 20.653L86.869 20.653z" data-fill-palette-color="accent"></path></g></g><g fill="#ff4444" data-fill-palette-color="accent"><g fill="#ff4444" data-fill-palette-color="accent"><path fill="#ffffff" d="M52.029 21.116c-6.398-1.401-12.794-2.803-19.191-4.204-1.029-0.225-2.218 0.294-2.469 1.401-0.334 1.479-0.668 2.955-1 4.433-0.57 2.521 3.301 3.592 3.87 1.066 0.334-1.476 0.667-2.953 1.001-4.431-0.824 0.466-1.646 0.934-2.47 1.401 6.396 1.402 12.794 2.803 19.191 4.204C53.484 25.54 54.558 21.669 52.029 21.116L52.029 21.116z" data-fill-palette-color="accent"></path></g></g></g><g fill="#ff4444" data-fill-palette-color="accent"><path fill="#ffffff" d="M94.003 67.208H77.479c-4.088 0-4.528-2.698-4.528-3.857v-9.812c0-1.161 0.44-3.859 4.528-3.859h16.523c4.085 0 4.526 2.698 4.526 3.859v9.812C98.529 64.51 98.088 67.208 94.003 67.208zM76.655 63.425c0.135 0.036 0.389 0.081 0.824 0.081h16.523c0.434 0 0.688-0.045 0.822-0.081 0.002-0.021 0.002-0.047 0.002-0.074v-9.812c0-0.027 0-0.053-0.002-0.076-0.134-0.036-0.389-0.081-0.822-0.081H77.479c-0.436 0-0.689 0.045-0.824 0.081 0 0.023-0.002 0.049-0.002 0.076v9.812C76.653 63.378 76.655 63.403 76.655 63.425z" data-fill-palette-color="accent"></path></g></g></svg></g></svg></g></svg></g></svg></g></svg></g><g></g></svg></g><defs></defs></svg><rect width="95.48099999999998" height="84.98872413262599" fill="none" stroke="none" visibility="hidden"></rect></g></svg></g></svg>