<?xml version="1.0" encoding="utf-8"?>
<!-- Generator: Adobe Illustrator 24.1.1, SVG Export Plug-In . SVG Version: 6.00 Build 0)  -->
<svg version="1.1" xmlns="http://www.w3.org/2000/svg" xmlns:xlink="http://www.w3.org/1999/xlink" x="0px" y="0px" viewBox="0 0 500 500" style="enable-background:new 0 0 500 500;" xml:space="preserve">
    <style type="text/css">
    .st0 {
        fill: transparent;
    }

    .st1 {
        opacity: 0.5;
    }

    .st2 {
        fill: #00C49A;
    }

    .st3 {
        opacity: 0.2;
        fill: #083D40;
    }

    .st4 {
        opacity: 0.5;
        fill: #00C49A;
    }

    .st5 {
        fill: #156064;
    }

    .st6 {
        opacity: 0.2;
        fill: #0E367C;
    }

    .st7 {
        opacity: 0.2;
    }

    .st8 {
        fill: #0E367C;
    }

    .st9 {
        fill: #083D40;
    }

    .st10 {
        fill: #F95858;
    }

    .st11 {
        fill: #E53838;
    }

    .st12 {
        fill: #E8F2FC;
    }

    .st13 {
        fill: #FF9933;
    }

    .st14 {
        opacity: 0.2;
        fill: #032121;
    }

    .st15 {
        fill: #F8E16C;
    }

    .st16 {
        opacity: 0.4;
        fill: #C6AF4E;
    }

    .st17 {
        fill: #FFB19E;
    }

    .st18 {
        fill: #FF4751;
    }

    .st19 {
        fill: #CC3241;
    }

    .st20 {
        fill: #F48F7A;
    }

    .st21 {
        fill: #E4EDF7;
    }

    .st22 {
        fill: #DDC666;
    }

    .st23 {
        opacity: 0.41;
        fill: #13448C;
    }

    .st24 {
        opacity: 0.32;
        fill: #0E367C;
    }

    .st25 {
        fill-rule: evenodd;
        clip-rule: evenodd;
        fill: #FFB19E;
    }

    .st26 {
        fill-rule: evenodd;
        clip-rule: evenodd;
        fill: #083D40;
    }

    .st27 {
        fill-rule: evenodd;
        clip-rule: evenodd;
        fill: #F48F7A;
    }

    .st28 {
        fill: #A31919;
    }
    </style>
    <g id="BACKGROUND">
        <rect class="st0" width="500" height="500" />
    </g>
    <g id="OBJECTS">
        <g>
            <g class="st1">
                <path class="st2" d="M454.4,416.4c28.1,0,45.2-28.8,28.6-49.3c-0.3-0.4-0.7-0.9-1.1-1.3c-10.1-11.5-25.5-15.6-39-22
				c-3.8-1.8-7.5-3.8-10.2-7.2c-3.7-4.6-4.5-11.1-3.8-17c3.2-24.9,30.3-40.2,34.7-64.9c3.3-18.7-8.1-37.6-23.6-47.5
				c-15.5-9.9-34.2-12.4-52.3-13.1c-18.1-0.8-36.5-0.1-54.1-4.5c-4.7-1.2-9.5-2.8-12.6-6.6c-3.6-4.3-4.3-10.4-3.8-16.1
				c1.5-15.2,36.2-67.6,18.9-84.9c-6.8-6.8-16.1-10.5-25.5-9.5c-9.3,0.9-18.1,5.2-26.2,10c-17.3,10.2-77.6,77.7-99.2,87.9
				c-21.3,10-45.8,7.1-69.2,6.6c-23.4-0.5-49.3,3-64.6,21.5c-5.4,6.6-9.1,15.4-7.3,23.9c1.1,5.3,4.3,9.8,7.9,13.7
				c8.2,8.9,18.9,15,26.6,24.3c7.8,9.3,11.8,24.1,4.6,33.8c-2.8,3.8-6.9,6.2-11,8.5c-22.5,12.7-47.8,25.7-57.7,50.5
				c-5,12.6-4.9,26.6-1.2,39.7c4,13.9,17.8,23.6,33.8,23.6H454.4z" />
            </g>
            <path class="st3" d="M481.9,365.8c-10.1-11.5-25.5-15.6-39-22c-3.8-1.8-7.5-3.8-10.2-7.2c-3.7-4.6-4.5-11.1-3.8-17
			c3.2-24.9,30.3-40.2,34.7-64.9c3.3-18.7-8.1-37.6-23.6-47.5c-15.5-9.9-34.2-12.4-52.3-13.1c-18.1-0.8-36.5-0.1-54.1-4.5
			c-4.7-1.2-9.5-2.8-12.6-6.6c-3.6-4.3-4.3-10.4-3.8-16.1c1.5-15.2,36.2-67.6,18.9-84.9c-5.9-5.9-13.7-9.5-21.8-9.7
			c11,3,19,9.3,13.2,22.1c-13.5,29.7-138.8,128.5-50.8,138.2c88,9.7-57.8,88,8.6,93.4c50.7,4.1-53.3,63.5-105.2,90.3h274.3
			c28.1,0,45.2-28.8,28.6-49.3C482.6,366.7,482.3,366.2,481.9,365.8z" />
            <path class="st4" d="M82.7,154.5c0,0,91.2,31.4,131.8-42S6.1,127.2,82.7,154.5z" />
            <path class="st3" d="M194.7,83.9c6.5,4.3,7.7,12,1,24.3C167,160.1,113,159.6,83.8,154.8c10.6,3.3,92.7,26.2,130.6-42.4
			C225.6,92.2,214.7,84.3,194.7,83.9z" />
            <path class="st5" d="M52.6,382.6c0,0-3.3-3.1-1.1-14.9c2.2-11.8,7.9-23.1,5.1-35.9C53.9,319,32.1,286.7,32,284.5
			c-0.1-2.1-6.7,37.5,4.5,53.2c11.3,15.6,12.6,21.1,12.1,29.3c-0.5,8.2,0.1,14.8,1.4,16.8L52.6,382.6z" />
            <path class="st6" d="M50.6,358.9c-1.3,5.3-2.1,18.5,0,21.6c0.2,0.3,0.5,0.1,0.8-0.4c-0.6-2.2-1.1-6,0.1-12.4
			c2.2-11.8,7.9-23.1,5.1-35.9C53.9,319,32.1,286.7,32,284.5c0,0,3.3,26.9,14.4,45.4C54.3,343.2,51.9,353.6,50.6,358.9z" />
            <path class="st5" d="M56.6,381.8c0,0-6.4-16,4.5-29.8c10.9-13.8,28.2-31.6,28.6-38.7c0,0,4.5,33.4-9.7,42.9
			c-14.1,9.5-24,11-21.6,25.5L56.6,381.8z" />
            <path class="st6" d="M71.9,349.4c-15.8,11.5-17,24.7-14.6,30.8c0.2,0.5,0.6,0.8,1,0.9c-2.1-14.1,7.7-15.7,21.7-25
			c14.1-9.5,9.7-42.9,9.7-42.9S87.6,338,71.9,349.4z" />
            <path class="st5" d="M46.1,382.1c0,0,2.1-8.5,1-17.6c-1.1-9.1-10.6-14.3-19.6-23.9c-4.6-5-6-31.2-3.1-33.7
			c0,0-15.8,19.1-13.3,33.1c2.4,14,28.1,23.1,30.5,29.8c2.4,6.8,2.2,12.4,2.2,12.4L46.1,382.1z" />
            <g class="st7">
                <path class="st8" d="M19,314.4c-5.2,14.1,0.1,31.2,17.4,41.8c12.7,7.8,8.7,24.1,8.7,24.1l2.1-6.4c0.2-2.8,0.2-6-0.2-9.3
				c-1.1-9.1-10.6-14.3-19.6-23.9c-4.4-4.8-5.8-29.4-3.4-33.3C23.4,308.1,21.3,310.8,19,314.4z" />
                <path class="st8" d="M24.1,307.2c0.2-0.2,0.3-0.4,0.3-0.4C24.3,307,24.2,307.1,24.1,307.2z" />
            </g>
            <path class="st9" d="M59.9,381.1c0,0,3.7-13.7,12.8-15.5c9.1-1.8,19.6-15.3,20.2-18C92.9,347.5,91.4,373,59.9,381.1z" />
            <path class="st5" d="M72.2,370c-5.6,2.8-7.9,6.6-8.8,10c28-9,29.5-32.5,29.5-32.5c-0.1,0.5-0.6,1.5-1.4,2.7
			C88.8,355,82.1,365.1,72.2,370z" />
            <path class="st10" d="M79.7,376H31.9l5.7,35.7c0.4,2.7,2.8,4.7,5.5,4.7h25.4c2.7,0,5.1-2,5.5-4.7L79.7,376z" />
            <polygon class="st11" points="78.7,381.9 79.7,376 31.9,376 32.8,381.9 		" />
            <path class="st11" d="M68.1,376l-5.7,35.7c-0.4,2.7-2.8,4.7-5.5,4.7h11.6c2.7,0,5.1-2,5.5-4.7l5.7-35.7H68.1z" />
            <g>
                <rect x="257.8" y="335.1" class="st0" width="9.9" height="81.3" />
                <rect x="263.8" y="335.1" class="st12" width="3.9" height="81.3" />
                <path class="st0" d="M291.3,409.8H237c-1.8,0-3.3,1.5-3.3,3.3l0,0c0,1.8,1.5,3.3,3.3,3.3h54.4c1.8,0,3.3-1.5,3.3-3.3l0,0
				C294.7,411.3,293.2,409.8,291.3,409.8z" />
                <path class="st12" d="M291.3,409.8H237c-1.2,0-2.3,0.7-2.8,1.6h47.1c1.8,0,3.3,1.5,3.3,3.3c0,0.6-0.2,1.2-0.5,1.7h7.3
				c1.8,0,3.3-1.5,3.3-3.3C294.7,411.3,293.2,409.8,291.3,409.8z" />
                <rect x="257.8" y="335.1" class="st12" width="9.9" height="7.2" />
                <path class="st13" d="M319.3,221.8c-1.4-0.6-3-1-4.6-1h-56c-5.5,0-10.2,3.9-11.2,9.3l-17.5,91.7c-0.3,1.5-0.3,2.9,0,4.3
				c0,0,0,0.1,0,0.1h-15.6c-2.6,0-4.6,2.1-4.6,4.6c0,2.6,2.1,4.6,4.6,4.6h50.3v-0.1h32.4c5.5,0,10.2-3.9,11.2-9.3l17.5-91.7
				C326.9,228.9,323.9,223.8,319.3,221.8z" />
                <path class="st12" d="M325.9,234.3L308.3,326c-1,5.4-5.7,9.3-11.2,9.3h-32.4v0.1h-50.3c-2.6,0-4.6-2.1-4.6-4.6
				c0-2.6,2.1-4.6,4.6-4.6H230c0,0,0-0.1,0-0.1c0.1,0,0.3,0,0.4,0h56c7.5,0,14-5.3,15.4-12.7l17.5-91.6
				C323.9,223.8,326.9,228.9,325.9,234.3z" />
                <path class="st0" d="M301.9,312.8l-0.1,0.5c-1.4,7.4-7.9,12.7-15.4,12.7h-56c-0.1,0-0.3,0-0.4,0c0,0,0,0.1,0,0.1h-15.6
				c-2.3,0-4.2,1.7-4.6,3.9v-12.5c0,0,0-0.1,0-0.1c-0.4-2.5,1.7-4.7,4.2-4.7H301.9z" />
                <path class="st0" d="M319.3,221.8l-17.5,91.6c-1.4,7.4-7.9,12.7-15.4,12.7h-56c-0.1,0-0.3,0-0.4,0c-0.3-1.4-0.3-2.8,0-4.3
				l17.5-91.7c1-5.4,5.7-9.3,11.2-9.3h56C316.3,220.8,317.9,221.1,319.3,221.8z" />
            </g>
            <path class="st9" d="M186.6,199.8H91.3c-2.2,0-3.9,2-3.6,4.2l8.2,56c0.3,1.8,1.8,3.1,3.6,3.1h95.3c2.2,0,3.9-2,3.6-4.2l-8.2-56
			C189.9,201.1,188.4,199.8,186.6,199.8z" />
            <path class="st14" d="M173.3,199.8h-82c-2.2,0-3.9,2-3.6,4.2l3.6,24.8c8.8,3.8,18.7,6,29.3,6C148,234.7,164.1,220.2,173.3,199.8z" />
            <g>
                <path class="st5" d="M143.4,242.5h-12.2h-5.9c-1.6,0-2.8,1.4-2.5,2.9l5.5,37.5c0,0.1,0,0.2,0,0.4l0.2,1.5
				c0.2,1.3,1.3,2.2,2.5,2.2h5.9h11.9L143.4,242.5z" />
                <path class="st5" d="M169.7,284.4c0-1.4-1.2-2.5-2.6-2.5h-13.7c-2,0-3.7-1.5-4-3.5l-4-29.2h2.4c1.6,0,2.8-1.4,2.5-2.9l-0.2-1.5
				c-0.2-1.3-1.3-2.2-2.5-2.2l-4.7,0c-2.2,0-3.8,1.9-3.5,4l5,37.2c0.2,1.9,1.8,3.2,3.7,3.2l19.1,0
				C168.6,287,169.7,285.8,169.7,284.4L169.7,284.4z" />
            </g>
            <g>
                <path class="st5" d="M159.9,255c0,0.9-0.8,1.7-1.7,1.7c-0.9,0-1.7-0.8-1.7-1.7c0-0.9,0.8-1.7,1.7-1.7
				C159.2,253.3,159.9,254,159.9,255z" />
                <path class="st5" d="M168.7,255c0,0.9-0.8,1.7-1.7,1.7c-0.9,0-1.7-0.8-1.7-1.7c0-0.9,0.8-1.7,1.7-1.7
				C167.9,253.3,168.7,254,168.7,255z" />
                <circle class="st5" cx="174.7" cy="255" r="1.7" />
            </g>
            <path class="st14" d="M184.8,225.8l5,34.2c0.3,1.8,1.8,3.1,3.6,3.1h1.4c2.2,0,3.9-2,3.6-4.2l-8.2-56c-0.3-1.8-1.8-3.1-3.6-3.1
			h-1.4c-2.2,0-3.9,2-3.6,4.2L184.8,225.8" />
            <g>
                <path class="st5" d="M148.7,205.9h-33.3c-0.8,0-1.4,0.7-1.3,1.5l0.2,1.4c0.1,0.6,0.7,1.1,1.3,1.1h33.3c0.8,0,1.4-0.7,1.3-1.5
				L150,207C149.9,206.4,149.4,205.9,148.7,205.9z" />
            </g>
            <path class="st9" d="M283.8,223c-1.1-8.1-12.9-4.3-8.5-11.9c4.1-7-0.7-10.1-6.3-11.2c-7.2-1.4-3.1-4.2-6.6-11
			c-4.5-8.6-11.4-6-11.4-6s-8.6-4.7-17.5,2.7c-9.3,7.8-7.3,14.8-2.3,24.3c2.5,4.8-0.6,9.1-2.8,17.9c-2.6,10.6,10.5,32,38.5,17.5
			C277.8,239.8,284.4,227.3,283.8,223z" />
            <path class="st15" d="M245.1,225.2c0,0-4.3,0.5-8.6,4.8c-2.9,2.9-17.3,31.4-17.3,31.4L206,220.9l-9.7,0.7c0,0,10.9,65.1,19.4,65.3
			c8,0.1,33.5-42.1,33.5-42.1L245.1,225.2z" />
            <path class="st15" d="M272.4,242.3l8.5,31.7l-50.1,4.1l0.2,9.1c0,0,57.8,0.3,68.7,0.1c7.3-0.1-6.4-57.5-15.1-64.1
			c-6.9-5.2-25.9-3.8-25.9-3.8l-13.6,5.8c0,0-15.7,15.6-6.3,30.3c7.4,11.6-2,34-2,34l32,1.9l28.6,0.3L272.4,242.3z" />
            <path class="st16" d="M240.5,277.3l1.8-0.3c1.7-7.5,2-17.8-1.9-22.7c-7.8-9.8,0.2-23.9,4.7-29.1h0c-0.7,0.7-15.5,15.9-6.3,30.2
			C243.1,262.3,242.1,271.2,240.5,277.3z" />
            <path class="st17" d="M230.9,280.2c-5.3,0.2-11,2.1-13.6,5.2c-0.6,0.7-0.1,1.8,0.8,1.8H231L230.9,280.2z" />
            <g>
                <path class="st17" d="M258.7,208.8v10.7l-9.6,11l-0.1-0.1l-2.6-5.6v-6c-4.8-0.7-9-4.3-10.1-9.5l-1.4-7.4c0,0,7.2-0.8,12.8-6.5
				c0,0,1.7,3.1,4.2,5.6c1.8,1.8,4.2,2.2,5.2,3.2C258.4,205.3,258.8,207,258.7,208.8z" />
                <path class="st18" d="M256,199.5c0,0-0.4-4.5-2.1-8.4c-2-4.4-4.7-9.6-10.5-9.6c0,0,13.9-2.2,16.3,17.2L256,199.5z" />
                <g>
                    <path class="st18" d="M264.4,202.7c-0.4-3.7-3.5-6.4-7-6.1c-3.4,0.4-5.9,3.7-5.5,7.4c0.4,3.7,3.5,6.4,7,6.1
					C262.3,209.7,264.8,206.4,264.4,202.7z" />
                    <path class="st19" d="M260,209.4c-3.3,0.4-6.3-2.3-6.7-5.8c-0.4-3.3,1.7-6.3,4.6-7c-0.2,0-0.3,0-0.5,0c-3.4,0.4-5.9,3.7-5.5,7.4
					c0.4,3.7,3.5,6.4,7,6.1c1.1-0.1,2-0.5,2.9-1.1C261.2,209.2,260.6,209.4,260,209.4z" />
                    <path class="st19" d="M262,202.8c-0.2-1.8-1.7-3.1-3.4-2.9c-1.7,0.2-2.9,1.8-2.7,3.6c0.2,1.8,1.7,3.1,3.4,2.9
					C261,206.3,262.2,204.7,262,202.8z" />
                </g>
                <path class="st20" d="M255.5,214.2c-0.4,0.5-2.7,3.4-4.5,4.9c-0.7,0.6-1.1,1.5-1.1,2.5l-0.8,8.8l-2.6-5.6v-6l0.1-0.1
				C246.5,218.7,252.5,217.8,255.5,214.2z" />
                <g>
                    <path class="st18" d="M251.4,213.7l-0.1-0.6c3.5-0.6,6.1-5.3,6.1-5.4l0.5,0.3C257.8,208.3,255.2,213.1,251.4,213.7z" />
                    <path class="st18" d="M252,213.4c-0.1-0.6-1-0.9-1.9-0.7c-1,0.2-1.7,0.8-1.6,1.4c0.1,0.6,1,0.9,1.9,0.7
					C251.4,214.6,252.1,214,252,213.4z" />
                </g>
            </g>
            <path class="st17" d="M205.2,221.2c0,0,1.4-11.2,0.1-11.6c-1.2-0.4-2.5,4.4-2.5,4.4s-5.2-10.1-8.7-9c-3.6,1.1,3,16.6,3,16.6
			L205.2,221.2z" />
            <path class="st16" d="M240.4,277.2l39.5-3.3c1.4-0.1,2.3-1.4,2-2.7c-1.5-7.4-5.7-28.5-5.9-27.9c-0.3,0.8,4,24.9-1.1,27.3
			C271.5,272.3,240.4,277.2,240.4,277.2z" />
            <path class="st17" d="M267.3,394c-0.3,0.1-0.6,0.2-0.8,0.5c-2.5,3.5-4.7,4.3-9.1,4.9c-0.3,0-0.5,0.1-0.8,0.3
			c0.3-0.5,1.8-2.9,0.8-5.1c-1.1-2.4-2.5-4.2-2.5-4.2l6.4-3.8C261.3,386.6,265.2,391.1,267.3,394z" />
            <path class="st9" d="M272,402.2c-1.1,1.1-19.5,11.1-23.9,13.7c-0.5,0.3-1.6,0.9-1.8,0.3c-0.3-0.9,7.6-16.2,11-16.7
			c4.4-0.6,6.6-1.4,9.1-4.9c0.5-0.7,1.6-0.7,2.1,0C270.4,397.2,273,401.3,272,402.2z" />
            <path class="st9" d="M237,289.4c0,0-44.6,20.7-45.8,35c-1.1,12.7,64.7,71.1,64.7,71.1l10.4-4.3l-36-58c0,0,38.1-18.8,47.4-41.4
			L237,289.4z" />
            <path class="st6" d="M208.6,320.6c-3,5.8-5.2,13.9-6.8,21.3c5,6,11.4,12.7,18,19.4c-4.9-19.2-9.2-38.5-7.7-41.2
			c2.8-5.3,21.7-19.2,35.1-26.2C247.2,293.9,215.6,307.1,208.6,320.6z" />
            <path class="st17" d="M241,406c-0.3-0.1-0.6-0.1-0.9,0.1c-3.9,1.8-6.2,1.5-10.4-0.2c-0.2-0.1-0.5-0.2-0.9-0.2c0.5-0.3,3-1.7,3.2-4
			c0.2-2.7-0.1-4.9-0.1-4.9l7.5-0.2C239.4,396.6,240.6,402.5,241,406z" />
            <path class="st9" d="M241.2,416c-1.5,0.4-23.2,0.2-28.3,0.2c-0.6,0-1.1-0.5-1-1.2c0.2-0.9,14.6-10.4,17.8-9.2
			c4.1,1.6,6.5,2,10.4,0.2c0.8-0.4,1.8,0.2,1.8,1.1C242.2,410.3,242.4,415.7,241.2,416z" />
            <path class="st9" d="M297.2,291.5c0,0,3.7,25.3-18.9,31.6c-17.8,5-37,7.6-37,7.6l1.4,71.7h-11.9c0,0-21.8-76.6-18.8-82.3
			c3.5-6.5,31.3-26.2,43.2-29.7L297.2,291.5z" />
            <path class="st6" d="M241.4,330.8c0,0,19.1-2.6,37-7.6c22.6-6.4,18.9-31.6,18.9-31.6l-14-0.4c-4.2,9.1-17.9,31.5-51.1,33.9
			l7.5,77.4h3.1L241.4,330.8z" />
            <g>
                <g>
                    <polygon class="st0" points="94.1,416.5 89.1,416.4 109.8,291.9 114.8,291.9 				" />
                    <polygon class="st0" points="299.3,416.4 304.6,416.5 278.9,290.5 273.6,290.5 				" />
                </g>
                <g>
                    <polygon class="st21" points="113.4,298.8 114.8,291.9 109.8,291.9 108.4,298.8 				" />
                    <polygon class="st21" points="280.6,298.8 278.9,290.5 273.6,290.5 275.3,298.8 				" />
                </g>
                <path class="st0" d="M309.1,287.1H84.4c-1.4,0-2.5,1.1-2.5,2.5l0,0c0,1.4,1.1,2.5,2.5,2.5h224.7c1.4,0,2.5-1.1,2.5-2.5l0,0
				C311.7,288.2,310.5,287.1,309.1,287.1z" />
            </g>
            <path class="st9" d="M220.3,176.7l-5.9-34.3c-0.2-1.6-1.6-2.8-3.2-2.8l-55.1,0.6c-2,0-3.5,1.7-3.2,3.7l5.2,30.1l2.6,17
			c0.1,0.9,1.3,1.2,1.8,0.4l7-10.5l47.5-0.5C219.1,180.4,220.6,178.7,220.3,176.7z" />
            <g>
                <g>
                    <path class="st0" d="M200.8,150.3h-31.9c-0.5,0-1,0.5-0.9,1l0.2,0.9c0.1,0.4,0.4,0.7,0.9,0.7h31.9c0.5,0,1-0.5,0.9-1l-0.2-0.9
					C201.6,150.6,201.2,150.3,200.8,150.3z" />
                </g>
                <g>
                    <path class="st0" d="M201.8,158.8h-31.9c-0.5,0-1,0.5-0.9,1l0.2,0.9c0.1,0.4,0.4,0.7,0.9,0.7H202c0.5,0,1-0.5,0.9-1l-0.2-0.9
					C202.6,159.1,202.3,158.8,201.8,158.8z" />
                </g>
                <g>
                    <path class="st0" d="M194.2,168l-14.8,0c-0.5,0-1,0.5-0.9,1l0.2,0.9c0.1,0.4,0.4,0.7,0.9,0.7l14.8,0c0.5,0,1-0.5,0.9-1l-0.2-0.9
					C195,168.3,194.7,168,194.2,168z" />
                </g>
            </g>
            <path class="st9" d="M444.1,122.4l7.3-32.2c0.4-1.5-0.5-2.6-2-2.6l-52,0.6c-1.9,0-3.9,1.6-4.4,3.5l-6.4,28.3l-3.9,16
			c-0.2,0.8,0.8,1.1,1.6,0.4l10.6-9.9l44.9-0.5C441.5,125.9,443.6,124.2,444.1,122.4z" />
            <g>
                <g>
                    <path class="st0" d="M434.8,98h-28.6c-0.5,0-1,0.4-1.2,0.9l-0.2,0.8c-0.1,0.4,0.1,0.7,0.5,0.7H434c0.5,0,1-0.4,1.2-0.9l0.2-0.8
					C435.4,98.3,435.2,98,434.8,98z" />
                </g>
                <g>
                    <path class="st0" d="M432.7,105.6h-28.6c-0.5,0-1,0.4-1.2,0.9l-0.2,0.8c-0.1,0.4,0.1,0.7,0.5,0.7h28.6c0.5,0,1-0.4,1.2-0.9
					l0.2-0.8C433.3,105.9,433.1,105.6,432.7,105.6z" />
                </g>
                <g>
                    <path class="st0" d="M422.6,113.8l-13.2,0c-0.5,0-1,0.4-1.2,0.9l-0.2,0.8c-0.1,0.4,0.1,0.7,0.5,0.7l13.2,0c0.5,0,1-0.4,1.2-0.9
					l0.2-0.8C423.2,114.1,423,113.8,422.6,113.8z" />
                </g>
            </g>
            <path class="st15" d="M147.7,176.5c0.7,0.6,1.8,0,1.6-0.9l-7.1-40.7c-0.2-1.3-1.4-2.3-2.7-2.3L92.8,133c-1.7,0-3,1.5-2.7,3.1
			l5,29.1c0.2,1.3,1.4,2.3,2.7,2.3l36-0.4c1.7,0,3.4,0.6,4.7,1.7L147.7,176.5z" />
            <g>
                <g>
                    <path class="st0" d="M133.1,144.7h-31.9c-0.5,0-1,0.5-0.9,1l0.2,0.9c0.1,0.4,0.4,0.7,0.9,0.7h31.9c0.5,0,1-0.5,0.9-1l-0.2-0.9
					C133.9,145,133.6,144.7,133.1,144.7z" />
                </g>
                <g>
                    <path class="st0" d="M134.2,153.2h-31.9c-0.5,0-1,0.5-0.9,1l0.2,0.9c0.1,0.4,0.4,0.7,0.9,0.7h31.9c0.5,0,1-0.5,0.9-1l-0.2-0.9
					C135,153.5,134.6,153.2,134.2,153.2z" />
                </g>
            </g>
            <path class="st9" d="M394.1,244.5l-0.2,6.4l-3.8,148.8h-15.4l-13.6-127.5c0,0,0,0,0,0l-17.3,43l11.8,84.5l-5.7,0l-9.4,0.1
			c0,0-28.1-84.3-27.5-89.8c0.6-5.4,21.7-65,21.7-65L394.1,244.5z" />
            <polygon class="st5" points="395.6,152.3 366.7,148.4 366,148.3 352.2,148.3 352.1,148.4 335.6,152.5 335.6,245.3 395.6,245.3 		
			" />
            <path class="st17" d="M445,170.4c0,0,2.1-13.1,3.6-13.2c1.5-0.1,1.4,5.7,1.4,5.7s9.2-9.7,12.8-7.4c3.7,2.4-8.8,17.9-8.8,17.9
			L445,170.4z" />
            <path class="st15" d="M352.2,148.4l1.6,102.5h-21.6l-1.5-28l-28.7-0.5c-3,0.1-5.2-2.7-4.4-5.6l14.3-49.6
			c1.7-5.8,6.3-10.3,12.1-11.7l28-7L352.2,148.4z" />
            <path class="st15" d="M455,173.9l-27.8,57.1c-1.8,3.2-6.3,3.3-8.2,0.2l-21.7-36l-1.1,55.8h-23.1l-6.5-102.5l0.1,0l29.3,4
			c5.5,0.8,10.3,4.4,12.8,9.4l14.8,30.6c0.4,0.8,1.4,0.9,1.9,0.2l18.9-22.6L455,173.9z" />
            <polygon class="st22" points="330.5,223.1 358.7,223.1 359,208.7 330.8,208.3 		" />
            <path class="st17" d="M358.9,219.1c7.9-0.3,16.4-3.1,20.4-7.8c0.9-1,0.1-2.6-1.2-2.6h-19.3L358.9,219.1z" />
            <polygon class="st23" points="347.9,223.7 347.9,223.2 330.7,223.1 332.2,250.9 337.3,227.9 		" />
            <polygon class="st24" points="393.9,250.9 390.1,399.7 389,399.7 378.7,250.9 		" />
            <path class="st23" d="M358.9,208.6c0,0-38.2,2.8-38,2l6.6-22.9l0.1,0.3l0.7,15.9C328.4,206.2,356.9,208,358.9,208.6z" />
            <path class="st23" d="M427.2,230.9l27.8-57.1l-0.1,0c-2.9,0-28.8,54-31.5,55.4c-3.1,1.5-26.1-34.2-26.1-34.2l21.7,36
			C420.9,234.2,425.4,234.1,427.2,230.9z" />
            <g>
                <path class="st9" d="M342.2,399.7c-3.3,6.8-19.1,10.2-19.1,10.2s-1.1,2,0.7,4.5c1.8,2.5,18.4,1,20.5,0.5c2.1-0.5,3.5-2.1,3.5-2.1
				s1.4,1.5,2.2,1.9c0.8,0.4,5-0.5,5-0.5c1-2.7,0-13-0.3-14.7L342.2,399.7z" />
            </g>
            <g>
                <path class="st9" d="M388.6,399.7c3.3,6.8,19.1,10.2,19.1,10.2s1.1,2-0.7,4.5c-1.8,2.5-18.4,1-20.5,0.5c-2.1-0.5-3.5-2.1-3.5-2.1
				s-1.4,1.5-2.2,1.9c-0.8,0.4-5-0.5-5-0.5c-1-2.7,0-13,0.3-14.7L388.6,399.7z" />
            </g>
            <path class="st24" d="M343.7,315.2l11.8,84.5l-5.7,0c-3.5-18.2-15.8-79-15.3-82.8c0.5-4.6,25.7-43.4,26.5-44.7L343.7,315.2z" />
            <path class="st25" d="M366.6,148.5c-2.1,1.7-7.2,5.2-7.2,5.2s-5.1-3.5-7.3-5.2l0-12.2h14.4V148.5z" />
            <path class="st25" d="M366.6,136.3v5.1c-4.2,3.5-10.3,3.5-14.4,0.1v-5.2H366.6z" />
            <path class="st26" d="M343.4,128.4h32.5l0.5-9c7.2-3,1.8-20.1,1.8-20.1c0.4,4.1-10.8,4.3-15.2,3.6c-4.4-0.7-7.5,1.1-7.5,1.1
			s-14.1-3-13.2,16.7C342.4,123.5,342.8,126.1,343.4,128.4z" />
            <g>
                <path class="st25" d="M372.4,119.3v8.1c0,3.5-1.4,6.8-4,9.2c-0.4,0.4-0.8,0.8-1.3,1.2c-4.4,4.1-11.2,4.1-15.6,0l-1.2-1.2
				c-2.5-2.4-4-5.7-4-9.2v-6.2c0,0,3.8-2.5,8.9-8.7C355.3,112.6,361,118.1,372.4,119.3z" />
                <path class="st27" d="M366.6,138.3v3.1c-4.2,3.5-10.3,3.5-14.4,0.1v-3.1C356.4,141.8,362.5,141.8,366.6,138.3z" />
                <path class="st25" d="M349.6,129.3c2.5-4-1.7-8.3-5.8-5.8c-0.3,0.2-0.6,0.5-0.8,0.8c-2.5,4,1.7,8.3,5.8,5.8
				C349.1,129.9,349.4,129.6,349.6,129.3z" />
                <path class="st25" d="M375.5,129.3c2.5-3.9-1.5-8.1-5.5-5.9c-0.5,0.3-1,0.7-1.2,1.2c-2.2,4,2,7.9,5.9,5.5
				C375.1,129.9,375.3,129.6,375.5,129.3z" />
            </g>
            <g>
                <path class="st28" d="M375.4,120.7h-1.2v-4.3c0-7.1-6.5-12.9-14.4-12.9h-0.6c-8,0-14.4,5.8-14.4,12.9v4.3h-1.2v-4.3
				c0-7.7,7-14,15.7-14h0.6c8.6,0,15.7,6.3,15.7,14V120.7z" />
                <g>
                    <g>
                        <g>
                            <path class="st10" d="M374.4,118.4L374.4,118.4c-1.9,0-3.5,1.6-3.5,3.5v6.2c0,1.9,1.6,3.5,3.5,3.5l0,0c1.9,0,3.5-1.6,3.5-3.5
							v-6.2C377.9,120,376.3,118.4,374.4,118.4z" />
                            <path class="st19" d="M374.4,118.4c-0.4,0-0.7,0.1-1,0.2c1.4,0.4,2.4,1.8,2.4,3.3v6.2c0,1.5-1,2.9-2.4,3.3
							c0.3,0.1,0.7,0.2,1,0.2c1.9,0,3.5-1.6,3.5-3.5v-6.2C377.9,120,376.3,118.4,374.4,118.4z" />
                        </g>
                        <g>
                            <path class="st10" d="M344.5,118.4L344.5,118.4c-1.9,0-3.5,1.6-3.5,3.5v6.2c0,1.9,1.6,3.5,3.5,3.5l0,0c1.9,0,3.5-1.6,3.5-3.5
							v-6.2C348,120,346.4,118.4,344.5,118.4z" />
                            <path class="st19" d="M344.5,118.4c-0.4,0-0.7,0.1-1,0.2c1.4,0.4,2.4,1.8,2.4,3.3v6.2c0,1.5-1,2.9-2.4,3.3
							c0.3,0.1,0.7,0.2,1,0.2c1.9,0,3.5-1.6,3.5-3.5v-6.2C348,120,346.4,118.4,344.5,118.4z" />
                        </g>
                    </g>
                    <g>
                        <path class="st18" d="M365,135.5l0-0.7c4-0.3,7.4-5.2,7.4-5.2l0.6,0.4C372.8,130.2,369.3,135.2,365,135.5z" />
                        <path class="st18" d="M365.7,135.2c0-0.6-1-1.1-2.1-1c-1.1,0.1-2,0.7-2,1.3c0,0.6,1,1.1,2.1,1
						C364.9,136.4,365.8,135.8,365.7,135.2z" />
                    </g>
                </g>
            </g>
            <path class="st9" d="M382.2,166.3h-50.4c-2.7,0-4.9,2.4-4.8,5.3l1.3,32.5c0.1,2.6,2.3,4.7,4.9,4.7h47.5c2.6,0,4.8-2.1,4.9-4.7
			l1.3-32.5C387.1,168.7,385,166.3,382.2,166.3z" />
            <path class="st14" d="M382.2,166.3h-50.4c-1.4,0-2.6,0.6-3.5,1.6c0.4-0.1,0.8-0.2,1.3-0.2h50.4c2.7,0,4.9,2.4,4.8,5.3l-1.3,32.5
			c0,1.2-0.6,2.3-1.3,3.1c1.9-0.6,3.4-2.4,3.5-4.5l1.3-32.5C387.1,168.7,385,166.3,382.2,166.3z" />
            <path class="st5" d="M362.4,188.4c0-3.2-2.6-5.7-5.7-5.7c-3.2,0-5.7,2.6-5.7,5.7c0,3.2,2.6,5.7,5.7,5.7
			C359.8,194.1,362.4,191.6,362.4,188.4z" />
        </g>
    </g>
    <g id="DESIGNED_BY_FREEPIK">
    </g>
</svg>