<svg id="visual" viewBox="0 0 900 600" width="900" height="600" xmlns="http://www.w3.org/2000/svg" xmlns:xlink="http://www.w3.org/1999/xlink" version="1.1"><rect x="0" y="0" width="900" height="600" fill="#fff"></rect><defs><linearGradient id="grad1_0" x1="33.3%" y1="0%" x2="100%" y2="100%"><stop offset="20%" stop-color="#ffffff" stop-opacity="1"></stop><stop offset="80%" stop-color="#ffffff" stop-opacity="1"></stop></linearGradient></defs><defs><linearGradient id="grad2_0" x1="0%" y1="0%" x2="66.7%" y2="100%"><stop offset="20%" stop-color="#ffffff" stop-opacity="1"></stop><stop offset="80%" stop-color="#ffffff" stop-opacity="1"></stop></linearGradient></defs><g transform="translate(900, 0)"><path d="M0 297.5C-42 296.3 -84 295.2 -113.8 274.8C-143.7 254.4 -161.4 214.8 -185.3 185.3C-209.1 155.7 -239 136.3 -258.7 107.2C-278.4 78 -287.9 39 -297.5 0L0 0Z" fill="#f6f8fc"></path></g><g transform="translate(0, 600)"><path d="M0 -297.5C38 -292 76 -286.5 113.3 -273.5C150.5 -260.4 187.1 -239.8 210.3 -210.3C233.6 -180.9 243.6 -142.5 255.9 -106C268.2 -69.5 282.8 -34.7 297.5 0L0 0Z" fill="#f6f8fc"></path></g></svg>