<svg id="visual" viewBox="0 0 900 100" width="900" height="100" xmlns="http://www.w3.org/2000/svg" xmlns:xlink="http://www.w3.org/1999/xlink" version="1.1"><path d="M0 53L15 52.3C30 51.7 60 50.3 90 43C120 35.7 150 22.3 180 28.8C210 35.3 240 61.7 270 70.8C300 80 330 72 360 62.5C390 53 420 42 450 41.5C480 41 510 51 540 59.3C570 67.7 600 74.3 630 72.2C660 70 690 59 720 48.8C750 38.7 780 29.3 810 28C840 26.7 870 33.3 885 36.7L900 40L900 0L885 0C870 0 840 0 810 0C780 0 750 0 720 0C690 0 660 0 630 0C600 0 570 0 540 0C510 0 480 0 450 0C420 0 390 0 360 0C330 0 300 0 270 0C240 0 210 0 180 0C150 0 120 0 90 0C60 0 30 0 15 0L0 0Z" fill="#0f162c" stroke-linecap="round" stroke-linejoin="miter"></path></svg>