<svg width="181" height="193" viewBox="0 0 181 193" fill="none" xmlns="http://www.w3.org/2000/svg">
<path d="M165.206 0.102943H15.7353C7.48026 0.102943 0.788239 6.79497 0.788239 15.05V177.973C0.788239 186.228 7.48026 192.92 15.7353 192.92H165.206C173.461 192.92 180.153 186.228 180.153 177.973V15.05C180.153 6.79497 173.461 0.102943 165.206 0.102943Z" fill="#ff843b"/>
<path d="M77.9036 163.339C47.2479 163.339 30.6824 159.531 30.6824 123.543V59.3759C30.6824 42.2391 42.8685 30.053 60.1957 30.053C80.5694 30.053 115.414 27.5777 125.506 55.5677C128.552 64.1361 128.171 74.4181 126.077 82.9865C143.404 89.27 150.259 101.456 150.259 124.876C150.259 141.251 142.262 152.486 126.458 158.388C111.796 163.91 93.7075 163.339 77.9036 163.339ZM60.1957 43.1911C52.5793 43.1911 43.8205 47.3801 43.8205 59.3759V122.972C43.8205 148.487 50.4848 150.201 77.9036 150.201C109.321 150.201 137.121 150.01 137.121 124.876C137.121 106.978 133.312 99.9329 121.698 95.3631C116.176 108.501 105.132 122.02 90.4706 122.02C73.5242 122.02 63.623 104.122 72.3818 90.4124C77.9036 82.2249 91.2322 74.6085 113.51 79.1783C115.033 71.3716 114.843 65.0881 113.129 59.9471C106.655 41.8583 81.1406 43.1911 60.1957 43.1911ZM83.4255 97.6479C79.8077 103.36 85.52 110.977 93.5171 108.501C99.039 106.978 105.322 99.3616 108.94 91.7453C99.8006 90.222 87.9953 90.9837 83.4255 97.6479Z" fill="#FFF"/>
</svg>
