<?xml version="1.0" encoding="UTF-8" standalone="no"?>
<svg
   width="395.99999999999994"
   height="150.2470588235294"
   viewBox="0 0 340 129"
   class="css-1j8o68f"
   version="1.1"
   id="svg15"
   sodipodi:docname="s21G98e5Zx2.svg"
   xmlns:inkscape="http://www.inkscape.org/namespaces/inkscape"
   xmlns:sodipodi="http://sodipodi.sourceforge.net/DTD/sodipodi-0.dtd"
   xmlns="http://www.w3.org/2000/svg"
   xmlns:svg="http://www.w3.org/2000/svg">
  <sodipodi:namedview
     id="namedview17"
     pagecolor="#ffffff"
     bordercolor="#666666"
     borderopacity="1.0"
     inkscape:pageshadow="2"
     inkscape:pageopacity="0.0"
     inkscape:pagecheckerboard="0" />
  <defs
     id="SvgjsDefs4870" />
  <g
     id="SvgjsG4871"
     featurekey="symbolGroupContainer"
     transform="matrix(1,0,0,1,0,0)"
     fill="#ff843b">
    <rect
       width="120"
       height="129"
       rx="10"
       ry="10"
       id="rect3" />
  </g>
  <g
     id="SvgjsG4872"
     featurekey="monogramFeature-0"
     transform="matrix(2.123142233335149,0,0,2.123142233335149,20,-18.17915429944118)"
     fill="#ffff">
    <path
       d="M14.88 60 c-9.66 0 -14.88 -1.2 -14.88 -12.54 l0 -20.22 c0 -5.4 3.84 -9.24 9.3 -9.24 c6.42 0 17.4 -0.78 20.58 8.04 c0.96 2.7 0.84 5.94 0.18 8.64 c5.46 1.98 7.62 5.82 7.62 13.2 c0 5.16 -2.52 8.7 -7.5 10.56 c-4.62 1.74 -10.32 1.56 -15.3 1.56 z M9.3 22.14 c-2.4 0 -5.16 1.32 -5.16 5.1 l0 20.04 c0 8.04 2.1 8.58 10.74 8.58 c9.9 0 18.66 -0.06 18.66 -7.98 c0 -5.64 -1.2 -7.86 -4.86 -9.3 c-1.74 4.14 -5.22 8.4 -9.84 8.4 c-5.34 0 -8.46 -5.64 -5.7 -9.96 c1.74 -2.58 5.94 -4.98 12.96 -3.54 c0.48 -2.46 0.42 -4.44 -0.12 -6.06 c-2.04 -5.7 -10.08 -5.28 -16.68 -5.28 z M16.62 39.3 c-1.14 1.8 0.66 4.2 3.18 3.42 c1.74 -0.48 3.72 -2.88 4.86 -5.28 c-2.88 -0.48 -6.6 -0.24 -8.04 1.86 z"
       id="path6" />
  </g>
  <g
     id="SvgjsG4873"
     featurekey="nameFeature-0"
     transform="matrix(1.9640962627745977,0,0,1.9640962627745977,134.34340253843618,-6.569155153295171)"
     fill="#fff">
    <path
       d="M17.68 12 c2.76 0 5 2.24 5 5 l0 5.28 c0 1.84 -1.32 3.4 -3.16 3.68 l-0.24 0.04 l0.24 0.04 c1.84 0.32 3.16 1.88 3.16 3.68 l0 5.32 c0 2.72 -2.24 4.96 -5 4.96 l-14.8 0 l0 -28 l14.8 0 z M16.28 32.28 l0 -1.72 c0 -0.76 -0.6 -1.32 -1.32 -1.32 l-5.68 0 l0 4.36 l5.68 0 c0.72 0 1.32 -0.6 1.32 -1.32 z M16.28 21.48 l0 -1.72 c0 -0.72 -0.6 -1.32 -1.32 -1.32 l-5.68 0 l0 4.36 l5.68 0 c0.72 0 1.32 -0.6 1.32 -1.32 z M37.516 12 l0 21.6 l10.32 0 l0 6.4 l-16.72 0 l0 0 l0 -28 l6.4 0 z M71.312 12 c2.72 0 5.04 2.24 5.04 5 l-0.08 18.04 c0 2.76 -2.24 4.96 -5 4.96 l-9.84 0 c-2.72 0 -4.96 -2.2 -4.96 -4.96 l0 -18.04 c0 -2.76 2.24 -5 4.96 -5 l9.88 0 z M69.872 33.6 l0 -15.16 l-7 0 l0 15.16 l7 0 z M104.708 18.44 l-13.4 0 l0 15.16 l7 0 l0 -4.4 l-3.52 0 l0 -6.4 l9.92 0 l0 12.2 c0 2.76 -2.24 5 -5 5 l-9.84 0 c-2.76 0 -4.96 -2.24 -4.96 -5 l0 -18 c0 -2.76 2.2 -5 4.96 -5 l14.84 0 l0 6.44 z"
       id="path9" />
  </g>
  <g
     id="SvgjsG4874"
     featurekey="sloganFeature-0"
     transform="matrix(1.4973282802464094,0,0,1.4973282802464094,139.5208564782421,81.51870489420219)"
     fill="#fff">
    <path
       d="M14.98 7.0600000000000005 l4.66 0 l0 0.24 c-1.32 0 -1.9 0.44 -3.4 4.38 l-3 8.32 l-0.26 0 l-3.08 -8.2 l-2.76 8.2 l-0.28 0 l-4.34 -11.26 c-0.42 -1.06 -0.86 -1.34 -1.36 -1.42 c0.02 0.02 0.02 0.08 0.02 0.18 c0 0.24 -0.18 0.42 -0.42 0.42 c-0.26 0 -0.44 -0.18 -0.44 -0.42 c0 -0.3 0.14 -0.44 0.44 -0.44 l4.96 0 c0.3 0 0.46 0.14 0.46 0.44 c0 0.24 -0.16 0.42 -0.46 0.42 c-0.22 0 -0.42 -0.18 -0.42 -0.42 c0 -0.1 0.02 -0.16 0.04 -0.18 c-1.18 0.26 -0.74 1.42 -0.74 1.54 l3.18 8.62 l2.02 -6.02 l-0.98 -2.72 c-0.38 -1.06 -0.86 -1.34 -1.36 -1.42 c0.02 0.06 0.06 0.1 0.06 0.18 c0 0.24 -0.22 0.42 -0.46 0.42 c-0.22 0 -0.44 -0.18 -0.44 -0.42 c0 -0.26 0.22 -0.44 0.44 -0.44 l4.94 0 c0.24 0 0.46 0.2 0.46 0.44 s-0.22 0.42 -0.46 0.42 s-0.44 -0.18 -0.44 -0.42 c0 -0.08 0.02 -0.14 0.02 -0.16 c-1.12 0.22 -0.68 1.44 -0.68 1.52 l3.02 8.68 l2.08 -5.92 c0.54 -1.76 1.56 -4.32 -1.02 -4.32 l0 -0.24 z M34.2295 16.18 l0.24 0 l0 3.82 l-9.22 0 l0 -0.24 c0.78 0 1 -0.62 1 -1.9 l0 -8.8 c0 -0.94 -0.12 -1.48 -0.58 -1.66 c0 0.02 0.02 0.06 0.02 0.12 c0 0.24 -0.2 0.42 -0.44 0.42 s-0.44 -0.18 -0.44 -0.42 s0.2 -0.44 0.44 -0.44 l8.98 0 l0 3.32 c0 0.3 -0.14 0.44 -0.44 0.44 c-0.24 0 -0.42 -0.18 -0.42 -0.44 s0.18 -0.44 0.42 -0.44 c0.06 0 0.12 0 0.16 0.02 c-0.48 -2.64 -3.4 -2.66 -4.82 -2.66 l-0.98 0 l0 5.74 l1.16 0 c0.5 0 2.44 0.06 2.54 -1.46 l0.24 0 l0 1.72 l-4 0 l0 0.32 l4 0 l0 1.72 l-0.24 0 c-0.1 -1.54 -2.06 -1.46 -2.54 -1.46 l-1.16 0 l0 5.86 l0.82 0 c1.66 0 4.86 0.1 5.26 -3.58 z M45.559000000000005 13.36 c1.2 0 3.92 0.24 3.92 3.36 c0 3.2 -2.38 3.28 -5.58 3.28 l-3.68 0 l0 -0.16 c0.8 0 1.08 -0.76 1.08 -2.04 l0 -8.56 c0 -0.94 -0.18 -1.68 -0.68 -1.94 c0.02 0.1 0.04 0.18 0.04 0.2 c0 0.24 -0.2 0.42 -0.44 0.42 s-0.44 -0.18 -0.44 -0.42 c0 -0.26 0.2 -0.44 0.44 -0.44 l3.68 0 c2.58 0 4.72 0.16 4.72 3.16 c0 2.86 -2.7 3.14 -3.06 3.14 z M43.199000000000005 7.300000000000001 l0 6.04 l1.1 0 c1.12 0 2.34 -0.36 2.34 -3.16 c0 -2.7 -1.54 -2.88 -2.64 -2.88 l-0.8 0 z M43.199000000000005 19.76 l0.8 0 c1.76 0 3.44 0.04 3.44 -3.12 c0 -2.98 -1.8 -3.06 -3.14 -3.06 l-1.1 0 l0 6.18 z M58.408500000000004 11.58 l3.04 2 c2.44 1.58 2.86 3.66 1.9 5.16 c-0.18 0.28 -0.42 0.52 -0.74 0.74 c-0.56 0.38 -1.44 0.74 -2.88 0.74 c-1.52 0 -2.58 -0.24 -3.3 -0.5 c-0.42 -0.14 -0.78 -0.32 -1.06 -0.52 l0 -3.52 l0.02 0 l-0.02 -0.02 c0 -0.24 0.2 -0.42 0.44 -0.42 c0.22 0 0.44 0.18 0.44 0.42 c0 0.26 -0.22 0.44 -0.44 0.44 c-0.08 0 -0.14 -0.02 -0.18 -0.04 c0.26 2.08 1.16 3.92 4.1 3.92 c2.8 0 3.12 -3.08 1 -4.62 l-3.04 -1.96 c-1.72 -1.14 -3.38 -2.78 -2 -4.96 c0.18 -0.26 0.44 -0.5 0.76 -0.72 c0.54 -0.38 1.42 -0.72 2.7 -0.72 c1.34 0 2.36 0.22 3.08 0.44 c0.42 0.14 0.8 0.28 1.1 0.44 l0 3.04 l0 0.04 c0 0.22 -0.18 0.44 -0.42 0.44 c-0.26 0 -0.44 -0.22 -0.44 -0.44 c0 -0.24 0.18 -0.46 0.44 -0.46 c0.02 0 0.06 0.04 0.12 0.04 c-0.26 -1.66 -1.06 -3.3 -3.88 -3.3 c-1.98 0 -3.48 2.56 -0.74 4.34 z M74.418 7.98 c-0.22 0 -0.44 -0.2 -0.44 -0.42 c0 -0.08 0.04 -0.12 0.04 -0.18 c-0.54 0.14 -0.88 0.46 -0.88 1.4 l0 9.26 c0 1.28 0.54 1.72 1.28 1.72 l0 0.24 l-4.44 0 l0 -0.24 c0.78 0 1.28 -0.44 1.28 -1.72 l0 -9.26 c0 -0.94 -0.3 -1.3 -0.88 -1.4 c0.02 0.02 0.02 0.08 0.02 0.18 c0 0.22 -0.18 0.42 -0.42 0.42 s-0.44 -0.2 -0.44 -0.42 c0 -0.26 0.2 -0.46 0.44 -0.46 l4.44 0 c0.24 0 0.46 0.2 0.46 0.46 c0 0.22 -0.22 0.42 -0.46 0.42 z M91.6675 7.119999999999999 l0 3.22 l0 0.02 c0 0.24 -0.18 0.44 -0.42 0.44 s-0.44 -0.2 -0.44 -0.44 s0.2 -0.44 0.44 -0.44 c0.06 0 0.1 0.02 0.16 0.02 c-0.32 -2.56 -3.1 -2.58 -3.34 -2.58 l-1.1 0 l0 10.86 c0 1.2 0.58 1.54 1.36 1.54 l0 0.24 l-4.48 0 l0 -0.24 c0.78 0 1.32 -0.34 1.32 -1.54 l0 -10.86 l-1.08 0 c-0.54 0 -3.08 0.02 -3.34 2.58 c0.04 -0.02 0.1 -0.02 0.16 -0.02 c0.26 0 0.44 0.18 0.44 0.42 c0 0.3 -0.14 0.44 -0.44 0.44 c-0.24 0 -0.42 -0.18 -0.42 -0.44 l0 -3.22 l11.18 0 z M106.93700000000001 16.18 l0.24 0 l0 3.82 l-9.22 0 l0 -0.24 c0.78 0 1 -0.62 1 -1.9 l0 -8.8 c0 -0.94 -0.12 -1.48 -0.58 -1.66 c0 0.02 0.02 0.06 0.02 0.12 c0 0.24 -0.2 0.42 -0.44 0.42 s-0.44 -0.18 -0.44 -0.42 s0.2 -0.44 0.44 -0.44 l8.98 0 l0 3.32 c0 0.3 -0.14 0.44 -0.44 0.44 c-0.24 0 -0.42 -0.18 -0.42 -0.44 s0.18 -0.44 0.42 -0.44 c0.06 0 0.12 0 0.16 0.02 c-0.48 -2.64 -3.4 -2.66 -4.82 -2.66 l-0.98 0 l0 5.74 l1.16 0 c0.5 0 2.44 0.06 2.54 -1.46 l0.24 0 l0 1.72 l-4 0 l0 0.32 l4 0 l0 1.72 l-0.24 0 c-0.1 -1.54 -2.06 -1.46 -2.54 -1.46 l-1.16 0 l0 5.86 l0.82 0 c1.66 0 4.86 0.1 5.26 -3.58 z"
       id="path12" />
  </g>
</svg>
