<svg xmlns="http://www.w3.org/2000/svg" version="1.1" xmlns:xlink="http://www.w3.org/1999/xlink" xmlns:svgjs="http://svgjs.dev/svgjs" viewBox="0 0 800 800" opacity="1">
  <g stroke-width="2" stroke="#ccd1d4" fill="none">
    <path d="M730.8028143664346 192.89887245105479C770.9643857086269 325.3615750549943 745.7630789579018 548.7034171006667 677.0936863529021 668.8859196252612C608.4242937479023 789.0684221498557 513.4305234483488 776.0873333167751 401.1897298624367 769.7748845691071C288.9489362765246 763.4624358214392 210.8564644381171 724.4866734949574 138.33787714052255 638.5861656364563C65.81928984292801 552.685657777955 40.495532148452696 469.1617001191232 53.10051083398196 357.45244684830095C65.70548951951122 245.74319357747856 109.00476794014588 169.96247904525012 198.84177483106225 102.38174993651046C288.6787817219787 34.80102082777091 373.49292734051005 14.207213269155261 484.31814391037915 33.06494712635231C595.1433604802485 51.9226809835493 690.6412430242424 60.43616984711525 730.8028143664346 192.89887245105479C770.9643857086269 325.3615750549943 745.7630789579018 548.7034171006667 677.0936863529021 668.8859196252612 "></path>
    <path d="M714.2626782257497 203.25399596717386C752.416171000832 329.09356344091645 728.4749295876434 541.2683133843052 663.2390066128937 655.4416907826701C598.003083638144 769.6150681810348 507.7590018535682 757.2830337896085 401.1302479469516 751.2862074793238C294.50149404033505 745.2893811690392 220.31364579384797 708.2624069588815 151.42098786113309 626.6569244933053C82.52832992841832 545.0514420277293 58.47076011866676 465.70368225183904 70.44548986991958 359.57989164455785C82.42021962117241 253.45610103727654 123.55453412077532 181.46442223165946 208.89969066714588 117.26272957835681C294.24484721351655 53.061036925054225 374.8182855511211 33.49691974436939 480.10224129249696 51.41176690870657C585.3861970338727 69.32661407304369 676.109185450667 77.41442849343133 714.2626782257497 203.25399596717386C752.416171000832 329.09356344091645 728.4749295876434 541.2683133843052 663.2390066128937 655.4416907826701 "></path>
    <path d="M697.7224810499083 213.60899741298044C733.8678952578813 332.8254297565261 711.1867191822288 533.8330875976312 649.3842658377291 641.9973398697663C587.5818124932293 750.1615921419013 502.08741922363106 738.4786121921288 401.07070499631027 732.7974083192275C300.05399076898925 727.1162044463265 229.77076611442249 692.0380183524928 164.50403754658748 614.7275612798419C99.23730897875237 537.4171042071907 76.44592705372463 462.24554231424224 87.79040787070096 361.70721437050213C99.13488868767729 261.168886426762 138.10423926624844 192.9662433477563 218.95754546807325 132.14358714989066C299.81085166989806 71.32093095202504 376.14358272657614 52.78650414927097 475.8862776394585 69.75846462074833C575.6289725523408 86.73042509222563 661.5770668419354 94.39256506943497 697.7224810499083 213.60899741298044C733.8678952578813 332.8254297565261 711.1867191822288 533.8330875976312 649.3842658377291 641.9973398697663 "></path>
    <path d="M681.1823449092233 223.96402937636526C715.3196805500868 336.55732658971385 693.8985698119704 526.3978923285354 635.5295860977208 628.5530194744408C577.1606023834709 730.7081466203462 496.4158976288504 719.6742211122277 401.0112230808252 714.30863967671C305.6065485327998 708.943058241192 239.22794747015337 675.8136602636826 177.58714826719807 602.7982285839565C115.94634906424272 529.7827969042305 94.4211550239387 458.78743289422357 105.13538690663859 363.83456761402454C115.84961878933848 268.8817023338256 152.65400544687787 204.4680949814313 229.01546130415687 147.02447523900264C305.3769171614358 89.58085549657397 377.4689409371874 72.07611907175072 471.6703750215762 88.10519285036821C565.8718091059651 104.13426662898564 647.04500926836 111.37073216301667 681.1823449092233 223.96402937636526C715.3196805500868 336.55732658971385 693.8985698119704 526.3978923285354 635.5295860977208 628.5530194744408 "></path>
    <path d="M664.6422087685384 234.31912237490633C696.7714658422921 340.289284458058 676.6104204417121 518.9627580945958 621.6749063577123 615.1087601142715C566.7393922737126 711.2547621339471 490.74437603406966 700.8698910674827 400.95174116533997 695.8199320693483C311.1591062966103 690.7699730712139 248.68512882588425 659.5893632100284 190.67025898780867 590.8689569232275C132.65538914973303 522.1485506364265 112.39638299415276 455.32938450936115 122.48036594257621 365.9619818927033C132.5643488909996 276.59457927604535 167.2037716275073 215.97000765026257 239.07337714024044 161.90542436327087C310.94298265297357 107.84084107627922 378.7942991477986 91.36579502938673 467.454472403694 106.45198211514435C556.1146456595894 121.53816920090196 632.5129516947846 128.34896029175468 664.6422087685384 234.31912237490633C696.7714658422921 340.289284458058 676.6104204417121 518.9627580945958 621.6749063577123 615.1087601142715 "></path>
    <path d="M648.1020726278534 244.67418485586916C678.2232511344974 344.02121180882386 659.3222710714538 511.527593343078 607.820226617704 601.664470236524C556.3181821639541 691.8013471299698 485.0728544392889 682.0655305051595 400.8922592498549 677.3311939444085C316.71166406042073 672.5968573836575 258.14231018161513 643.3650356387961 203.75336970841926 578.9396547449203C149.36442923522333 514.5142738510444 130.37161096436688 451.8713056069206 139.82534497851384 368.08936565380384C149.27907899266074 284.3074257006871 181.75353780813674 227.47188980151566 249.13129297632406 176.78634296996097C316.5090481445113 126.10079613840628 380.1196573584099 110.65544046944456 463.2385697858117 124.79874086234236C546.3574822132136 138.9420412552401 617.9808941212092 145.32715790291456 648.1020726278534 244.67418485586916C678.2232511344974 344.02121180882386 659.3222710714538 511.527593343078 607.820226617704 601.664470236524 "></path>
    <path d="M631.5619364871684 255.02921681925397C659.6750364267028 347.7531086420116 642.0341217011953 504.0923980739823 593.9655468776955 588.2201498411985C545.8969720541957 672.3479016084146 479.40133284450826 663.2611394252582 400.8327773343698 658.8424253018907C322.2642218242313 654.423711178523 267.599491537346 627.1406775499858 216.83648042902985 567.010322049035C166.07346932071368 506.8799665480842 148.34683893458094 448.4131961869019 157.1703240144514 370.21671889732625C165.99380909432193 292.0202416077507 196.30330398876617 238.97374143519068 259.1892088124077 191.66723105907295C322.0751136360492 144.36072068295522 381.44501556902105 129.9450553919243 459.0226671679295 143.14546909196224C536.600318766838 156.3458827920001 603.4488365476338 162.30532499649627 631.5619364871684 255.02921681925397C659.6750364267028 347.7531086420116 642.0341217011953 504.0923980739823 593.9655468776955 588.2201498411985 "></path>
    <path d="M615.0218003464832 265.38427930021686C641.1268217189081 351.4850359927775 624.745972330937 496.65723332246455 580.1108671376871 574.775859963451C535.4757619444373 652.8944866044375 473.7298112497275 644.4567788629352 400.7732954188846 640.3536871769509C327.81677958804175 636.2505954909668 277.05667289307684 610.9163499787535 229.91959114964044 555.0810198707278C182.78250940620399 499.2456897627021 166.322066904795 444.9551172844614 174.51530305038904 372.3441026584269C182.70853919598306 299.7330880323923 210.8530701693956 250.47562358644382 269.2471246484913 206.54814966576305C327.64117912758695 162.62067574508234 382.77037377963234 149.2347008319822 454.8067645500473 161.49222783916025C526.8431553204623 173.7497548463383 588.9167789740584 179.28352260765615 615.0218003464832 265.38427930021686C641.1268217189081 351.4850359927775 624.745972330937 496.65723332246455 580.1108671376871 574.775859963451 "></path>
    <path d="M598.4816642057983 275.73934178117975C622.5786070111136 355.2169633435435 607.4578229606786 489.22206857094693 566.2561873976788 561.3315700857036C525.0545518346789 633.4410716004603 468.05828965494675 625.652418300612 400.7138135033995 621.8649490520113C333.3693373518522 618.0774798034104 286.5138542488077 594.6920224075213 243.00270187025103 543.1517176924206C199.4915494916943 491.61141297732 184.29729487500913 441.49703838202095 191.86028208632666 374.4714864195274C199.42326929764425 307.445934457034 225.40283635002504 261.9775057376969 279.3050404845749 221.42906827245315C333.2072446191247 180.8806308072094 384.0957319902435 168.52434627204002 450.5908619321651 179.83898658635826C517.0859918740866 191.15362690067644 574.3847214004829 196.26172021881598 598.4816642057983 275.73934178117975C622.5786070111136 355.2169633435435 607.4578229606786 489.22206857094693 566.2561873976788 561.3315700857036 "></path>
    <path d="M581.9415280651133 286.0943737445645C604.030392303319 358.94886017673116 590.1696735904202 481.7868733018511 552.4015076576704 547.887249690378C514.6333417249205 613.9876260789051 462.3867680601661 606.8480272207107 400.6543315879144 603.3761804094934C338.9218951156628 599.9043335982759 295.9710356045386 578.4676643187108 256.0858125908616 531.2223849965353C216.2005895771846 483.9771056743597 202.2725228452232 438.03892896200216 209.2052611222643 376.59883966304994C216.1379993993054 315.1587503640976 239.95260253065442 273.4793573713719 289.36295632065844 236.30995636156513C338.77331011066246 199.14055535175834 385.4210902008547 187.81396119451978 446.3749593142828 198.18571481597814C507.32882842771096 208.5574684374365 559.8526638269076 213.23988731239774 581.9415280651133 286.0943737445645C604.030392303319 358.94886017673116 590.1696735904202 481.7868733018511 552.4015076576704 547.887249690378 "></path>
    <path d="M565.4013919244283 296.4494362255274C585.4821775955244 362.68078752749716 572.8815242201619 474.35170855033334 538.546827917662 534.4429598126305C504.2121316151621 594.5342110749278 456.71524646538535 588.0436666583876 400.5948496724293 584.8874422845536C344.47445287947323 581.7312179107196 305.4282169602695 562.2433367474787 269.1689233114722 519.2930828182282C232.90962966267494 476.34282888897746 220.24775081543726 434.5808500595616 226.55024015820192 378.7262234241505C232.85272950096657 322.8715967887393 254.50236871128385 284.98123952262506 299.42087215674206 251.19087496825523C344.3393756022003 217.40051041388546 386.74644841146596 207.10360663457766 442.1590566964005 216.53247356317615C497.5716649813352 225.96134049177465 545.3206062533321 230.21808492355763 565.4013919244283 296.4494362255274C585.4821775955244 362.68078752749716 572.8815242201619 474.35170855033334 538.546827917662 534.4429598126305 "></path>
    <path d="M548.8612405249542 306.8044987064902C566.9339476289406 366.41271487826305 555.5933595911144 466.9165437988156 524.6921329188646 520.9986699348831C493.79090624661467 575.0807960709507 451.04370961181553 569.2393060960644 400.53535249815513 566.3987041596138C350.0269953844946 563.5581022231632 314.88538305721124 546.0190091762464 282.25201877329374 507.36378063992095C249.61865448937618 468.70855210359537 238.22296352686232 431.1227711571212 243.89520393535048 380.8536071852511C249.56744434383864 330.584443213381 269.0521196331242 296.48312167387814 309.4787727340366 266.07179357494533C349.905425834949 235.66046547601252 388.07179136328807 226.39325207463548 437.94313881972926 234.87923231037416C487.8144862761703 243.3652125461128 530.7885334209677 247.19628253471745 548.8612405249542 306.8044987064902C566.9339476289406 366.41271487826305 555.5933595911144 466.9165437988156 524.6921329188646 520.9986699348831 "></path>
    <path d="M532.3211043842691 317.15956118745316C548.385732921146 370.144642229029 538.305210220856 459.4813790472979 510.8374531788561 507.55438005713575C483.3696961368563 555.6273810669736 445.3721880170349 550.4349455337414 400.47587058267 547.9099660346742C355.57955314830514 545.3849865356069 324.3425644129421 529.7946816050141 295.33512949390433 495.4344784616137C266.3276945748665 461.07427531821327 256.1981914970764 427.66469225468063 261.2401829712881 382.98099094635165C266.2821744454998 338.2972896380227 283.60188581375365 307.9850038251313 319.53668857012025 280.95271218163543C355.4714913264868 253.92042053813958 389.3971495738993 245.68289751469337 433.72723620184706 253.22599105757217C478.05732282979466 260.769084600451 516.2564758473923 264.17448014587734 532.3211043842691 317.15956118745316C548.385732921146 370.144642229029 538.305210220856 459.4813790472979 510.8374531788561 507.55438005713575 "></path>
    <path d="M515.7809682435842 327.5145931508379C529.8375182133514 373.87653906221675 521.0170608505977 452.046183778202 496.98277343884774 494.11005966181017C472.94848602709783 536.1739355454183 439.70066642225413 531.63055445384 400.4163886671849 529.4211973921563C361.13211091211565 527.2118403304725 333.799745768673 513.5703235162039 308.4182402145149 483.50514576572846C283.03673466035684 453.43996801525304 274.1734194672905 424.20658283466196 278.58516200722573 385.10834418987406C282.99690454716097 346.0101055450863 298.1516519943831 319.4868554588063 329.5946044062038 295.8336002707474C361.0375568180246 272.1803450826886 390.7225077845105 264.9725124371731 429.51133358396476 271.57271928719206C468.300159383419 278.172926137211 501.7244182738169 281.1526472394591 515.7809682435842 327.5145931508379C529.8375182133514 373.87653906221675 521.0170608505977 452.046183778202 496.98277343884774 494.11005966181017 "></path>
    <path d="M499.24083210289916 337.8696708905899C511.28930350555675 377.60848167177176 503.7289114803393 444.61103428547347 483.1280936988394 480.6657850428518C462.52727591733947 516.7205358002302 434.0291448274734 512.826209150306 400.35690675169974 510.93247452600565C366.6846686759261 509.0387399017052 343.2569271244039 497.34601120376067 321.5013509351255 471.5758588462103C299.74577474584714 445.80570648866 292.14864743750456 420.7485191910105 295.93014104316336 387.2357432097637C299.7116346488221 353.722967228517 312.7014181750125 330.98875286884845 339.65252024228744 310.7145341362266C366.60362230956235 290.4403154036047 392.04786599512175 284.26217313602 425.29543096608256 289.91949329317913C458.5429959370433 295.57681345033825 487.19236070024147 298.130860109408 499.24083210289916 337.8696708905899C511.28930350555675 377.60848167177176 503.7289114803393 444.61103428547347 483.1280936988394 480.6657850428518 "></path>
    <path d="M482.70068070342506 348.22473337155276C492.74107353897307 381.34040902253764 486.4407468512918 437.17586953395573 469.273398700042 467.22149516510433C452.106050548792 497.26712079625304 428.3576079739036 494.02184858798284 400.2974095774256 492.44373640106585C372.23721118094755 490.86562421414885 352.71409322134565 481.1216836325284 334.58444639694704 459.64655666790316C316.4547995725484 438.1714297032778 310.12386014892957 417.29044028856987 313.2751048203119 389.3631269708643C316.4263494916942 361.43581365315873 327.2511690968529 342.4906350201016 349.710420819582 325.5954527429167C372.1696725423111 308.70027046573176 393.3732089469439 303.5518185760779 421.0795130894112 308.26625204037714C448.7858172318785 312.9806855046764 472.66028786787706 315.1090577205679 482.70068070342506 348.22473337155276C492.74107353897307 381.34040902253764 486.4407468512918 437.17586953395573 469.273398700042 467.22149516510433 "></path>
    <path d="M466.16054456274003 358.5797805937266C474.19285883117846 385.07232111451447 469.15259748103347 429.74068952364894 455.4187189600335 453.7771900285679C441.6848404390336 477.8136905334868 422.6860863791229 475.21747276687074 400.2379276619405 473.9549830173371C377.78976894475807 472.69249326780346 362.17127457707653 464.8973408025071 347.66755711755764 447.71723923080685C333.16383965803874 430.53713765910663 328.0990881191437 413.8323461273403 330.6200838562495 391.4904954731758C333.14107959335536 369.14864481901134 341.8009352774823 353.9925019125657 359.76833665566556 340.4763560908177C377.73573803384886 326.9602102690698 394.6985671575551 322.84144875734665 416.863610471529 326.6129955287861C439.0286537855028 330.38454230022546 458.1282302943016 332.0872400729387 466.16054456274003 358.5797805937266C474.19285883117846 385.07232111451447 469.15259748103347 429.74068952364894 455.4187189600335 453.7771900285679 "></path>
    <path d="M449.6204236808441 368.9348278159004C455.6446593821729 388.80423320649135 451.8644633695642 422.3055095133422 441.5640544788142 440.33288489203136C431.26364558806426 458.3602602707206 417.0145800431312 456.41309694575847 400.1784610052444 455.4662296336083C383.3423419673576 454.51936232145806 371.6284711915965 448.6729979724858 360.7506830969573 435.7879217937106C349.8728950023181 422.9028456149355 346.0743313481468 410.3742519661107 347.9650781509762 393.61786397548735C349.8558249538056 376.861475984864 356.35071671690076 365.4943688050297 369.82626775053825 355.35725943871876C383.3018187841757 345.2201500724078 396.0239406269554 342.1310789386155 412.6477231124358 344.95973901719503C429.2715055979162 347.7883990957746 443.59618797951526 349.06542242530946 449.6204236808441 368.9348278159004C455.6446593821729 388.80423320649135 451.8644633695642 422.3055095133422 441.5640544788142 440.33288489203136 "></path>
    <path d="M433.0802875401591 379.2898902968633C437.0964446743783 392.53616055725723 434.5763139993058 414.87034476182447 427.7093747388058 426.88859501428396C420.84243547830584 438.9068452667434 411.3430584483505 437.60873638343537 400.1189790897593 436.97749150866855C388.8948997311681 436.3462466339017 381.08565254732736 432.44867040125354 373.8337938175679 423.8586196154034C366.5819350878084 415.2685688295533 364.0495593183609 406.91617306367016 365.3100571869138 395.7452477365879C366.57055505546674 384.57432240950567 370.9004828975302 376.99625095628284 379.8841835866219 370.23817804540886C388.8678842757135 363.4801051345349 397.3492988375666 361.42072437867336 408.43182049455356 363.30649776439304C419.51434215154046 365.19227115011273 429.06413040593986 366.04362003646935 433.0802875401591 379.2898902968633C437.0964446743783 392.53616055725723 434.5763139993058 414.87034476182447 427.7093747388058 426.88859501428396 "></path>
    <path d="M416.54013614068504 389.6449527778262C418.5482147077946 396.2680879080232 417.2881493702584 407.4351800103068 413.8546797400084 413.4443051365365C410.4212101097584 419.45343026276623 405.6715215947807 418.8043758211122 400.0594819154851 418.4887533837288C394.4474422361895 418.1731309463454 390.5428186442691 416.2243428300213 386.9168892793894 411.92931743709624C383.2909599145097 407.6342920441712 382.02477202978594 403.4580941612296 382.6550209640624 397.8726314976885C383.28526989833887 392.2871688341474 385.45023381937057 388.4981331075359 389.9420841639164 385.11909665209896C394.43393450846224 381.740060196662 398.6746417893888 380.7103698187312 404.21590261788225 381.65325651159105C409.7571634463757 382.5961432044509 414.5320575735754 383.0218176476292 416.54013614068504 389.6449527778262C418.5482147077946 396.2680879080232 417.2881493702584 407.4351800103068 413.8546797400084 413.4443051365365 "></path>
  </g>
</svg>