<svg xmlns="http://www.w3.org/2000/svg" xmlns:xlink="http://www.w3.org/1999/xlink" viewBox="0 0 544.66 386.71"><defs><style>.cls-1{fill:none;}.cls-2{fill:#fff;}.cls-3{clip-path:url(#clip-path);}.cls-4{clip-path:url(#clip-path-2);}.cls-5{clip-path:url(#clip-path-3);}.cls-6{clip-path:url(#clip-path-4);}</style><clipPath id="clip-path" transform="translate(0 0.16)"><rect class="cls-1" x="186.18" y="335.19" width="172.3" height="51.21"/></clipPath><clipPath id="clip-path-2" transform="translate(0 0.16)"><rect class="cls-1" x="152.69" y="14.75" width="232.36" height="198.07"/></clipPath><clipPath id="clip-path-3" transform="translate(0 0.16)"><rect class="cls-1" x="189.63" width="176.73" height="42.78"/></clipPath><clipPath id="clip-path-4" transform="translate(0 0.16)"><rect class="cls-1" x="326.66" y="105.85" width="65.31" height="45.16"/></clipPath></defs><g id="Layer_2" data-name="Layer 2"><g id="Layer_1-2" data-name="Layer 1"><path class="cls-2" d="M24.31,314.45H7l.12-12.78H24.31a21,21,0,0,0,11.6-3A18.64,18.64,0,0,0,43,289.89a36.43,36.43,0,0,0,2.39-14V272A36.62,36.62,0,0,0,43,258a17.94,17.94,0,0,0-7-8.62,20.83,20.83,0,0,0-11.41-3H6.66V233.61H24.59a37.32,37.32,0,0,1,19.21,4.84,33.83,33.83,0,0,1,12.94,13.49,42,42,0,0,1,4.66,20.21v3.78a42.09,42.09,0,0,1-4.66,20.26,33.49,33.49,0,0,1-13,13.47,38.28,38.28,0,0,1-19.42,4.79Zm-8.39-80.84v80.84H0V233.61Zm75,0v80.84H75.05V233.61ZM149,293.35a10.06,10.06,0,0,0-1.25-5.16,11.74,11.74,0,0,0-4.75-4.05,59.07,59.07,0,0,0-10.21-3.94,89.85,89.85,0,0,1-10.49-4,41.06,41.06,0,0,1-8.59-5.18,22.37,22.37,0,0,1-5.78-6.92,19.35,19.35,0,0,1-2.07-9.12,19.05,19.05,0,0,1,3.78-11.75,24.85,24.85,0,0,1,10.41-7.89,38.37,38.37,0,0,1,15.29-2.85A35.44,35.44,0,0,1,151,235.74a24.69,24.69,0,0,1,10.23,8.88,23,23,0,0,1,3.62,12.75H149a13,13,0,0,0-1.5-6.34,10.36,10.36,0,0,0-4.59-4.32,17.33,17.33,0,0,0-7.8-1.55,18.78,18.78,0,0,0-7.48,1.3,9.66,9.66,0,0,0-4.44,3.57,9,9,0,0,0-1.45,5,7.18,7.18,0,0,0,1.86,4.89,17.21,17.21,0,0,0,5.5,3.84,61.64,61.64,0,0,0,9,3.37,66.37,66.37,0,0,1,14.9,6.21,26,26,0,0,1,8.93,8.41,21.35,21.35,0,0,1,3,11.47,20,20,0,0,1-3.62,12,22.9,22.9,0,0,1-10.17,7.69,40.93,40.93,0,0,1-15.44,2.66A43.37,43.37,0,0,1,124,314a33.86,33.86,0,0,1-10.44-4.82,24.46,24.46,0,0,1-7.46-8.18,23.62,23.62,0,0,1-2.77-11.72H119.3a15.25,15.25,0,0,0,1.19,6.37,10.92,10.92,0,0,0,3.4,4.26,14.81,14.81,0,0,0,5.24,2.38,27.17,27.17,0,0,0,6.59.75,19,19,0,0,0,7.48-1.25,9.53,9.53,0,0,0,4.35-3.43,8.84,8.84,0,0,0,1.45-5Zm74.62-5.66h15.82A31,31,0,0,1,235,302.1,26.81,26.81,0,0,1,224.12,312q-7,3.6-16.94,3.6a32.22,32.22,0,0,1-17.65-4.73,30.63,30.63,0,0,1-11.46-13.4q-4-8.69-4-20.51V271.2q0-11.86,4.14-20.54a31.6,31.6,0,0,1,11.62-13.44,32.32,32.32,0,0,1,17.72-4.77q10,0,16.83,3.66A26.75,26.75,0,0,1,235,246.18a34.12,34.12,0,0,1,4.53,14.65H223.66q-.66-7.39-4.2-11.39t-11.94-4a15.76,15.76,0,0,0-9.69,2.87,17,17,0,0,0-5.78,8.55,45.37,45.37,0,0,0-1.91,14.24v5.84a49.51,49.51,0,0,0,1.71,14,17.18,17.18,0,0,0,5.48,8.71q3.75,3,9.85,3a20.41,20.41,0,0,0,8.93-1.68,11.75,11.75,0,0,0,5.26-5,21.77,21.77,0,0,0,2.25-8.23Zm93.15-15.49v3.73q0,12.33-4.3,21.19a32.09,32.09,0,0,1-12,13.67,35.57,35.57,0,0,1-35.62,0,32.1,32.1,0,0,1-12.09-13.67q-4.38-8.87-4.37-21.19V272.2q0-12.33,4.32-21.22a31.85,31.85,0,0,1,29.81-18.49,33,33,0,0,1,17.86,4.82,32.52,32.52,0,0,1,12,13.67q4.33,8.9,4.33,21.22Zm-16,3.73v-3.84a43,43,0,0,0-2.13-14.54,18.75,18.75,0,0,0-6.21-8.91,17.38,17.38,0,0,0-19.58,0,18.68,18.68,0,0,0-6.21,8.91,42.74,42.74,0,0,0-2.14,14.54v3.84a42.48,42.48,0,0,0,2.18,14.53,19,19,0,0,0,6.23,9,17.36,17.36,0,0,0,19.63,0,18.37,18.37,0,0,0,6.14-9,43.89,43.89,0,0,0,2.09-14.53Zm73.39-42.32H390v53.53q0,9.33-4,15.65a25.3,25.3,0,0,1-11,9.55,36.87,36.87,0,0,1-15.72,3.23,37.37,37.37,0,0,1-15.89-3.23,24.76,24.76,0,0,1-10.94-9.55q-4-6.33-4-15.65V233.61h15.87v53.53a19,19,0,0,0,1.82,8.87,11.35,11.35,0,0,0,5.14,5.11,19.85,19.85,0,0,0,15.94,0,11.22,11.22,0,0,0,5.1-5.11,19.36,19.36,0,0,0,1.77-8.87Zm95.22,0v80.84h-15.9l-33.52-54.51v54.51H404.05V233.61h15.87l33.64,54.58V233.61Zm50.46,0v80.84H503.9V233.61Zm24.86,0v12.82H479.32V233.61Z" transform="translate(0 0.16)"/><g class="cls-3"><path class="cls-2" d="M199.73,385.87H189.28l.07-5.36h10.38a16.41,16.41,0,0,0,8.89-2.25A13.91,13.91,0,0,0,214,372a23.46,23.46,0,0,0,1.8-9.56v-3.1a23.76,23.76,0,0,0-1.8-9.74,13.42,13.42,0,0,0-5.28-6.15,15.82,15.82,0,0,0-8.41-2.12H189.08v-5.4H200.3a22.69,22.69,0,0,1,11.56,2.87,19.94,19.94,0,0,1,7.74,8.14,26.43,26.43,0,0,1,2.78,12.47v3a26.45,26.45,0,0,1-2.78,12.5,19.81,19.81,0,0,1-7.86,8.11,24.06,24.06,0,0,1-12,2.87Zm-6.88-50v50H186.2v-50Zm58,4.4-16.51,45.59h-6.87l19.09-50H251Zm13.84,45.59-16.58-45.59-.07-4.4h4.36l19.12,50Zm-.83-18.46v5.38H235.77v-5.38Zm41,5.83a7.59,7.59,0,0,0-1-4,8.63,8.63,0,0,0-3.57-3,40.64,40.64,0,0,0-7.31-2.71,48.65,48.65,0,0,1-6.68-2.43,22.88,22.88,0,0,1-5.09-3.1,12.45,12.45,0,0,1-3.27-4,11.52,11.52,0,0,1-1.13-5.19,12,12,0,0,1,2.12-7,14.29,14.29,0,0,1,5.92-4.84,21,21,0,0,1,8.91-1.77,19.91,19.91,0,0,1,9.62,2.15,15.31,15.31,0,0,1,6,5.6,14.07,14.07,0,0,1,2.07,7.37h-6.7a10.43,10.43,0,0,0-1.19-5,8.29,8.29,0,0,0-3.62-3.45,13.52,13.52,0,0,0-6.19-1.25,13.78,13.78,0,0,0-5.77,1.05,7.55,7.55,0,0,0-3.38,2.9,7.78,7.78,0,0,0-1.11,4.15,6.08,6.08,0,0,0,1.21,3.73,10.37,10.37,0,0,0,3.77,2.93,37.9,37.9,0,0,0,6.66,2.46,41.42,41.42,0,0,1,9.31,3.69,14.55,14.55,0,0,1,5.37,4.94,12.74,12.74,0,0,1,1.73,6.73,11.83,11.83,0,0,1-2.16,7.07,14,14,0,0,1-6.08,4.67,23.49,23.49,0,0,1-9.19,1.65,24.23,24.23,0,0,1-6.82-1,19.94,19.94,0,0,1-6.08-2.89,14.56,14.56,0,0,1-4.36-4.75,13,13,0,0,1-1.63-6.57h6.67a9.21,9.21,0,0,0,1,4.44,8.51,8.51,0,0,0,2.7,3.05,12.41,12.41,0,0,0,3.92,1.77,18.64,18.64,0,0,0,4.6.56,15.56,15.56,0,0,0,5.85-1,8,8,0,0,0,3.64-2.76,7.2,7.2,0,0,0,1.25-4.22Zm47.75-15.86v5.34h-27v-5.34Zm-25.95-21.5v50H320v-50Zm31.79,0v50h-6.67v-50Z" transform="translate(0 0.16)"/></g><path class="cls-2" d="M384.56,109.9H374.39V57c0-2.14-1.47-3.89-3.27-3.89-1.23,0-131.26,2.09-176.77,0-5.51-.25-18.86-1.85-23.77-11.24-3.13-6-2-13.27,3.29-21.74l8.61,5.4c-2.24,3.56-4.55,8.47-2.9,11.61,1.9,3.62,9,5.53,15.24,5.81C240,45.05,369.73,43,371,43A13.79,13.79,0,0,1,384.56,57V109.9Z" transform="translate(0 0.16)"/><g class="cls-4"><path class="cls-2" d="M193.33,212.82c-4.24,0-18.19-.81-28.63-10.61-7.86-7.38-11.84-18-11.84-31.42V53.51c-.28-2.56-1.2-15.33,7.67-25.62,7.35-8.54,19.12-12.87,35-12.87V25.19c-12.7,0-21.85,3.11-27.2,9.25-6.67,7.66-5.34,17.93-5.32,18l.05.73V170.79c0,10.51,2.88,18.57,8.56,24,9,8.55,22.57,7.9,22.7,7.9H371.11c1.81,0,3.28-1.75,3.28-3.9V148h10.17v50.71c0,7.75-6,14.06-13.45,14.06H194.59c-.06,0-.51,0-1.26,0Z" transform="translate(0 0.16)"/></g><path class="cls-2" d="M356.28,34.73H346.11V29.08c0-2.14-1.47-3.9-3.28-3.9H275.24V15h67.59c7.42,0,13.45,6.31,13.45,14.06Z" transform="translate(0 0.16)"/><g class="cls-5"><path class="cls-2" d="M362.44,32.61,201.25,0c-2.46-.49-5.82.69-6.26,3.56l-4.68,30.81c-1,6.41,8.83,9.17,9.81,2.7q2.34-15.41,4.67-30.81l-6.25,3.55L359.73,42.41c6.41,1.3,9.13-8.5,2.71-9.8Z" transform="translate(0 0.16)"/></g><path class="cls-2" d="M274.2,33.78,225.6,23.14c-2.61-.57-5.62.74-6.25,3.54q-1.28,5.63-2.54,11.23c-1.44,6.39,8.36,9.1,9.8,2.7q1.27-5.61,2.54-11.22l-6.26,3.55L271.5,43.58c6.39,1.41,9.11-8.4,2.7-9.8Z" transform="translate(0 0.16)"/><g class="cls-6"><path class="cls-2" d="M380.51,150.52H338.66c-10.36,0-11.47-6.83-11.47-9.77V115.9c0-2.94,1.11-9.78,11.47-9.78h41.85c10.34,0,11.46,6.84,11.46,9.78v24.85c0,2.94-1.12,9.77-11.46,9.77Zm-43.94-9.58a8.46,8.46,0,0,0,2.09.2h41.85a8.42,8.42,0,0,0,2.08-.2V115.71a8.25,8.25,0,0,0-2.08-.21H338.66a8.22,8.22,0,0,0-2.09.21v25.23Z" transform="translate(0 0.16)"/></g><rect class="cls-2" x="402.99" y="204.11" width="109.15" height="7.5"/><rect class="cls-2" x="32.53" y="204.11" width="109.15" height="7.5"/><rect class="cls-2" x="402.99" y="189.12" width="109.15" height="7.5"/><rect class="cls-2" x="32.53" y="189.12" width="109.15" height="7.5"/></g></g></svg>