<svg xmlns="http://www.w3.org/2000/svg" version="1.1" xmlns:xlink="http://www.w3.org/1999/xlink" xmlns:svgjs="http://svgjs.dev/svgjs" width="1000" height="1000" viewBox="0 0 1000 1000"><rect width="1000" height="1000" fill="#ffffff"></rect><g transform="matrix(0.7,0,0,0.7,150.22226924298832,252.0509311740891)"><svg viewBox="0 0 348 247" data-background-color="#ffffff" preserveAspectRatio="xMidYMid meet" height="709" width="1000" xmlns="http://www.w3.org/2000/svg" xmlns:xlink="http://www.w3.org/1999/xlink"><g id="tight-bounds" transform="matrix(1,0,0,1,-0.11049956651419279,-0.09999999999999432)"><svg viewBox="0 0 348.2209990636986 247.2" height="247.2" width="348.2209990636986"><g><svg viewBox="0 0 395.52 280.7772772546519" height="247.2" width="348.2209990636986"><g transform="matrix(1,0,0,1,0,168.8838681361686)"><svg viewBox="0 0 395.52 111.89340911848332" height="111.89340911848332" width="395.52"><g id="textblocktransform"><svg viewBox="0 0 395.52 111.89340911848332" height="111.89340911848332" width="395.52" id="textblock"><g><svg viewBox="0 0 395.52 60.34995821017225" height="60.34995821017225" width="395.52"><g transform="matrix(1,0,0,1,0,0)"><svg width="395.52" viewBox="3.299999952316284 -36.060001373291016 239.5 36.55000305175781" height="60.34995821017225" data-palette-color="#000000"><path d="M13.99 0L6.37 0 6.42-5.62 13.99-5.62Q17.04-5.62 19.09-6.95 21.14-8.28 22.19-10.8 23.24-13.33 23.24-16.94L23.24-16.94 23.24-18.65Q23.24-22.31 22.2-24.82 21.17-27.32 19.13-28.61 17.09-29.91 14.11-29.91L14.11-29.91 6.23-29.91 6.23-35.55 14.11-35.55Q18.92-35.55 22.56-33.42 26.2-31.3 28.25-27.49 30.3-23.68 30.3-18.6L30.3-18.6 30.3-16.94Q30.3-11.84 28.25-8.03 26.2-4.22 22.53-2.11 18.87 0 13.99 0L13.99 0ZM10.3-35.55L10.3 0 3.3 0 3.3-35.55 10.3-35.55ZM43.28-35.55L43.28 0 36.3 0 36.3-35.55 43.28-35.55ZM68.82-9.28L68.82-9.28Q68.82-10.6 68.27-11.55 67.72-12.5 66.18-13.33 64.64-14.16 61.69-15.06L61.69-15.06Q59.22-15.84 57.08-16.82 54.93-17.8 53.3-19.1 51.68-20.41 50.76-22.14 49.85-23.88 49.85-26.15L49.85-26.15Q49.85-29.1 51.51-31.32 53.17-33.54 56.09-34.79 59-36.04 62.81-36.04L62.81-36.04Q66.79-36.04 69.71-34.61 72.63-33.18 74.21-30.71 75.8-28.25 75.8-25.1L75.8-25.1 68.82-25.1Q68.82-26.68 68.16-27.89 67.5-29.1 66.14-29.79 64.79-30.47 62.71-30.47L62.71-30.47Q60.74-30.47 59.42-29.9 58.1-29.32 57.47-28.33 56.83-27.34 56.83-26.12L56.83-26.12Q56.83-24.9 57.65-23.97 58.47-23.05 60.07-22.28 61.66-21.51 64.03-20.8L64.03-20.8Q67.96-19.63 70.58-18.07 73.19-16.5 74.51-14.37 75.83-12.23 75.83-9.33L75.83-9.33Q75.83-6.27 74.24-4.06 72.65-1.86 69.77-0.68 66.89 0.49 62.98 0.49L62.98 0.49Q60.37 0.49 57.84-0.21 55.32-0.9 53.25-2.33 51.19-3.76 49.97-5.93 48.75-8.11 48.75-11.08L48.75-11.08 55.76-11.08Q55.76-9.42 56.28-8.28 56.81-7.13 57.78-6.41 58.76-5.69 60.08-5.36 61.4-5.03 62.98-5.03L62.98-5.03Q64.99-5.03 66.27-5.58 67.55-6.13 68.18-7.09 68.82-8.06 68.82-9.28ZM101.63-11.77L108.59-11.77Q108.34-8.2 106.63-5.43 104.92-2.66 101.85-1.09 98.77 0.49 94.4 0.49L94.4 0.49Q89.91 0.49 86.64-1.59 83.37-3.66 81.6-7.48 79.83-11.3 79.83-16.5L79.83-16.5 79.83-19.02Q79.83-24.24 81.65-28.05 83.46-31.86 86.76-33.96 90.06-36.06 94.55-36.06L94.55-36.06Q98.94-36.06 101.95-34.45 104.95-32.84 106.62-30.02 108.29-27.2 108.61-23.58L108.61-23.58 101.65-23.58Q101.36-26.83 99.8-28.59 98.23-30.35 94.55-30.35L94.55-30.35Q91.98-30.35 90.29-29.09 88.59-27.83 87.75-25.33 86.91-22.83 86.91-19.07L86.91-19.07 86.91-16.5Q86.91-12.87 87.66-10.35 88.42-7.84 90.07-6.52 91.72-5.2 94.4-5.2L94.4-5.2Q96.82-5.2 98.33-5.94 99.85-6.69 100.64-8.15 101.43-9.62 101.63-11.77L101.63-11.77ZM142.59-18.58L142.59-16.94Q142.59-11.52 140.7-7.62 138.81-3.71 135.44-1.61 132.07 0.49 127.6 0.49L127.6 0.49Q123.18 0.49 119.78-1.61 116.37-3.71 114.46-7.62 112.54-11.52 112.54-16.94L112.54-16.94 112.54-18.58Q112.54-24 114.44-27.91 116.35-31.81 119.74-33.92 123.13-36.04 127.55-36.04L127.55-36.04Q132.02-36.04 135.4-33.92 138.78-31.81 140.69-27.91 142.59-24 142.59-18.58L142.59-18.58ZM135.54-16.94L135.54-18.63Q135.54-22.44 134.6-25.02 133.66-27.61 131.87-28.94 130.09-30.27 127.55-30.27L127.55-30.27Q125.04-30.27 123.26-28.94 121.47-27.61 120.53-25.02 119.59-22.44 119.59-18.63L119.59-18.63 119.59-16.94Q119.59-13.16 120.55-10.55 121.5-7.93 123.29-6.59 125.09-5.25 127.6-5.25L127.6-5.25Q130.14-5.25 131.92-6.59 133.71-7.93 134.62-10.55 135.54-13.16 135.54-16.94L135.54-16.94ZM167.81-35.55L174.79-35.55 174.79-12.01Q174.79-7.91 173.02-5.13 171.25-2.34 168.2-0.93 165.15 0.49 161.29 0.49L161.29 0.49Q157.36 0.49 154.3-0.93 151.23-2.34 149.49-5.13 147.74-7.91 147.74-12.01L147.74-12.01 147.74-35.55 154.72-35.55 154.72-12.01Q154.72-9.62 155.52-8.11 156.31-6.59 157.78-5.86 159.24-5.13 161.29-5.13L161.29-5.13Q163.34-5.13 164.79-5.86 166.25-6.59 167.03-8.11 167.81-9.62 167.81-12.01L167.81-12.01 167.81-35.55ZM209.68-35.55L209.68 0 202.69 0 187.95-23.97 187.95 0 180.97 0 180.97-35.55 187.95-35.55 202.74-11.55 202.74-35.55 209.68-35.55ZM231.87-35.55L231.87 0 224.88 0 224.88-35.55 231.87-35.55ZM242.8-35.55L242.8-29.91 214.07-29.91 214.07-35.55 242.8-35.55Z" opacity="1" transform="matrix(1,0,0,1,0,0)" fill="#000000" class="undefined-text-0" data-fill-palette-color="primary" id="text-0"></path></svg></g></svg></g><g transform="matrix(1,0,0,1,135.20896263216503,74.59713494459687)"><svg viewBox="0 0 125.1020747356699 37.296274173886445" height="37.296274173886445" width="125.1020747356699"><g transform="matrix(1,0,0,1,0,0)"><svg width="125.1020747356699" viewBox="4.130000114440918 -36.040000915527344 122.5 36.53000259399414" height="37.296274173886445" data-palette-color="#ff4444"><path d="M13.75 0L6.32 0 6.37-3.81 13.75-3.81Q17.53-3.81 20.07-5.41 22.61-7.01 23.89-9.9 25.17-12.79 25.17-16.7L25.17-16.7 25.17-18.9Q25.17-22.97 23.89-25.83 22.61-28.69 20.14-30.2 17.68-31.71 14.16-31.71L14.16-31.71 6.18-31.71 6.18-35.55 14.16-35.55Q18.85-35.55 22.38-33.51 25.9-31.47 27.88-27.72 29.86-23.97 29.86-18.85L29.86-18.85 29.86-16.7Q29.86-11.55 27.88-7.81 25.9-4.08 22.29-2.04 18.68 0 13.75 0L13.75 0ZM8.86-35.55L8.86 0 4.13 0 4.13-35.55 8.86-35.55ZM50.12-32.42L38.38 0 33.49 0 47.07-35.55 50.19-35.55 50.12-32.42ZM59.96 0L48.17-32.42 48.12-35.55 51.22-35.55 64.82 0 59.96 0ZM59.37-13.13L59.37-9.3 39.38-9.3 39.38-13.13 59.37-13.13ZM88.52-8.98L88.52-8.98Q88.52-10.67 87.81-11.84 87.1-13.01 85.27-13.96 83.44-14.92 80.07-15.89L80.07-15.89Q77.44-16.65 75.32-17.61 73.21-18.58 71.7-19.82 70.19-21.07 69.38-22.68 68.57-24.29 68.57-26.37L68.57-26.37Q68.57-29.15 70.08-31.34 71.58-33.52 74.29-34.78 77-36.04 80.63-36.04L80.63-36.04Q84.66-36.04 87.47-34.51 90.28-32.98 91.74-30.53 93.21-28.08 93.21-25.29L93.21-25.29 88.45-25.29Q88.45-27.29 87.6-28.86 86.76-30.42 85.03-31.31 83.3-32.2 80.63-32.2L80.63-32.2Q78.14-32.2 76.52-31.45 74.9-30.69 74.12-29.39 73.33-28.1 73.33-26.44L73.33-26.44Q73.33-24.95 74.19-23.79 75.04-22.63 76.87-21.7 78.71-20.78 81.61-19.95L81.61-19.95Q85.64-18.82 88.23-17.33 90.82-15.84 92.05-13.82 93.28-11.79 93.28-9.03L93.28-9.03Q93.28-6.15 91.74-4 90.2-1.86 87.42-0.68 84.64 0.49 80.88 0.49L80.88 0.49Q78.41 0.49 76.03-0.2 73.65-0.88 71.71-2.25 69.77-3.61 68.61-5.63 67.45-7.64 67.45-10.3L67.45-10.3 72.19-10.3Q72.19-8.47 72.9-7.15 73.6-5.83 74.82-4.98 76.04-4.13 77.61-3.72 79.17-3.32 80.88-3.32L80.88-3.32Q83.34-3.32 85.04-4.02 86.74-4.71 87.63-5.98 88.52-7.25 88.52-8.98ZM122.48-20.26L122.48-16.46 103.29-16.46 103.29-20.26 122.48-20.26ZM104.02-35.55L104.02 0 99.28 0 99.28-35.55 104.02-35.55ZM126.63-35.55L126.63 0 121.89 0 121.89-35.55 126.63-35.55Z" opacity="1" transform="matrix(1,0,0,1,0,0)" fill="#000000" class="undefined-text-1" data-fill-palette-color="secondary" id="text-1"></path></svg></g></svg></g></svg></g></svg></g><g transform="matrix(1,0,0,1,102.89632293258857,0)"><svg viewBox="0 0 189.72735413482283 154.63669140174397" height="154.63669140174397" width="189.72735413482283"><g><svg xmlns="http://www.w3.org/2000/svg" xmlns:xlink="http://www.w3.org/1999/xlink" version="1.1" x="8" y="0" viewBox="4.052309036254883 7.715111255645752 94.47569274902344 84.09388732910156" enable-background="new 0 0 100 100" xml:space="preserve" height="154.63669140174397" width="173.72735413482283" class="icon-icon-0" data-fill-palette-color="accent" id="icon-0"><g fill="#ff4444" data-fill-palette-color="accent"><g fill="#ff4444" data-fill-palette-color="accent"><g fill="#ff4444" data-fill-palette-color="accent"><path fill="#000000" d="M95.603 51.168h-4.016V30.292c0-0.848-0.578-1.537-1.292-1.537-0.484 0.008-51.823 0.826-69.792-0.002-2.176-0.101-7.448-0.734-9.39-4.441-1.233-2.353-0.795-5.24 1.299-8.582l3.401 2.131c-0.882 1.406-1.795 3.344-1.144 4.586 0.748 1.428 3.561 2.181 6.018 2.293 17.846 0.824 69.061 0.008 69.574-0.001 2.96 0 5.341 2.49 5.341 5.552V51.168z" data-fill-palette-color="accent"></path></g><g fill="#ff4444" data-fill-palette-color="accent"><path fill="#000000" d="M20.097 91.809c-1.673 0-7.182-0.321-11.305-4.193C5.692 84.702 4.12 80.528 4.12 75.21V28.905c-0.113-1.011-0.476-6.053 3.026-10.117 2.903-3.371 7.55-5.08 13.807-5.08v4.014c-5.014 0-8.626 1.229-10.737 3.653-2.635 3.025-2.108 7.08-2.102 7.12l0.02 0.286V75.21c0 4.152 1.138 7.334 3.382 9.456 3.57 3.377 8.909 3.122 8.961 3.121l69.817-0.004c0.714 0 1.292-0.69 1.292-1.54V66.222h4.016v20.021c0 3.062-2.381 5.554-5.308 5.554H20.596C20.571 91.8 20.395 91.809 20.097 91.809z" data-fill-palette-color="accent"></path></g><g fill="#ff4444" data-fill-palette-color="accent"><path fill="#000000" d="M84.436 21.489h-4.015V19.26c0-0.848-0.581-1.539-1.293-1.539H52.441v-4.014h26.687c2.927 0 5.308 2.491 5.308 5.553V21.489z" data-fill-palette-color="accent"></path></g><g fill="#ff4444" data-fill-palette-color="accent"><g fill="#ff4444" data-fill-palette-color="accent"><path fill="#000000" d="M86.869 20.653c-21.217-4.297-42.431-8.596-63.646-12.894-0.97-0.197-2.297 0.269-2.469 1.402-0.616 4.057-1.231 8.112-1.847 12.167-0.383 2.533 3.484 3.62 3.872 1.067 0.615-4.056 1.23-8.112 1.845-12.167-0.823 0.467-1.645 0.935-2.469 1.402 21.215 4.298 42.433 8.596 63.646 12.893C88.33 25.035 89.405 21.167 86.869 20.653L86.869 20.653z" data-fill-palette-color="accent"></path></g></g><g fill="#ff4444" data-fill-palette-color="accent"><g fill="#ff4444" data-fill-palette-color="accent"><path fill="#000000" d="M52.029 21.116c-6.398-1.401-12.794-2.803-19.191-4.204-1.029-0.225-2.218 0.294-2.469 1.401-0.334 1.479-0.668 2.955-1 4.433-0.57 2.521 3.301 3.592 3.87 1.066 0.334-1.476 0.667-2.953 1.001-4.431-0.824 0.466-1.646 0.934-2.47 1.401 6.396 1.402 12.794 2.803 19.191 4.204C53.484 25.54 54.558 21.669 52.029 21.116L52.029 21.116z" data-fill-palette-color="accent"></path></g></g></g><g fill="#ff4444" data-fill-palette-color="accent"><path fill="#000000" d="M94.003 67.208H77.479c-4.088 0-4.528-2.698-4.528-3.857v-9.812c0-1.161 0.44-3.859 4.528-3.859h16.523c4.085 0 4.526 2.698 4.526 3.859v9.812C98.529 64.51 98.088 67.208 94.003 67.208zM76.655 63.425c0.135 0.036 0.389 0.081 0.824 0.081h16.523c0.434 0 0.688-0.045 0.822-0.081 0.002-0.021 0.002-0.047 0.002-0.074v-9.812c0-0.027 0-0.053-0.002-0.076-0.134-0.036-0.389-0.081-0.822-0.081H77.479c-0.436 0-0.689 0.045-0.824 0.081 0 0.023-0.002 0.049-0.002 0.076v9.812C76.653 63.378 76.655 63.403 76.655 63.425z" data-fill-palette-color="accent"></path></g></g></svg></g></svg></g><g><rect width="79.2468224644379" height="5.442421512550206" y="148.19426988919378" x="292.6236770674114" fill="#000000" data-fill-palette-color="accent"></rect><rect width="79.2468224644379" height="5.442421512550206" y="148.19426988919378" x="23.649500468150677" fill="#000000" data-fill-palette-color="accent"></rect><rect width="79.2468224644379" height="5.442421512550206" y="137.30942686409335" x="292.6236770674114" fill="#000000" data-fill-palette-color="accent"></rect><rect width="79.2468224644379" height="5.442421512550206" y="137.30942686409335" x="23.649500468150677" fill="#000000" data-fill-palette-color="accent"></rect></g></svg></g><defs></defs></svg><rect width="348.2209990636986" height="247.2" fill="none" stroke="none" visibility="hidden"></rect></g></svg></g></svg>