<svg id="visual" viewBox="0 0 900 600" width="900" height="600" xmlns="http://www.w3.org/2000/svg" xmlns:xlink="http://www.w3.org/1999/xlink" version="1.1"><path d="M0 67L113 67L225 61L338 67L450 67L563 67L675 61L788 61L900 61L900 0L788 0L675 0L563 0L450 0L338 0L225 0L113 0L0 0Z" fill="#7b6bff"></path><path d="M0 211L113 199L225 223L338 229L450 217L563 211L675 205L788 223L900 229L900 59L788 59L675 59L563 65L450 65L338 65L225 59L113 65L0 65Z" fill="#8a7cff"></path><path d="M0 313L113 295L225 313L338 319L450 319L563 301L675 301L788 325L900 319L900 227L788 221L675 203L563 209L450 215L338 227L225 221L113 197L0 209Z" fill="#988cff"></path><path d="M0 469L113 469L225 463L338 469L450 463L563 469L675 469L788 475L900 475L900 317L788 323L675 299L563 299L450 317L338 317L225 311L113 293L0 311Z" fill="#988cff"></path><path d="M0 523L113 523L225 523L338 529L450 523L563 529L675 529L788 529L900 529L900 473L788 473L675 467L563 467L450 461L338 467L225 461L113 467L0 467Z" fill="#8a7cff"></path><path d="M0 601L113 601L225 601L338 601L450 601L563 601L675 601L788 601L900 601L900 527L788 527L675 527L563 527L450 521L338 527L225 521L113 521L0 521Z" fill="#7b6bff"></path></svg>